<ttFont>
          <CharString index="0">
            rmoveto
            -78 callsubr
            36 -146 rlineto
            -14 3 54 callgsubr
            33 hlineto
            28 12 7 12 5 -1 5 -2 5 hvcurveto
            -169 647 rlineto
            16 -4 -16 7 -29 hhcurveto
            -47 hlineto
            -28 -17 -7 -16 -4 hvcurveto
            -169 -647 rlineto
            -2 -5 -1 -5 -5 vvcurveto
            -12 13 -7 29 vhcurveto
            129 260 rmoveto
            return
          </CharString>
          <CharString index="1">
            292 hlineto
            16 9 callsubr
            -16 vhcurveto
            -204 208 182 132 callsubr
            23 134 callsubr
            -182 192 203 hlineto
            16 8 11 28 68 callgsubr
            -8 12 -16 vhcurveto
            -291 hlineto
            -22 35 callgsubr
            -632 50 callsubr
            return
          </CharString>
          <CharString index="2">
            rmoveto
            11 hlineto
            22 15 5 16 10 hvcurveto
            57 93 rlineto
            3 7 3 6 4 vvcurveto
            8 -7 5 -12 vhcurveto
            -24 hlineto
            -18 -12 -5 -11 -6 hvcurveto
            -37 -61 -36 60 rlineto
            12 -8 -11 5 -18 hhcurveto
            -22 hlineto
            -13 -7 -5 -7 -4 3 -8 4 -6 hvcurveto
            55 -93 rlineto
            -16 10 15 -5 23 hhcurveto
            return
          </CharString>
          <CharString index="3">
            -106 callsubr
            endchar
          </CharString>
          <CharString index="4">
            rmoveto
            17 -59 callgsubr
            397 vlineto
            22 -4 22 -4 23 vhcurveto
            5 2 7 -21 8 -22 11 -20 rlinecurve
            217 -408 rlineto
            -16 8 15 -5 21 hhcurveto
            20 -32 callsubr
            -17 -86 callgsubr
            -387 vlineto
            -24 4 -24 4 -24 vhcurveto
            -4 -2 -9 24 -8 23 -13 23 rlinecurve
            -209 393 rlineto
            20 -9 -15 4 -21 hhcurveto
            -24 hlineto
            -34 -13 -17 callsubr
            13 -9 34 vhcurveto
            return
          </CharString>
          <CharString index="5">
            rmoveto
            75 47 46 65 17 -12 6 -16 -13 -5 -8 -13 -5 hvcurveto
            -20 -9 -16 -16 -46 hhcurveto
            -44 -17 15 20 -9 hvcurveto
            14 -7 -4 8 -14 hhcurveto
            -17 -11 -6 -17 -65 48 -46 75 hvcurveto
            return
          </CharString>
          <CharString index="6">
            rmoveto
            33 14 -82 callgsubr
            -14 9 -33 -33 -14 -50 callgsubr
            14 -10 33 vhcurveto
            142 hmoveto
            32 15 -82 callgsubr
            -15 9 -32 -33 -14 -50 callgsubr
            14 -10 33 vhcurveto
            return
          </CharString>
          <CharString index="7">
            21 callsubr
            hvcurveto
            1 100 rmoveto
            -88 -46 72 186 186 46 69 88 87 47 -69 -186 -18 callgsubr
            hvcurveto
            return
          </CharString>
          <CharString index="8">
            rmoveto
            93 callsubr
            -10 -17 hvcurveto
            -306 vlineto
            -35 -21 -30 -30 -39 hhcurveto
            -48 -27 27 46 hvcurveto
            298 vlineto
            17 -15 10 -34 vhcurveto
            93 callsubr
            -10 -17 hvcurveto
            -312 vlineto
            -99 52 -54 96 52 45 22 40 32 vhcurveto
            -20 vlineto
            -122 -31 -47 -81 vhcurveto
            -84 -53 37 -12 hhcurveto
            -6 -7 -9 -25 -7 0 -17 2 -11 hvcurveto
            -31 4 81 -28 99 hhcurveto
            140 60 77 205 hvcurveto
            401 vlineto
            17 -15 10 -34 vhcurveto
            return
          </CharString>
          <CharString index="9">
            -86 callgsubr
            -474 vlineto
            -63 -45 -46 -67 -67 -45 46 63 vhcurveto
            474 -65 callgsubr
            -26 -86 callgsubr
            -477 vlineto
            return
          </CharString>
          <CharString index="10">
            69 callsubr
            223 hlineto
            12 29 35 14 169 -55 96 -125 -126 -76 -81 -191 -176 69 -89 148 hvcurveto
            -102 303 rmoveto
            104 5 29 42 51 hhcurveto
            50 23 -46 -100 hvcurveto
            return
          </CharString>
          <CharString index="11">
            rmoveto
            51 hlineto
            22 16 5 13 2 hvcurveto
            80 391 14 117 14 -117 79 -391 rlineto
            -13 2 16 -5 22 hhcurveto
            51 hlineto
            24 15 5 13 2 hvcurveto
            137 651 rlineto
            1 5 1 5 3 vvcurveto
            14 -14 8 -35 vhcurveto
            -16 hlineto
            -30 -18 -7 -16 -3 hvcurveto
            -70 -432 -8 -48 -4 -36 -8 -46 rlinecurve
            -5 37 -7 51 -7 42 -79 436 rcurveline
            15 -3 -13 4 -25 hhcurveto
            -33 hlineto
            -25 -13 -4 -15 -3 hvcurveto
            -79 -435 -7 -40 -7 -45 -7 -44 rlinecurve
            -6 39 -3 43 -8 46 -72 432 rcurveline
            16 -3 -17 7 -30 hhcurveto
            -20 hlineto
            -35 -14 -8 -14 -4 0 -4 1 -5 hvcurveto
            136 -651 rlineto
            -13 2 14 -5 25 hhcurveto
            endchar
          </CharString>
          <CharString index="12">
            -97 callsubr
            endchar
          </CharString>
          <CharString index="13">
            -358 vlineto
            -30 -17 -26 -23 -31 hhcurveto
            -39 -17 25 44 hvcurveto
            342 vlineto
            17 -14 147 callgsubr
            -364 vlineto
            -90 44 -52 81 return
          </CharString>
          <CharString index="14">
            rmoveto
            22 hlineto
            32 140 callgsubr
            30 17 26 23 31 hhcurveto
            40 16 -26 -47 hvcurveto
            -338 vlineto
            -17 14 -9 33 vhcurveto
            21 hlineto
            33 14 9 17 hvcurveto
            357 -69 callsubr
            -17 13 -9 32 vhcurveto
            return
          </CharString>
          <CharString index="15">
            -93 callgsubr
            endchar
          </CharString>
          <CharString index="16">
            59 247 5 21 3 25 4 21 rlinecurve
            5 hlineto
            3 -21 3 -25 5 -21 60 -247 rcurveline
            return
          </CharString>
          <CharString index="17">
            -4 callgsubr
            283 vlineto
            164 356 rlineto
            4 8 2 7 6 vvcurveto
            11 -15 6 -34 1 vhcurveto
            -26 hlineto
            -23 -19 -2 -14 -5 hvcurveto
            -105 -267 -105 266 rlineto
            14 -5 -18 3 -23 hhcurveto
            -32 hlineto
            -35 -15 -7 -11 -6 3 -7 4 -8 hvcurveto
            163 -353 rlineto
            -286 vlineto
            85 callsubr
            return
          </CharString>
          <CharString index="18">
            -32 -52 35 -38 hhcurveto
            -41 -28 -24 -45 -18 hvcurveto
            -2 -6 -1 -5 -4 vvcurveto
            -6 4 -8 12 -4 vhcurveto
            return
          </CharString>
          <CharString index="19">
            12 callsubr
            hintmask 01111100
            -84 callsubr
            hintmask 10111100
            -78 callgsubr
          </CharString>
          <CharString index="20">
            rmoveto
            -22 callsubr
            475 -70 callgsubr
            -35 vhcurveto
            -14 hlineto
            -34 35 callsubr
            -475 vlineto
            -2 callsubr
            return
          </CharString>
          <CharString index="21">
            97 66 64 94 83 -43 39 -61 31 hvcurveto
            -39 22 -36 20 44 vvcurveto
            33 25 16 32 vhcurveto
            37 25 -22 8 hhcurveto
            13 22 47 19 32 -68 17 -51 -90 -65 -57 -93 -82 44 -36 58 -29 hvcurveto
            46 -24 31 -22 -43 vvcurveto
            -38 -22 -20 -38 vhcurveto
            -47 -29 34 -10 hhcurveto
            -15 -28 -45 -20 return
          </CharString>
          <CharString index="22">
            rmoveto
            57 63 35 110 hvcurveto
            566 -70 callgsubr
            -35 vhcurveto
            -14 hlineto
            -34 35 callsubr
            -562 vlineto
            -44 -13 -13 -19 vhcurveto
            -18 -9 4 -6 hhcurveto
            -17 -9 -42 -15 -32 41 -7 42 hvcurveto
            endchar
          </CharString>
          <CharString index="23">
            -35 6 -1 -33 29 hhcurveto
            16 67 5 22 hvcurveto
            10 -10 34 89 vvcurveto
            338 -9 callgsubr
            -32 -14 -8 -18 hvcurveto
            return
          </CharString>
          <CharString index="24">
            rmoveto
            54 85 28 31 18 -20 44 -18 -3 -5 -4 -3 -7 hvcurveto
            -9 -16 -24 -13 -38 hhcurveto
            -71 -31 51 128 127 35 47 67 34 25 -14 -8 15 hvcurveto
            -4 6 4 -2 4 hhcurveto
            15 23 46 18 29 -69 27 -65 -132 -79 -73 -195 -188 71 -81 140 hvcurveto
            endchar
          </CharString>
          <CharString index="25">
            -753 -107 callsubr
            return
          </CharString>
          <CharString index="26">
            rmoveto
            34 hlineto
            23 12 5 13 3 hvcurveto
            hintmask 01101100
            62 281 4 21 5 41 3 22 rlinecurve
            4 hlineto
            3 -22 4 -41 4 -21 62 -281 rcurveline
            -13 2 12 -5 24 hhcurveto
            34 hlineto
            22 14 5 13 2 hvcurveto
            105 472 rlineto
            1 6 1 6 4 vvcurveto
            13 -15 8 -34 -34 -19 -5 -13 -2 vhcurveto
            -43 -287 rlineto
            hintmask 10011100
            -15 -108 rlineto
            -5 hlineto
            -3 30 -8 45 -7 35 -53 284 rcurveline
            14 -2 -18 5 -23 hhcurveto
            -22 hlineto
            -23 -17 -5 -14 -2 hvcurveto
            -53 -284 -6 -29 -9 -51 -3 -31 rlinecurve
            -5 hlineto
            -3 28 -9 56 -3 25 -43 287 rcurveline
            13 -2 -18 5 -38 hhcurveto
            -35 -14 -8 -13 -4 1 -8 1 -6 hvcurveto
            106 -470 rlineto
            hintmask 01011100
            -13 2 13 -5 23 hhcurveto
            endchar
          </CharString>
          <CharString index="27">
            23 callgsubr
            9 6 5 10 7 hvcurveto
            18 12 9 4 10 hhcurveto
            return
          </CharString>
          <CharString index="28">
            rmoveto
            -81 callgsubr
            return
          </CharString>
          <CharString index="29">
            32 hlineto
            21 17 4 14 3 hvcurveto
            35 146 rlineto
            187 hlineto
            return
          </CharString>
          <CharString index="30">
            -76 callgsubr
            endchar
          </CharString>
          <CharString index="31">
            143 callgsubr
            10 hvcurveto
            75 101 7 5 11 vvcurveto
            11 -16 3 -32 -31 -26 -7 -20 -9 vhcurveto
            -37 -80 -15 -31 callsubr
            -31 -32 1 callgsubr
            return
          </CharString>
          <CharString index="32">
            -68 callgsubr
            hintmask 11101100
            -102 callgsubr
            hintmask 11011100
            -89 callsubr
            return
          </CharString>
          <CharString index="33">
            652 -70 callgsubr
            -32 vhcurveto
            -27 -54 callgsubr
            return
          </CharString>
          <CharString index="34">
            -87 callsubr
            endchar
          </CharString>
          <CharString index="35">
            14 9 17 hvcurveto
            return
          </CharString>
          <CharString index="36">
            22 -20 -36 31 -51 hhcurveto
            -101 -65 -95 -169 -128 38 -136 118 43 38 22 46 24 hvcurveto
            -21 vlineto
            -120 1 -31 -49 -69 -68 -40 39 -11 hhcurveto
            -7 -6 -8 -25 -11 1 -12 3 -14 hvcurveto
            -30 5 67 -31 84 hhcurveto
            126 57 83 211 hvcurveto
            return
          </CharString>
          <CharString index="37">
            -70 callgsubr
            -33 return
          </CharString>
          <CharString index="38">
            vlineto
            95 -43 54 -79 -55 -45 -33 -43 -29 vhcurveto
            34 -6 1 34 -29 hhcurveto
            -16 -67 -6 -22 hvcurveto
            -10 10 -33 -89 vvcurveto
            -338 vlineto
            return
          </CharString>
          <CharString index="39">
            -751 -103 callgsubr
          </CharString>
          <CharString index="40">
            -14 -58 callgsubr
            return
          </CharString>
          <CharString index="41">
            -10 callgsubr
            -94 callsubr
            return
          </CharString>
          <CharString index="42">
            64 5 29 36 51 vvcurveto
            29 -20 49 -24 -5 -5 -1 -4 -4 vhcurveto
            -28 -18 rlineto
            -6 -5 -3 -6 -7 vvcurveto
            1 -13 26 -17 -30 vvcurveto
            -17 -10 -15 -28 -13 -9 3 8 -13 vhcurveto
            return
          </CharString>
          <CharString index="43">
            20 callsubr
            6 14 -5 17 93 callgsubr
            8 5 8 5 -3 5 return
          </CharString>
          <CharString index="44">
            63 6 29 35 50 vvcurveto
            30 -21 48 -24 -5 -4 -1 -3 -5 vhcurveto
            -27 -19 rlineto
            -7 -4 -3 -7 -6 -12 27 -20 -28 vvcurveto
            -16 -11 -16 -27 -15 -13 4 6 -12 vhcurveto
            return
          </CharString>
          <CharString index="45">
            17 7 12 27 hvcurveto
            14 111 callsubr
            return
          </CharString>
          <CharString index="46">
            344 vlineto
            21 7 27 35 34 25 10 -10 13 hhcurveto
            14 8 51 19 21 -12 25 -40 -40 -30 -32 -44 -24 hvcurveto
            26 -6 -3 42 -28 hhcurveto
            -18 -61 -6 -21 hvcurveto
            -12 12 -31 -90 vvcurveto
            -338 vlineto
            return
          </CharString>
          <CharString index="47">
            -31 5 4 -36 27 hhcurveto
            18 64 6 20 hvcurveto
            14 -11 30 91 vvcurveto
            566 vlineto
            18 -14 9 -33 vhcurveto
            -19 145 callgsubr
            -18 hvcurveto
            -237 vlineto
            23 -22 -29 18 -44 hhcurveto
            -102 -64 -96 -170 hvcurveto
            return
          </CharString>
          <CharString index="48">
            12 callgsubr
            8 hvcurveto
            30 -64 callsubr
            -4 6 hvcurveto
            -50 94 rlineto
            17 -10 118 callsubr
            -9 hlineto
            -22 -18 -4 -17 -9 hvcurveto
            -51 -94 rlineto
            -3 -6 -2 125 callgsubr
            124 -581 69 callsubr
            return
          </CharString>
          <CharString index="49">
            -21 164 96 314 130 0 -20 return
          </CharString>
          <CharString index="50">
            -10 -34 -36 -64 hhcurveto
            -64 -32 38 93 -5 hvcurveto
            return
          </CharString>
          <CharString index="51">
            -17 -11 callgsubr
            -27 7 -12 17 vhcurveto
            return
          </CharString>
          <CharString index="52">
            -69 callgsubr
            endchar
          </CharString>
          <CharString index="53">
            vlineto
            -43 callgsubr
            return
          </CharString>
          <CharString index="54">
            7 -26 callgsubr
            return
          </CharString>
          <CharString index="55">
            rmoveto
            30 -20 48 -25 -5 -4 -1 -3 -5 vhcurveto
            -27 10 callsubr
            -19 -27 vvcurveto
            -16 -10 -17 -33 vhcurveto
            return
          </CharString>
          <CharString index="56">
            rmoveto
            26 50 callgsubr
            576 129 vlineto
            17 7 11 28 hvcurveto
            22 111 callsubr
            -378 hlineto
            85 callgsubr
            -22 vlineto
            -28 127 callgsubr
            130 -576 hlineto
            -17 13 -9 33 vhcurveto
            return
          </CharString>
          <CharString index="57">
            rmoveto
            41 64 rlineto
            5 7 1 4 4 vvcurveto
            15 -23 14 -13 -7 -6 -4 -9 -5 vhcurveto
            -33 -51 rlineto
            33 -40 -52 16 -63 89 callsubr
            -112 19 -83 36 -59 hvcurveto
            -46 -73 rlineto
            -4 -5 -2 -6 -4 vvcurveto
            -13 22 -16 13 7 7 5 9 5 vhcurveto
            36 56 rlineto
            -38 41 55 -19 66 hhcurveto
            -41 callgsubr
            118 -21 86 -40 59 hvcurveto
            -328 -263 rmoveto
            186 46 69 88 39 31 -14 -32 22 vhcurveto
            -215 -339 rlineto
            -7 35 -4 43 52 vvcurveto
            134 -258 rmoveto
            -43 -33 18 40 -23 hvcurveto
            219 345 rlineto
            9 -37 5 -48 -60 vvcurveto
            -18 callgsubr
            vhcurveto
            endchar
          </CharString>
          <CharString index="58">
            150 751 -107 callgsubr
            -50 -751 rmoveto
            -106 callsubr
            return
          </CharString>
          <CharString index="59">
            0 96 510 101 hstem
            44 121 268 123 vstem
            52 hmoveto
            197 hlineto
            16 8 100 callsubr
            14 -2 8 -9 4 vhcurveto
            -62 24 -35 87 161 vvcurveto
            168 46 87 88 88 46 -87 -168 -161 -35 -87 -61 -24 vhcurveto
            -8 -5 -3 -7 -14 vvcurveto
            -14 vlineto
            -27 8 -12 17 vhcurveto
            196 hlineto
            17 -53 callsubr
            18 111 callsubr
            -26 -39 -10 -1 hhcurveto
            51 62 24 92 116 vvcurveto
            230 -92 121 -165 -164 -91 -121 -230 -116 24 -92 50 -62 vhcurveto
            -1 -39 10 -26 hhcurveto
            -16 -8 -12 -27 hvcurveto
            -18 vlineto
            -27 8 -12 16 vhcurveto
            endchar
          </CharString>
          <CharString index="60">
            135 574 -107 callgsubr
            123 -581 -97 callsubr
            return
          </CharString>
          <CharString index="61">
            rmoveto
            28 hlineto
            20 12 6 12 4 hvcurveto
            56 146 rlineto
            191 hlineto
            18 -133 rlineto
            -20 2 8 -9 18 hhcurveto
            262 hlineto
            16 8 -26 callgsubr
            22 vlineto
            28 -8 11 -16 vhcurveto
            -186 hlineto
            -29 208 rlineto
            193 132 callsubr
            23 134 callsubr
            -207 hlineto
            -26 192 rlineto
            254 hlineto
            16 8 11 28 68 callgsubr
            -8 12 -16 vhcurveto
            -375 hlineto
            -17 -10 -8 -19 -8 hvcurveto
            -252 -639 rlineto
            -2 -6 -1 -6 -5 vvcurveto
            -12 15 -7 32 vhcurveto
            156 264 rmoveto
            88 233 21 63 rlineto
            3 hlineto
            1 -64 30 -232 rlineto
            endchar
          </CharString>
          <CharString index="62">
            -38 callsubr
            -32 3 hvcurveto
            return
          </CharString>
          <CharString index="63">
            128 callgsubr
            -173 69 -94 129 hvcurveto
            -1 92 rmoveto
            -57 -24 52 124 125 24 52 57 57 25 -52 -125 -124 -25 -52 -57 hvcurveto
            return
          </CharString>
          <CharString index="64">
            110 callsubr
            9 hvcurveto
            30 49 31 -50 rlineto
            -10 9 9 -5 19 hhcurveto
            23 hlineto
            13 7 5 7 4 -3 8 -5 8 hvcurveto
            -48 69 rlineto
            15 -11 -13 6 -25 37 callsubr
            -4 -8 -4 88 callgsubr
            return
          </CharString>
          <CharString index="65">
            128 594 -104 callgsubr
            -17 17 -10 39 vhcurveto
            -8 -27 callgsubr
            return
          </CharString>
          <CharString index="66">
            68 85 32 35 15 -25 46 -18 hvcurveto
            return
          </CharString>
          <CharString index="67">
            -186 -21 200 95 -68 -21 526 -20 hstemhm
            52 114 118 115 hintmask 10111100
            399 160 rmoveto
            339 119 callsubr
            -32 88 callsubr
            hintmask 11011100
            -347 vlineto
            -34 -11 -23 -30 -32 hhcurveto
            -37 -15 30 51 hvcurveto
            330 vlineto
            17 -13 147 callgsubr
            -680 -54 callsubr
            21 hlineto
            33 76 callsubr
            174 3 vlineto
            52 45 32 44 25 hvcurveto
            hintmask 10111100
            -28 5 0 -42 26 hhcurveto
            19 67 6 21 hvcurveto
            12 -9 31 91 vvcurveto
            endchar
          </CharString>
          <CharString index="68">
            -246 92 -112 163 return
          </CharString>
          <CharString index="69">
            101 callgsubr
            -39 callgsubr
            return
          </CharString>
          <CharString index="70">
            hlineto
            -62 callsubr
            return
          </CharString>
          <CharString index="71">
            -7 0 callgsubr
            return
          </CharString>
          <CharString index="72">
            -24 9 -10 22 vhcurveto
            return
          </CharString>
          <CharString index="73">
            -107 callsubr
            hintmask 11101110
            -91 callsubr
            endchar
          </CharString>
          <CharString index="74">
            292 661 rlineto
            1 5 2 3 4 vvcurveto
            6 -5 3 -11 vhcurveto
            -14 hlineto
            -14 -13 -6 -15 -6 hvcurveto
            -291 -661 rlineto
            -3 -5 -2 -4 -3 vvcurveto
            return
          </CharString>
          <CharString index="75">
            -59 callgsubr
            652 -65 callgsubr
            return
          </CharString>
          <CharString index="76">
            -23 -10 vvcurveto
            -9 5 -3 19 vhcurveto
            145 hmoveto
            36 13 9 12 9 hvcurveto
            78 100 5 113 callgsubr
            return
          </CharString>
          <CharString index="77">
            rmoveto
            28 58 68 83 20 -12 15 -27 hvcurveto
            return
          </CharString>
          <CharString index="78">
            41 116 163 116 return
          </CharString>
          <CharString index="79">
            429 31 rmoveto
            -133 243 122 215 rlineto
            5 10 3 6 5 vvcurveto
            9 -13 6 -30 vhcurveto
            -34 hlineto
            -22 -12 -2 -14 -7 hvcurveto
            -119 -216 rlineto
            -5 433 hlineto
            18 -13 9 -33 vhcurveto
            -20 145 callgsubr
            -18 hvcurveto
            -702 -54 callsubr
            20 hlineto
            33 76 callsubr
            229 9 vlineto
            126 -239 rlineto
            -14 7 7 -2 22 hhcurveto
            36 hlineto
            32 13 4 11 4 -2 5 -5 9 hvcurveto
            return
          </CharString>
          <CharString index="80">
            -7 -21 callsubr
            return
          </CharString>
          <CharString index="81">
            100 rmoveto
            500 86 vlineto
            83 50 -68 -182 -183 -50 -67 -83 hvcurveto
            return
          </CharString>
          <CharString index="82">
            40 callsubr
            -4 1 return
          </CharString>
          <CharString index="83">
            -7 -12 -27 hvcurveto
            return
          </CharString>
          <CharString index="84">
            92 131 80 146 88 return
          </CharString>
          <CharString index="85">
            14 hlineto
            35 -72 callsubr
            return
          </CharString>
          <CharString index="86">
            92 -65 -21 256 78 105 92 return
          </CharString>
          <CharString index="87">
            0 95 463 152 hstem
            31 517 vstem
            58 hmoveto
            462 hlineto
            18 10 11 21 hvcurveto
            24 vlineto
            15 -2 11 -4 13 vhcurveto
            -197 590 rlineto
            18 -6 -11 7 -15 hhcurveto
            -46 hlineto
            -17 -11 -7 -18 -5 hvcurveto
            -196 -590 rlineto
            -5 -15 -2 -10 -15 vvcurveto
            -24 vlineto
            -20 10 -11 17 vhcurveto
            90 95 rmoveto
            137 463 rlineto
            8 hlineto
            137 -463 rlineto
            endchar
          </CharString>
          <CharString index="88">
            66 callgsubr
            79 callsubr
            return
          </CharString>
          <CharString index="89">
            hstem
            -22 callgsubr
            vstem
            return
          </CharString>
          <CharString index="90">
            -58 callgsubr
            -652 vlineto
            -17 return
          </CharString>
          <CharString index="91">
            594 -15 callsubr
          </CharString>
          <CharString index="92">
            -104 callgsubr
            -17 17 -10 39 vhcurveto
            -65 -806 -85 callsubr
          </CharString>
          <CharString index="93">
            hhcurveto
            -36 -26 -24 -45 -16 hvcurveto
            -2 -6 -1 -5 -4 vvcurveto
            -6 4 -8 return
          </CharString>
          <CharString index="94">
            -56 -3 callgsubr
            return
          </CharString>
          <CharString index="95">
            -188 108 return
          </CharString>
          <CharString index="96">
            89 34 callsubr
            return
          </CharString>
          <CharString index="97">
            rmoveto
            27 hlineto
            32 76 callsubr
            284 223 -284 vlineto
            -17 13 -9 34 vhcurveto
            25 50 callgsubr
            652 vlineto
            17 -13 9 -34 -3 callsubr
            -267 -223 267 vlineto
            17 -13 9 -32 vhcurveto
            -27 hlineto
            -34 -13 -17 callsubr
            13 -9 34 vhcurveto
            return
          </CharString>
          <CharString index="98">
            80 66 19 79 2 return
          </CharString>
          <CharString index="99">
            -8 -45 callsubr
            return
          </CharString>
          <CharString index="100">
            -33 149 callsubr
            116 163 116 vstem
            return
          </CharString>
          <CharString index="101">
            38 80 92 callsubr
            -33 hvcurveto
            -13 -19 callgsubr
            return
          </CharString>
          <CharString index="102">
            4 -18 -18 3 -19 hhcurveto
            -107 -66 -64 -111 -70 27 -52 47 -28 hvcurveto
            return
          </CharString>
          <CharString index="103">
            0 -25 callgsubr
            return
          </CharString>
          <CharString index="104">
            vhcurveto
            11 callgsubr
            return
          </CharString>
          <CharString index="105">
            -17 15 -9 34 vhcurveto
            return
          </CharString>
          <CharString index="106">
            764 -68 callgsubr
            return
          </CharString>
          <CharString index="107">
            -10 -24 hvcurveto
            return
          </CharString>
          <CharString index="108">
            -7 callsubr
            226 -94 callgsubr
            return
          </CharString>
          <CharString index="109">
            -8 8 -6 14 vhcurveto
            -10 450 rmoveto
            -41 -7 43 53 51 6 46 42 43 6 -46 -51 -53 -7 -43 -42 hvcurveto
            346 -451 rmoveto
            60 70 28 136 137 -70 29 -60 -61 -69 -29 -137 -136 70 -28 60 hvcurveto
            return
          </CharString>
          <CharString index="110">
            hvcurveto
            -338 -54 callsubr
            21 -59 callgsubr
            357 vlineto
            return
          </CharString>
          <CharString index="111">
            17 6 11 28 hvcurveto
            14 vlineto
            27 -6 12 -17 vhcurveto
            -108 167 hlineto
            17 -12 9 -27 vhcurveto
            -12 hlineto
            -28 -11 -58 callgsubr
            -167 -109 vlineto
            -16 -11 callgsubr
            -28 127 callgsubr
            109 return
          </CharString>
          <CharString index="112">
            -24 callgsubr
            endchar
          </CharString>
          <CharString index="113">
            -30 -22 -18 -30 -38 vvcurveto
            -31 13 -27 23 -16 vhcurveto
            -3 vlineto
            return
          </CharString>
          <CharString index="114">
            41 115 158 109 return
          </CharString>
          <CharString index="115">
            -6 -10 -5 -15 hhcurveto
            -20 -12 11 40 hvcurveto
            return
          </CharString>
          <CharString index="116">
            38 callsubr
            28 -7 11 return
          </CharString>
          <CharString index="117">
            -19 rlineto
            -7 -4 -3 -7 -6 vvcurveto
            1 -13 26 return
          </CharString>
          <CharString index="118">
            -8 22 callsubr
            return
          </CharString>
          <CharString index="119">
            rmoveto
            17 callgsubr
            return
          </CharString>
          <CharString index="120">
            32 14 25 27 44 vvcurveto
            63 -43 38 -68 -42 -54 -14 -22 -12 15 -25 9 vhcurveto
            8 15 19 38 hhcurveto
            43 13 -27 -26 -27 -19 -36 -47 hvcurveto
            -18 hlineto
            -10 -4 -7 -16 hvcurveto
            -8 vlineto
            return
          </CharString>
          <CharString index="121">
            20 callgsubr
            13 48 return
          </CharString>
          <CharString index="122">
            587 -68 callgsubr
            return
          </CharString>
          <CharString index="123">
            rmoveto
            129 71 57 99 88 -58 27 -70 14 hvcurveto
            return
          </CharString>
          <CharString index="124">
            115 130 113 return
          </CharString>
          <CharString index="125">
            54 44 33 43 28 return
          </CharString>
          <CharString index="126">
            hstemhm
            58 17 callsubr
            return
          </CharString>
          <CharString index="127">
            61 31 -62 rlineto
            -10 return
          </CharString>
          <CharString index="128">
            -45 callgsubr
            -39 callsubr
            return
          </CharString>
          <CharString index="129">
            95 -66 -21 524 -20 return
          </CharString>
          <CharString index="130">
            -33 18 callgsubr
            return
          </CharString>
          <CharString index="131">
            55 rmoveto
            7 7 3 10 7 hvcurveto
            102 155 rlineto
            8 13 5 9 0 13 0 13 -5 9 13 flex1
            -102 155 rlineto
            10 -7 -7 3 -7 hhcurveto
            return
          </CharString>
          <CharString index="132">
            -212 92 122 94 341 93 -5 -20 return
          </CharString>
          <CharString index="133">
            118 -2 -79 callsubr
            return
          </CharString>
          <CharString index="134">
            264 vlineto
            18 -14 9 -32 vhcurveto
            -21 hlineto
            -34 -13 -9 -18 hvcurveto
            -702 vlineto
            return
          </CharString>
          <CharString index="135">
            132 callsubr
            9 134 callsubr
            return
          </CharString>
          <CharString index="136">
            71 callgsubr
            hvcurveto
            hintmask 11111100
            -39 callsubr
            vhcurveto
            return
          </CharString>
          <CharString index="137">
            71 callsubr
            -3 1 -4 hhcurveto
            -8 -7 -5 -11 -6 hvcurveto
            return
          </CharString>
          <CharString index="138">
            -41 -8 44 53 50 7 47 42 42 7 -47 -50 -53 -8 -44 -41 hvcurveto
            return
          </CharString>
          <CharString index="139">
            -212 83 568 84 -73 73 -73 80 return
          </CharString>
          <CharString index="140">
            -248 -2 callgsubr
            return
          </CharString>
          <CharString index="141">
            -7 42 callgsubr
            return
          </CharString>
          <CharString index="142">
            -15 -58 callgsubr
            return
          </CharString>
          <CharString index="143">
            -332 -216 rmoveto
            -39 -19 25 42 65 52 23 69 2 hvcurveto
            1 -46 5 -39 12 -33 rrcurveto
            -26 -20 -29 -13 -32 hhcurveto
            endchar
          </CharString>
          <CharString index="144">
            hhcurveto
            -10 hlineto
            -25 -13 -6 -15 -11 hvcurveto
            -48 -69 rlineto
            return
          </CharString>
          <CharString index="145">
            -53 callsubr
            22 vlineto
            return
          </CharString>
          <CharString index="146">
            25 44 16 hvcurveto
            2 5 1 4 5 vvcurveto
            9 -4 5 -11 5 vhcurveto
            return
          </CharString>
          <CharString index="147">
            3 rlineto
            1 -4 return
          </CharString>
          <CharString index="148">
            35 73 97 116 21 -14 14 -32 hvcurveto
            -15 hlineto
            -33 -14 -14 -23 -78 -17 -48 -12 -39 hvcurveto
            -2 -11 -4 -10 -7 vvcurveto
            return
          </CharString>
          <CharString index="149">
            5 1 4 5 vvcurveto
            9 -4 5 -11 5 vhcurveto
            -8 -25 callsubr
            -3 hhcurveto
            -9 -6 -5 -11 -6 hvcurveto
            -18 return
          </CharString>
          <CharString index="150">
            62 callgsubr
            28 hvcurveto
            return
          </CharString>
          <CharString index="151">
            181 -7 rmoveto
            30 49 9 29 hvcurveto
            return
          </CharString>
          <CharString index="152">
            -15 -12 -14 -18 -18 12 -14 15 hvcurveto
            return
          </CharString>
          <CharString index="153">
            -12 -8 63 callsubr
            return
          </CharString>
          <CharString index="154">
            rmoveto
            -9 hlineto
            -37 -4 -17 -31 -8 hvcurveto
            return
          </CharString>
          <CharString index="155">
            -107 -186 -21 732 -20 return
          </CharString>
          <CharString index="156">
            60 29 callgsubr
            return
          </CharString>
          <CharString index="157">
            vlineto
            -35 callsubr
            return
          </CharString>
          <CharString index="158">
            -20 76 152 hstem
            return
          </CharString>
          <CharString index="159">
            -1 92 rmoveto
            -57 -24 52 124 125 24 52 57 57 25 -52 -125 -124 -25 -52 -57 hvcurveto
            endchar
          </CharString>
          <CharString index="160">
            -5 -11 -7 hvcurveto
            return
          </CharString>
          <CharString index="161">
            32 callgsubr
            77 152 100 callgsubr
            hintmask 01011110
            return
          </CharString>
          <CharString index="162">
            -19 73 callsubr
            62 return
          </CharString>
          <CharString index="163">
            38 callgsubr
            407 return
          </CharString>
          <CharString index="164">
            -25 callgsubr
            51 144 return
          </CharString>
          <CharString index="165">
            73 -7 144 callgsubr
            return
          </CharString>
          <CharString index="166">
            92 353 92 return
          </CharString>
          <CharString index="167">
            5 10 hvcurveto
            77 25 vlineto
            10 4 6 16 hvcurveto
            8 vlineto
            16 -4 7 -10 vhcurveto
            -25 249 hlineto
            10 return
          </CharString>
          <CharString index="168">
            -58 callsubr
            69 144 return
          </CharString>
          <CharString index="169">
            rmoveto
            15 91 callgsubr
            return
          </CharString>
          <CharString index="170">
            91 127 94 398 -20 return
          </CharString>
          <CharString index="171">
            19 -9 7 -16 vhcurveto
            return
          </CharString>
          <CharString index="172">
            -21 704 -20 return
          </CharString>
          <CharString index="173">
            58 rlineto
            -51 hlineto
            -22 -61 -4 -14 -8 101 callgsubr
            -16 -15 -7 -14 vhcurveto
            -30 -21 20 return
          </CharString>
          <CharString index="174">
            300 rmoveto
            32 26 22 38 37 -26 23 -32 -32 -25 -23 -37 -38 25 -22 32 hvcurveto
            endchar
          </CharString>
          <CharString index="175">
            hstem
            69 119 return
          </CharString>
          <CharString index="176">
            rmoveto
            -41 callsubr
            -57 callsubr
            return
          </CharString>
          <CharString index="177">
            -13 callsubr
            51 152 hstem
            7 callsubr
            vstem
            return
          </CharString>
          <CharString index="178">
            39 callsubr
            -8 40 callsubr
            return
          </CharString>
          <CharString index="179">
            174 -68 96 -129 -129 -69 -96 -174 return
          </CharString>
          <CharString index="180">
            -40 callgsubr
            76 return
          </CharString>
          <CharString index="181">
            42 -7 103 198 100 209 104 return
          </CharString>
          <CharString index="182">
            -2 callgsubr
            hstem
            return
          </CharString>
          <CharString index="183">
            13 9 17 hvcurveto
            return
          </CharString>
          <CharString index="184">
            70 -35 70 hstemhm
            return
          </CharString>
          <CharString index="185">
            54 8 24 34 46 vvcurveto
            endchar
          </CharString>
          <CharString index="186">
            145 113 return
          </CharString>
          <CharString index="187">
            -61 178 96 hstem
            34 381 vstem
            415 235 rmoveto
            27 -6 12 -17 vhcurveto
            return
          </CharString>
          <CharString index="188">
            -7 58 callgsubr
            return
          </CharString>
          <CharString index="189">
            vhcurveto
            56 106 callgsubr
            return
          </CharString>
          <CharString index="190">
            69 120 219 122 return
          </CharString>
          <CharString index="191">
            hstemhm
            40 96 -81 97 -71 94 return
          </CharString>
          <CharString index="192">
            -17 15 -9 33 vhcurveto
            return
          </CharString>
          <CharString index="193">
            -29 callgsubr
            72 callsubr
            return
          </CharString>
          <CharString index="194">
            140 callgsubr
            19 return
          </CharString>
          <CharString index="195">
            vhcurveto
            -21 -86 callgsubr
            return
          </CharString>
          <CharString index="196">
            hhcurveto
            -45 callgsubr
            return
          </CharString>
          <CharString index="197">
            120 -23 88 -42 58 return
          </CharString>
          <CharString index="198">
            hlineto
            -33 77 callgsubr
            return
          </CharString>
          <CharString index="199">
            97 116 21 -16 14 return
          </CharString>
          <CharString index="200">
            -14 hlineto
            -35 -14 return
          </CharString>
          <CharString index="201">
            -67 102 callsubr
            return
          </CharString>
          <CharString index="202">
            34 callsubr
            44 144 -18 callsubr
            return
          </CharString>
          <CharString index="203">
            -19 callsubr
            hintmask 01111110
            return
          </CharString>
          <CharString index="204">
            -53 108 callgsubr
            return
          </CharString>
          <CharString index="205">
            92 -71 -21 438 92 hstemhm
            76 113 return
          </CharString>
          <CharString index="206">
            -33 -12 callsubr
            73 59 callsubr
            return
          </CharString>
          <CharString index="207">
            -26 callgsubr
            14 vlineto
            return
          </CharString>
          <CharString index="208">
            -14 21 -4 14 return
          </CharString>
          <CharString index="209">
            82 callgsubr
            64 callgsubr
            return
          </CharString>
          <CharString index="210">
            14 hlineto
            33 14 14 23 hvcurveto
            78 21 32 21 vvcurveto
            13 -21 5 return
          </CharString>
          <CharString index="211">
            hstem
            67 118 153 117 vstem
            return
          </CharString>
          <CharString index="212">
            hstem
            49 callsubr
            vstem
            return
          </CharString>
          <CharString index="213">
            3 19 141 callgsubr
            return
          </CharString>
          <CharString index="214">
            hstem
            83 callsubr
            vstem
            return
          </CharString>
          <CharString index="215">
            -256 142 callgsubr
            return
          </CharString>
          <CharString index="216">
            -7 -17 -24 -47 hhcurveto
            -46 -17 return
          </CharString>
          <CharString index="217">
            rmoveto
            22 hlineto
            20 8 5 11 return
          </CharString>
          <CharString index="218">
            vlineto
            27 102 callgsubr
            return
          </CharString>
          <CharString index="219">
            -168 62 -103 92 vhcurveto
            return
          </CharString>
          <CharString index="220">
            100 575 34 0 -20 return
          </CharString>
          <CharString index="221">
            hstem
            71 112 vstem
            return
          </CharString>
          <CharString index="222">
            -103 56 -32 60 vhcurveto
            return
          </CharString>
          <CharString index="223">
            66 callgsubr
            -5 48 85 48 -31 113 hintmask 0000000000000000
            return
          </CharString>
          <CharString index="224">
            -6 rmoveto
            69 54 44 78 58 -32 36 -39 13 hvcurveto
            3 vlineto
            return
          </CharString>
          <CharString index="225">
            -16 4 -23 hhcurveto
            return
          </CharString>
          <CharString index="226">
            vlineto
            17 -15 9 return
          </CharString>
          <CharString index="227">
            128 callgsubr
            hvcurveto
            return
          </CharString>
          <CharString index="228">
            -4 -3 1 -4 hhcurveto
            -9 -6 -5 -11 -6 hvcurveto
            -17 -11 return
          </CharString>
          <CharString index="229">
            hlineto
            -17 -7 -9 -23 hvcurveto
            -7 vlineto
            -22 7 -9 17 vhcurveto
            return
          </CharString>
          <CharString index="230">
            -7 139 callsubr
            return
          </CharString>
          <CharString index="231">
            hstem
            36 112 67 112 vstem
            return
          </CharString>
          <CharString index="232">
            112 hintmask 00000000
            return
          </CharString>
          <CharString index="233">
            88 -17 67 -35 46 return
          </CharString>
          <CharString index="234">
            15 12 14 18 return
          </CharString>
          <CharString index="235">
            -22 12 19 -17 hvcurveto
            262 vlineto
            35 19 26 22 return
          </CharString>
          <CharString index="236">
            -16 -8 -9 -21 hvcurveto
            -11 vlineto
            -21 8 -9 16 vhcurveto
            return
          </CharString>
          <CharString index="237">
            154 -7 92 -92 96 133 83 133 92 return
          </CharString>
          <CharString index="238">
            299 -7 rmoveto
            -41 callgsubr
            hvcurveto
            return
          </CharString>
          <CharString index="239">
            hlineto
            16 -53 callsubr
            return
          </CharString>
          <CharString index="240">
            21 -11 6 -15 -16 -4 return
          </CharString>
          <CharString index="241">
            vlineto
            27 -7 11 -16 vhcurveto
            return
          </CharString>
          <CharString index="242">
            hlineto
            28 13 9 17 2 hvcurveto
            24 166 rlineto
            return
          </CharString>
          <CharString index="243">
            144 hstem
            42 117 139 117 vstem
            return
          </CharString>
          <CharString index="244">
            150 callgsubr
            hvcurveto
            return
          </CharString>
          <CharString index="245">
            hlineto
            -4 -24 -2 -21 -30 vvcurveto
            -90 vlineto
            endchar
          </CharString>
          <CharString index="246">
            59 callsubr
            44 144 return
          </CharString>
          <CharString index="247">
            flex1
            102 -155 rlineto
            -10 return
          </CharString>
          <CharString index="248">
            -20 hstemhm
            65 112 return
          </CharString>
          <CharString index="249">
            -17 14 -9 34 vhcurveto
            return
          </CharString>
          <CharString index="250">
            -17 -24 callsubr
            return
          </CharString>
          <CharString index="251">
            hstemhm
            8 489 return
          </CharString>
          <CharString index="252">
            94 -37 120 -35 94 hintmask 00000000
            hintmask 11110100
            return
          </CharString>
          <CharString index="253">
            -765 rmoveto
            -41 callgsubr
            return
          </CharString>
          <CharString index="254">
            -12 callsubr
            80 100 500 100 hstem
            return
          </CharString>
          <CharString index="255">
            -51 -612 -33 callgsubr
            return
          </CharString>
          <CharString index="256">
            18 callgsubr
            51 152 hstem
            41 return
          </CharString>
          <CharString index="257">
            101 callsubr
            vhcurveto
            endchar
          </CharString>
          <CharString index="258">
            7 -12 16 vhcurveto
            return
          </CharString>
          <CharString index="259">
            hlineto
            -34 -14 -9 return
          </CharString>
        <CharString name=".notdef">
          4 0 50 600 50 hstem
          7 49 400 51 vstem
          7 hmoveto
          500 700 -500 hlineto
          250 -305 rmoveto
          -171 255 rlineto
          340 hlineto
          -370 -555 rmoveto
          510 vlineto
          171 -255 rlineto
          229 -255 rmoveto
          -169 255 169 255 rlineto
          -369 -555 rmoveto
          169 255 171 -255 rlineto
          endchar
        </CharString>
        <CharString name="A">
          -5 -40 callgsubr
          144 callsubr
          hintmask 11011000
          50 -2 -107 callsubr
          hintmask 11101000
          -91 callsubr
          endchar
        </CharString>
        <CharString name="AE">
          236 0 100 62 100 46 65 callgsubr
          hstem
          2 690 vstem
          49 -2 -46 callsubr
        </CharString>
        <CharString name="AEacute">
          236 0 100 62 100 46 65 callgsubr
          58 152 hstem
          2 690 vstem
          379 758 rmoveto
          -106 callgsubr
          -330 -760 -46 callsubr
        </CharString>
        <CharString name="Aacute">
          -5 73 callsubr
          152 48 callgsubr
          240 758 rmoveto
          -106 callgsubr
          -190 -760 -97 callgsubr
        </CharString>
        <CharString name="Abreve">
          -5 73 callsubr
          77 48 callgsubr
          253 758 -102 callsubr
          -203 -760 -97 callgsubr
        </CharString>
        <CharString name="Acircumflex">
          -5 78 callgsubr
          157 751 -107 callgsubr
          -107 -753 -97 callgsubr
        </CharString>
        <CharString name="Adieresis">
          -5 -40 callgsubr
          89 108 hstemhm
          136 94 48 94 hintmask 11011110
          183 771 -101 callsubr
          -275 -773 -34 callsubr
        </CharString>
        <CharString name="Agrave">
          -5 73 callsubr
          152 48 callgsubr
          273 758 -101 callgsubr
          -223 -760 -97 callgsubr
        </CharString>
        <CharString name="Amacron">
          -5 -40 callgsubr
          100 81 48 callgsubr
          157 782 -83 callgsubr
          -107 -784 -97 callgsubr
        </CharString>
        <CharString name="Aogonek">
          -5 -171 66 124 -58 callsubr
          hstemhm
          349 64 hintmask 11101100
          495 136 callgsubr
          17 4 21 9 22 hvcurveto
          31 hlineto
          28 12 7 12 5 -1 5 -2 5 hvcurveto
          -169 647 rlineto
          16 -4 -16 7 -29 hhcurveto
          -47 hlineto
          -28 -17 -7 -16 -4 hvcurveto
          -169 -647 rlineto
          -2 -5 -1 -5 -5 vvcurveto
          -12 13 -7 29 vhcurveto
          -78 callsubr
          35 -143 rlineto
          -24 -37 -7 -40 -22 -56 callgsubr
          -316 358 rmoveto
          hintmask 11110100
          -91 callsubr
          endchar
        </CharString>
        <CharString name="Aring">
          -5 -40 callgsubr
          53 47 87 48 hstemhm
          161 48 85 48 hintmask 11011111
          251 735 -49 callgsubr
          -201 -784 -107 callsubr
          hintmask 11101111
          -91 callsubr
          endchar
        </CharString>
        <CharString name="Aringacute">
          -5 19 -21 164 96 544 48 hstem
          162 48 85 48 vstem
          242 871 rmoveto
          25 11 7 10 9 hvcurveto
          60 82 11 11 10 vvcurveto
          14 -12 4 -23 -29 -25 -6 0 callgsubr
          -30 -70 -9 -20 -9 -6 callgsubr
          -4 16 vhcurveto
          252 -839 rmoveto
          -169 647 -1 5 -3 5 -4 3 rlinecurve
          17 16 9 23 27 vvcurveto
          55 -35 37 -56 -55 -35 -37 -55 -27 9 -23 17 -16 vhcurveto
          -4 -4 -3 -4 -1 -5 -169 -647 rcurveline
          -2 -5 -1 -5 -5 vvcurveto
          -12 13 -7 29 vhcurveto
          -78 callsubr
          36 -146 rlineto
          -14 3 54 callgsubr
          33 hlineto
          28 12 7 12 5 -1 5 -2 5 hvcurveto
          -242 770 rmoveto
          27 16 -17 -27 -27 -16 -16 -27 -27 -15 16 27 27 15 17 27 hvcurveto
          -73 -544 rmoveto
          -91 callsubr
          endchar
        </CharString>
        <CharString name="Atilde">
          -5 -40 callgsubr
          82 70 -35 70 144 callsubr
          hintmask 11010110
          125 -1 callsubr
          hintmask 11011010
          -102 callgsubr
          hintmask 11010110
          -89 callsubr
          -65 -769 -107 callsubr
          hintmask 11100110
          -91 callsubr
          endchar
        </CharString>
        <CharString name="B">
          29 0 96 215 95 199 95 hstemhm
          69 115 174 117 -96 118 hintmask 11110100
          101 hmoveto
          177 hlineto
          146 73 72 127 108 -69 44 -43 14 hvcurveto
          4 vlineto
          hintmask 11111000
          49 22 41 61 75 vvcurveto
          106 -62 67 -137 vhcurveto
          -175 hlineto
          -23 35 callgsubr
          -632 vlineto
          hintmask 11110100
          -24 9 -10 23 vhcurveto
          83 406 rmoveto
          199 vlineto
          hintmask 11111000
          89 hlineto
          58 27 -30 -67 -62 -32 -40 -53 hvcurveto
          -89 -310 rmoveto
          215 vlineto
          hintmask 11110100
          98 hlineto
          64 33 -35 -68 -73 -32 -39 -57 hvcurveto
          endchar
        </CharString>
        <CharString name="C">
          92 callgsubr
          119 callgsubr
          vstem
          307 -7 -85 callgsubr
        </CharString>
        <CharString name="CR">
          -270 endchar
        </CharString>
        <CharString name="Cacute">
          92 callgsubr
          51 152 119 callgsubr
          vstem
          284 758 rmoveto
          -106 callgsubr
          23 -765 -85 callgsubr
        </CharString>
        <CharString name="Cacute.loclPLK">
          92 callgsubr
          51 152 119 callgsubr
          vstem
          285 758 -84 callgsubr
          22 -765 -85 callgsubr
        </CharString>
        <CharString name="Ccaron">
          92 callgsubr
          48 144 119 callgsubr
          vstem
          292 755 -105 callsubr
          15 -762 -85 callgsubr
        </CharString>
        <CharString name="Ccedilla">
          -51 -211 60 145 103 507 103 119 callgsubr
          142 78 vstem
          396 116 rmoveto
          -10 -22 -24 -9 -36 hhcurveto
          -102 -46 82 172 173 47 80 100 33 25 -9 -7 18 hvcurveto
          25 -12 13 53 1 27 rrcurveto
          17 -5 13 -19 5 vhcurveto
          9 -22 -35 7 -37 hhcurveto
          -181 -85 -116 -240 -232 72 -113 162 -12 hvcurveto
          -18 14 callsubr
          35 3 31 7 16 7 rlinecurve
          22 10 4 13 14 vvcurveto
          36 -13 43 -29 -11 vhcurveto
          endchar
        </CharString>
        <CharString name="Ccircumflex">
          92 callgsubr
          44 144 119 callgsubr
          vstem
          201 751 -107 callgsubr
          106 -758 -85 callgsubr
        </CharString>
        <CharString name="Cdotaccent">
          92 callgsubr
          64 108 119 callgsubr
          76 111 vstem
          298 771 -104 callgsubr
          -17 17 -10 39 vhcurveto
          9 -778 -85 callgsubr
        </CharString>
        <CharString name="D">
          67 114 callgsubr
          107 callsubr
          100 hmoveto
          -52 callgsubr
          89 -26 callsubr
          endchar
        </CharString>
        <CharString name="Dcaron">
          67 94 callgsubr
          271 755 -105 callsubr
          -171 -755 rmoveto
          -52 callgsubr
          89 -26 callsubr
          endchar
        </CharString>
        <CharString name="Dcroat">
          -36 callgsubr
        </CharString>
        <CharString name="E">
          -13 callgsubr
          64 callgsubr
          100 hmoveto
          -104 callsubr
        </CharString>
        <CharString name="Eacute">
          -13 callgsubr
          58 152 64 callgsubr
          234 758 rmoveto
          -106 callgsubr
          -134 -758 -103 callgsubr
        </CharString>
        <CharString name="Ebreve">
          -13 callgsubr
          58 77 64 callgsubr
          247 758 -102 callsubr
          -147 -758 -103 callgsubr
        </CharString>
        <CharString name="Ecaron">
          -13 callgsubr
          55 144 64 callgsubr
          241 755 -105 callsubr
          -141 -755 -103 callgsubr
        </CharString>
        <CharString name="Ecircumflex">
          -53 102 callsubr
          -49 callsubr
          endchar
        </CharString>
        <CharString name="Edieresis">
          -13 callgsubr
          71 108 hstemhm
          69 119 -59 94 48 94 hintmask 00000000
          hintmask 11110110
          176 771 -101 callsubr
          hintmask 11101010
          -218 -771 -103 callgsubr
        </CharString>
        <CharString name="Edotaccent">
          -13 callgsubr
          71 108 hstemhm
          69 119 3 111 hintmask 00000000
          hintmask 11110100
          247 771 -104 callgsubr
          -17 17 -10 39 vhcurveto
          hintmask 11101000
          -147 -771 -103 callgsubr
        </CharString>
        <CharString name="Egrave">
          -13 callgsubr
          58 152 64 callgsubr
          266 758 -101 callgsubr
          -166 -758 -103 callgsubr
        </CharString>
        <CharString name="Emacron">
          -13 callgsubr
          82 81 64 callgsubr
          151 782 -83 callgsubr
          -51 -782 -103 callgsubr
        </CharString>
        <CharString name="Eng">
          80 -212 92 139 65 callsubr
          hstem
          34 callgsubr
          vstem
          479 702 rmoveto
          -17 -86 callgsubr
          -387 vlineto
          -24 4 -24 4 -24 vhcurveto
          -4 -2 -9 24 -8 23 -13 23 rlinecurve
          -209 393 rlineto
          20 -9 -15 4 -21 hhcurveto
          -24 hlineto
          -34 -13 -17 callsubr
          13 -9 34 vhcurveto
          17 -59 callgsubr
          397 vlineto
          22 -4 22 -4 23 vhcurveto
          5 2 7 -21 8 -22 11 -20 rlinecurve
          220 -413 rlineto
          -77 vlineto
          -44 -14 -13 -22 vhcurveto
          -18 -9 4 -6 hhcurveto
          -17 -9 -42 -15 -32 41 -7 42 57 63 35 110 hvcurveto
          743 -65 callgsubr
          endchar
        </CharString>
        <CharString name="Eogonek">
          -53 -177 66 111 -25 callgsubr
          68 callsubr
          136 64 vstem
          470 -106 rmoveto
          43 callsubr
          3 6 2 10 13 vvcurveto
          22 vlineto
          28 -7 11 -16 vhcurveto
          -204 208 182 132 callsubr
          23 134 callsubr
          -182 192 203 hlineto
          16 8 11 28 68 callgsubr
          -8 12 -16 vhcurveto
          -291 hlineto
          -22 35 callgsubr
          -632 50 callsubr
          247 hlineto
          -17 -33 -6 -33 -20 -56 callgsubr
          endchar
        </CharString>
        <CharString name="Eth">
          -36 callgsubr
        </CharString>
        <CharString name="Euro">
          -7 -7 103 139 70 86 70 143 103 hstem
          59 122 vstem
          311 -7 rmoveto
          92 77 44 33 15 -22 51 -24 hvcurveto
          -14 -36 -40 -70 hhcurveto
          -64 -44 44 95 -17 hvcurveto
          203 hlineto
          17 7 9 22 hvcurveto
          7 vlineto
          23 -7 9 -17 vhcurveto
          -211 hlineto
          -1 15 0 15 0 16 0 13 0 14 13 flex1
          211 hlineto
          17 7 9 22 hvcurveto
          7 vlineto
          23 -7 9 -17 vhcurveto
          -204 hlineto
          99 16 43 44 69 65 31 -34 12 hhcurveto
          20 28 49 22 27 -72 39 -87 -141 -84 -80 -166 -22 hvcurveto
          -39 122 callsubr
          32 -40 hlineto
          -16 0 -15 1 -15 vhcurveto
          -33 122 callsubr
          39 hlineto
          -165 22 79 -77 144 hhcurveto
          endchar
        </CharString>
        <CharString name="F">
          -87 19 -21 310 65 callgsubr
          64 callgsubr
          116 -2 -4 callgsubr
          284 165 vlineto
          16 8 11 27 hvcurveto
          23 vlineto
          27 -8 12 -16 vhcurveto
          -165 192 179 hlineto
          16 7 11 28 68 callgsubr
          -7 12 -16 vhcurveto
          -267 hlineto
          -22 35 callgsubr
          -642 vlineto
          -17 13 -9 34 vhcurveto
          endchar
        </CharString>
        <CharString name="G">
          74 callsubr
          119 callgsubr
          209 117 vstem
          461 394 -80 callgsubr
          endchar
        </CharString>
        <CharString name="Gbreve">
          74 callsubr
          51 77 119 callgsubr
          209 117 vstem
          295 758 -102 callsubr
          166 -364 -80 callgsubr
          endchar
        </CharString>
        <CharString name="Gcircumflex">
          74 callsubr
          44 144 119 callgsubr
          209 117 vstem
          198 751 -107 callgsubr
          263 -357 -80 callgsubr
          endchar
        </CharString>
        <CharString name="Gcommaaccent">
          42 -216 -21 230 103 198 100 209 104 hstemhm
          44 122 90 101 18 117 hintmask 11111010
          461 394 -80 callgsubr
          hintmask 11111110
          -143 -445 rmoveto
          -15 hlineto
          -33 -14 -15 -22 hvcurveto
          -78 -20 -32 -21 vvcurveto
          101 callsubr
          28 58 68 83 20 -12 15 -27 vhcurveto
          endchar
        </CharString>
        <CharString name="Gdotaccent">
          74 callsubr
          64 108 hstemhm
          44 122 73 111 25 117 hintmask 00000000
          hintmask 11111110
          295 771 -104 callgsubr
          -17 17 -10 39 vhcurveto
          hintmask 11101010
          166 -377 -80 callgsubr
          endchar
        </CharString>
        <CharString name="H">
          91 19 -21 310 101 293 -20 68 callsubr
          223 -16 callgsubr
          endchar
        </CharString>
        <CharString name="Hbar">
          76 19 -21 310 101 75 81 137 -20 68 callsubr
          223 119 vstem
          538 565 rmoveto
          -8 111 hlineto
          17 -13 9 -34 -3 callsubr
          -111 -223 111 vlineto
          17 -13 9 -32 vhcurveto
          -27 51 callgsubr
          -111 -21 vlineto
          -16 -7 0 callsubr
          -12 vlineto
          -24 127 callgsubr
          21 -460 hlineto
          -17 13 -9 34 vhcurveto
          27 hlineto
          32 76 callsubr
          284 223 -284 vlineto
          -17 13 -9 34 vhcurveto
          25 50 callgsubr
          460 8 vlineto
          17 7 11 24 hvcurveto
          12 vlineto
          24 -7 10 -17 vhcurveto
          -127 -156 rmoveto
          -223 75 223 hlineto
          endchar
        </CharString>
        <CharString name="Hcircumflex">
          91 19 -21 310 101 293 -20 69 144 68 callsubr
          223 119 vstem
          204 751 -107 callgsubr
          -88 -753 -10 callsubr
          endchar
        </CharString>
        <CharString name="I">
          33 callsubr
          hstem
          71 120 vstem
          26 callsubr
          endchar
        </CharString>
        <CharString name="IJ">
          107 -7 102 -76 65 callsubr
          hstemhm
          71 120 238 120 hintmask 00000000
          hintmask 01111000
          26 callsubr
          hintmask 10111000
          253 -5 -61 callgsubr
        </CharString>
        <CharString name="Iacute">
          -248 9 callgsubr
          71 120 vstem
          118 758 rmoveto
          -106 callgsubr
          -760 vmoveto
          -81 callgsubr
          endchar
        </CharString>
        <CharString name="Iacute_J.loclNLD">
          107 -7 102 -76 65 callsubr
          76 152 hstemhm
          71 120 238 120 hintmask 10111100
          118 758 rmoveto
          -106 callgsubr
          357 hmoveto
          -106 callgsubr
          hintmask 01111100
          -357 -760 -79 callsubr
          hintmask 10111100
          253 -5 -61 callgsubr
        </CharString>
        <CharString name="Ibreve">
          33 callsubr
          76 77 hstem
          71 120 vstem
          131 758 -102 callsubr
          -13 -760 -79 callsubr
          endchar
        </CharString>
        <CharString name="Icircumflex">
          33 callsubr
          69 144 hstem
          71 120 vstem
          35 751 -107 callgsubr
          83 -753 -79 callsubr
          endchar
        </CharString>
        <CharString name="Idieresis">
          33 callsubr
          89 108 hstemhm
          14 145 callsubr
          61 771 -101 callsubr
          hintmask 11101000
          -85 -773 -79 callsubr
          endchar
        </CharString>
        <CharString name="Idotaccent">
          33 callsubr
          89 108 hstemhm
          71 120 -115 111 hintmask 00000000
          hintmask 11101000
          132 771 -104 callgsubr
          -17 17 -10 39 vhcurveto
          hintmask 11110000
          -14 -773 -79 callsubr
          endchar
        </CharString>
        <CharString name="Igrave">
          -248 9 callgsubr
          71 120 vstem
          151 758 -101 callgsubr
          -33 -760 -79 callsubr
          endchar
        </CharString>
        <CharString name="Imacron">
          33 callsubr
          100 81 hstem
          71 120 vstem
          35 782 -83 callgsubr
          83 -784 -79 callsubr
          endchar
        </CharString>
        <CharString name="Iogonek">
          -248 -174 66 127 65 callsubr
          hstem
          71 120 vstem
          248 -103 rmoveto
          43 callsubr
          2 3 1 4 4 vvcurveto
          -74 callsubr
          4 hlineto
          -15 -32 -5 -30 -19 -56 callgsubr
          endchar
        </CharString>
        <CharString name="Itilde">
          33 callsubr
          82 77 callsubr
          71 120 hintmask 00000000
          hintmask 11011000
          3 -1 callsubr
          hintmask 11101000
          -102 callgsubr
          hintmask 11011000
          -89 callsubr
          125 -769 -79 callsubr
          endchar
        </CharString>
        <CharString name="J">
          -155 -7 102 607 -20 hstem
          167 120 vstem
          109 -7 -61 callgsubr
        </CharString>
        <CharString name="Jcircumflex">
          -155 -7 102 607 -20 69 144 hstem
          167 120 vstem
          129 751 -107 callgsubr
          -20 -758 -61 callgsubr
        </CharString>
        <CharString name="K">
          0 75 callsubr
          70 119 vstem
          -28 callgsubr
          endchar
        </CharString>
        <CharString name="Kcommaaccent">
          0 -216 -21 256 65 callsubr
          hstemhm
          70 119 20 101 hintmask 11110000
          -28 callgsubr
          hintmask 11111000
          -281 -268 -79 callgsubr
          endchar
        </CharString>
        <CharString name="L">
          -102 0 100 602 -20 64 callgsubr
          100 hmoveto
          -64 callgsubr
          endchar
        </CharString>
        <CharString name="Lacute">
          -102 0 100 602 -20 77 152 64 callgsubr
          117 759 rmoveto
          -106 callgsubr
          -17 -759 rmoveto
          -64 callgsubr
          endchar
        </CharString>
        <CharString name="Lcaron">
          -102 0 100 600 -20 22 -20 hstemhm
          69 119 74 102 hintmask 10111000
          100 hmoveto
          -64 callgsubr
          189 519 rmoveto
          hintmask 11011000
          -21 callgsubr
          hintmask 10111000
          -13 22 -5 14 vhcurveto
          endchar
        </CharString>
        <CharString name="Lcommaaccent">
          -102 -216 -21 237 100 602 -20 hstemhm
          69 119 -13 101 hintmask 11110000
          100 hmoveto
          -64 callgsubr
          hintmask 11101000
          90 -237 -79 callgsubr
          endchar
        </CharString>
        <CharString name="Ldot">
          -102 0 100 200 120 282 -20 68 callsubr
          56 115 vstem
          100 hmoveto
          -64 callgsubr
          201 67 callsubr
        </CharString>
        <CharString name="Lslash">
          -102 0 100 602 -20 64 callgsubr
          370 100 rmoveto
          -182 576 hlineto
          -46 callgsubr
          -33 -3 callsubr
          -642 50 callsubr
          270 hlineto
          17 9 callsubr
          -17 vhcurveto
          -212 307 rmoveto
          -5 vlineto
          -2 -1 1 1 vhcurveto
          0 0 -1 1 vhcurveto
          -21 -10 rlineto
          2 1 -1 1 1 vvcurveto
          6 vlineto
          1 1 0 -1 vhcurveto
          20 10 rlineto
          -1 -1 0 0 -2 vvcurveto
          endchar
        </CharString>
        <CharString name="M">
          179 75 callsubr
          64 115 332 115 vstem
          332 232 rmoveto
          26 hlineto
          16 8 5 13 6 hvcurveto
          98 189 10 19 9 20 8 20 rlinecurve
          4 -1 rlineto
          -4 -22 -2 -21 -21 vvcurveto
          -409 vlineto
          -17 13 -9 34 vhcurveto
          21 -32 callsubr
          -25 hlineto
          -25 -15 -7 -15 -8 hvcurveto
          -144 -279 -8 -15 -5 -17 -4 -16 rlinecurve
          -4 16 -5 17 -8 15 -144 279 rcurveline
          15 -8 -15 7 -25 hhcurveto
          -25 hlineto
          -34 -13 -17 callsubr
          13 -9 34 vhcurveto
          21 -59 callgsubr
          409 vlineto
          21 -2 21 -3 22 vhcurveto
          4 1 8 -20 8 -20 10 -19 rlinecurve
          98 -189 rlineto
          -13 6 8 -5 16 hhcurveto
          endchar
        </CharString>
        <CharString name="N">
          80 75 callsubr
          34 callgsubr
          -35 callgsubr
          endchar
        </CharString>
        <CharString name="Nacute">
          80 9 callgsubr
          34 callgsubr
          vstem
          282 758 rmoveto
          -106 callgsubr
          -171 -760 -103 callsubr
          endchar
        </CharString>
        <CharString name="Nacute.loclPLK">
          80 9 callgsubr
          34 callgsubr
          vstem
          283 758 -84 callgsubr
          -172 -760 -103 callsubr
          endchar
        </CharString>
        <CharString name="Ncaron">
          80 -2 callgsubr
          73 144 hstem
          34 callgsubr
          vstem
          290 755 -105 callsubr
          -179 -757 -103 callsubr
          endchar
        </CharString>
        <CharString name="Ncommaaccent">
          80 -216 -21 256 65 callsubr
          hstem
          64 111 68 101 71 111 -35 callgsubr
          147 -235 -79 callgsubr
          endchar
        </CharString>
        <CharString name="Ntilde">
          80 -2 callgsubr
          82 77 callsubr
          34 callgsubr
          hintmask 00000000
          hintmask 11011100
          167 764 -75 callsubr
          -46 -769 -103 callsubr
          endchar
        </CharString>
        <CharString name="O">
          -11 callsubr
          -18 callsubr
          299 -7 -92 callsubr
        </CharString>
        <CharString name="OE">
          313 -7 100 -93 -25 callgsubr
          -94 101 hstemhm
          44 122 264 121 hintmask 01110110
          761 100 rmoveto
          -210 208 187 hlineto
          17 -53 callsubr
          23 vlineto
          27 -7 11 -17 vhcurveto
          -187 192 209 hlineto
          16 7 11 28 68 callgsubr
          -7 12 -16 vhcurveto
          -297 hlineto
          -22 -10 0 callsubr
          hintmask 10101110
          -15 vlineto
          40 -40 -46 16 -58 hhcurveto
          -151 -92 -106 -249 -251 92 -108 150 58 47 17 41 40 hvcurveto
          hintmask 01110110
          -16 vlineto
          -25 10 -10 22 vhcurveto
          298 hlineto
          16 9 callsubr
          -16 vhcurveto
          hintmask 10101110
          -464 -7 rmoveto
          -86 -45 72 186 190 45 65 86 88 45 -65 -190 -186 -45 -72 -88 hvcurveto
          endchar
        </CharString>
        <CharString name="Oacute">
          -7 callgsubr
          287 758 rmoveto
          -106 callgsubr
          12 -765 -92 callsubr
        </CharString>
        <CharString name="Oacute.loclPLK">
          -7 callgsubr
          288 758 -84 callgsubr
          11 -765 -92 callsubr
        </CharString>
        <CharString name="Obreve">
          -11 callsubr
          51 77 -18 callsubr
          300 758 -102 callsubr
          -1 -765 -92 callsubr
        </CharString>
        <CharString name="Ocircumflex">
          89 95 callsubr
          204 751 -107 callgsubr
          95 -758 -92 callsubr
        </CharString>
        <CharString name="Odieresis">
          -11 callsubr
          64 108 hstemhm
          44 122 17 94 48 94 15 121 hintmask 00000000
          hintmask 11111110
          230 771 -101 callsubr
          hintmask 11110010
          -73 -778 -92 callsubr
        </CharString>
        <CharString name="Ograve">
          -7 callgsubr
          320 758 -101 callgsubr
          -21 -765 -92 callsubr
        </CharString>
        <CharString name="Ohorn">
          -11 callsubr
          -90 37 124 callgsubr
          -40 68 hintmask 11011000
          131 callsubr
          hintmask 10111000
          90 callsubr
          vhcurveto
          hintmask 10110100
          -65 callsubr
          hintmask 11011000
          26 -37 -46 16 -60 hhcurveto
          -100 callsubr
          endchar
        </CharString>
        <CharString name="Ohungarumlaut">
          -7 callgsubr
          203 758 -76 callsubr
          -49 -765 -92 callsubr
        </CharString>
        <CharString name="Omacron">
          -11 callsubr
          75 81 -18 callsubr
          204 782 -83 callgsubr
          95 -789 -92 callsubr
        </CharString>
        <CharString name="Oslash">
          -11 callsubr
          -18 callsubr
          494 614 -50 callsubr
        </CharString>
        <CharString name="Oslashacute">
          -7 callgsubr
          287 758 rmoveto
          -106 callgsubr
          207 -144 -50 callsubr
        </CharString>
        <CharString name="Otilde">
          -11 callsubr
          57 70 -35 70 124 callgsubr
          hintmask 00000000
          hintmask 11011100
          172 764 -75 callsubr
          137 -774 -92 callsubr
        </CharString>
        <CharString name="P">
          19 -21 284 100 218 100 hstem
          65 118 156 117 vstem
          113 -2 rmoveto
          23 -59 callgsubr
          258 92 vlineto
          44 137 24 188 179 -118 27 -72 hvcurveto
          -168 hlineto
          -23 -10 0 callsubr
          -642 vlineto
          142 callsubr
          70 384 rmoveto
          218 78 vlineto
          34 44 -19 -87 -94 -45 -18 -29 hvcurveto
          endchar
        </CharString>
        <CharString name="Q">
          89 606 101 -18 callsubr
          531 -165 rmoveto
          27 28 66 13 2 hvcurveto
          7 -4 6 -8 4 vhcurveto
          -170 80 rlineto
          4 vlineto
          97 40 52 109 186 vvcurveto
          246 -91 111 -165 -163 -92 -110 -247 -181 50 -107 95 -48 vhcurveto
          -82 163 165 -97 14 hhcurveto
          -231 257 rmoveto
          -87 -47 71 187 186 47 70 87 87 47 -70 -186 -18 callgsubr
          hvcurveto
          endchar
        </CharString>
        <CharString name="R">
          106 callsubr
          104 callsubr
          115 -2 -32 callgsubr
        </CharString>
        <CharString name="Racute">
          106 callsubr
          58 152 104 callsubr
          240 758 rmoveto
          -106 callgsubr
          -125 -760 -32 callgsubr
        </CharString>
        <CharString name="Rcaron">
          106 callsubr
          55 144 104 callsubr
          247 755 -105 callsubr
          -132 -757 -32 callgsubr
        </CharString>
        <CharString name="Rcommaaccent">
          3 -216 -21 256 141 callgsubr
          hstemhm
          67 118 21 101 31 117 hintmask 11111010
          115 -2 -87 callgsubr
          hintmask 11111110
          -45 -629 -79 callgsubr
          endchar
        </CharString>
        <CharString name="S">
          111 callgsubr
          hstem
          42 117 139 117 vstem
          203 -6 rmoveto
          133 79 84 119 112 -62 46 -82 45 hvcurveto
          -95 callgsubr
          -32 37 63 -17 62 hhcurveto
          endchar
        </CharString>
        <CharString name="Sacute">
          111 callgsubr
          48 152 hstem
          42 117 139 117 vstem
          218 758 rmoveto
          -106 callgsubr
          -15 -764 rmoveto
          133 79 84 119 112 -62 46 -82 45 hvcurveto
          -95 callgsubr
          -32 37 63 -17 62 hhcurveto
          endchar
        </CharString>
        <CharString name="Sacute.loclPLK">
          111 callgsubr
          48 152 hstem
          42 117 139 117 vstem
          218 758 -84 callgsubr
          -15 -764 rmoveto
          133 79 84 119 112 -62 46 -82 45 hvcurveto
          -95 callgsubr
          -32 37 63 -17 62 hhcurveto
          endchar
        </CharString>
        <CharString name="Scaron">
          111 callgsubr
          45 136 callsubr
          226 755 -105 callsubr
          -23 -761 rmoveto
          133 79 84 119 112 -62 46 -82 45 hvcurveto
          -95 callgsubr
          -32 37 63 -17 62 hhcurveto
          endchar
        </CharString>
        <CharString name="Scedilla">
          -73 -211 60 145 102 511 103 hstemhm
          42 117 65 78 -4 117 hintmask 11110100
          415 197 rmoveto
          112 -62 46 -82 45 vhcurveto
          -95 callgsubr
          hintmask 11111000
          36 -31 58 -17 59 -1 rrcurveto
          -18 20 callgsubr
          14 51 rlineto
          hintmask 11110100
          106 17 62 78 105 vvcurveto
          endchar
        </CharString>
        <CharString name="Scircumflex">
          111 callgsubr
          41 136 callsubr
          134 751 -107 callgsubr
          69 -757 rmoveto
          133 79 84 119 112 -62 46 -82 45 hvcurveto
          -95 callgsubr
          -32 37 63 -17 62 hhcurveto
          endchar
        </CharString>
        <CharString name="Scommaaccent">
          -73 -216 -21 231 102 511 103 hstemhm
          42 117 8 101 30 117 hintmask 11110100
          203 -6 rmoveto
          133 79 84 119 112 -62 46 -82 45 hvcurveto
          -95 callgsubr
          -32 37 63 -17 62 hhcurveto
          hintmask 11111100
          -21 -231 -79 callgsubr
          endchar
        </CharString>
        <CharString name="T">
          -56 19 -21 602 100 hstem
          168 119 vstem
          214 -2 -51 callsubr
          endchar
        </CharString>
        <CharString name="Tbar">
          -71 19 -21 313 81 208 100 hstem
          168 119 vstem
          416 700 rmoveto
          -378 hlineto
          85 callgsubr
          -22 vlineto
          -28 127 callgsubr
          130 -208 -89 hlineto
          -16 -8 0 callsubr
          -12 vlineto
          -24 8 -11 16 vhcurveto
          89 -287 hlineto
          -17 13 -9 33 vhcurveto
          26 50 callgsubr
          287 76 vlineto
          17 7 11 24 hvcurveto
          12 vlineto
          24 -7 10 -17 vhcurveto
          -76 208 129 hlineto
          17 7 11 28 hvcurveto
          22 111 callsubr
          endchar
        </CharString>
        <CharString name="Tcaron">
          -56 19 -21 602 100 55 144 hstem
          168 119 vstem
          222 755 -105 callsubr
          -8 -757 -51 callsubr
          endchar
        </CharString>
        <CharString name="Thorn">
          19 -21 168 100 218 100 118 -20 hstem
          65 119 154 118 vstem
          112 -2 -4 callgsubr
          142 91 vlineto
          44 137 25 187 180 -118 26 -72 hvcurveto
          -82 92 hlineto
          -46 callgsubr
          -33 vhcurveto
          -25 -54 callgsubr
          72 268 rmoveto
          218 76 vlineto
          35 43 -19 -87 -93 -44 -19 -29 hvcurveto
          endchar
        </CharString>
        <CharString name="U">
          58 callsubr
          105 callsubr
          292 -7 rmoveto
          146 85 76 130 hvcurveto
          477 -65 callgsubr
          -25 -66 callgsubr
          vhcurveto
          endchar
        </CharString>
        <CharString name="Uacute">
          28 callgsubr
          279 758 rmoveto
          -106 callgsubr
          13 -765 rmoveto
          146 85 76 130 hvcurveto
          477 -65 callgsubr
          -25 -66 callgsubr
          vhcurveto
          endchar
        </CharString>
        <CharString name="Ubreve">
          58 callsubr
          76 77 105 callsubr
          292 758 -102 callsubr
          -765 vmoveto
          146 85 76 130 hvcurveto
          477 -65 callgsubr
          -25 -66 callgsubr
          vhcurveto
          endchar
        </CharString>
        <CharString name="Ucircumflex">
          58 callsubr
          69 144 105 callsubr
          196 751 -107 callgsubr
          96 -758 rmoveto
          146 85 76 130 hvcurveto
          477 -65 callgsubr
          -25 -66 callgsubr
          vhcurveto
          endchar
        </CharString>
        <CharString name="Udieresis">
          58 callsubr
          89 108 hstemhm
          60 120 -5 94 48 94 -7 119 hintmask 00000000
          hintmask 11101100
          222 771 -101 callsubr
          hintmask 11110010
          -72 -778 rmoveto
          146 85 76 130 hvcurveto
          477 -65 callgsubr
          -25 -66 callgsubr
          vhcurveto
          endchar
        </CharString>
        <CharString name="Ugrave">
          28 callgsubr
          312 758 -101 callgsubr
          -20 -765 rmoveto
          146 85 76 130 hvcurveto
          477 -65 callgsubr
          -25 -66 callgsubr
          vhcurveto
          endchar
        </CharString>
        <CharString name="Uhorn">
          63 callgsubr
          hstemhm
          53 29 callgsubr
          9 69 hintmask 00000000
          hintmask 10111100
          594 756 -51 callgsubr
          hintmask 10111000
          -72 callgsubr
          hintmask 11011000
          469 vlineto
          hintmask 10111100
          78 callsubr
        </CharString>
        <CharString name="Uhungarumlaut">
          28 callgsubr
          195 758 -76 callsubr
          -48 -765 rmoveto
          146 85 76 130 hvcurveto
          477 -65 callgsubr
          -25 -66 callgsubr
          vhcurveto
          endchar
        </CharString>
        <CharString name="Umacron">
          58 callsubr
          100 81 105 callsubr
          196 782 -83 callgsubr
          96 -789 rmoveto
          146 85 76 130 hvcurveto
          477 -65 callgsubr
          -25 -66 callgsubr
          vhcurveto
          endchar
        </CharString>
        <CharString name="Uogonek">
          73 -163 66 90 144 callgsubr
          hstemhm
          60 120 161 64 -1 119 hintmask 11110100
          523 199 rmoveto
          477 -65 callgsubr
          -25 -66 callgsubr
          vhcurveto
          hintmask 11111000
          23 22 2 4 20 hvcurveto
          -12 -28 -4 -26 -17 -56 callgsubr
          -12 callgsubr
          21 6 28 15 27 hvcurveto
          hintmask 11110100
          62 34 35 61 82 vvcurveto
          endchar
        </CharString>
        <CharString name="Uring">
          58 callsubr
          53 47 87 48 hstemhm
          60 120 20 48 85 48 23 119 hintmask 00000000
          hintmask 11111111
          290 735 -49 callgsubr
          hintmask 11111001
          2 -789 rmoveto
          146 85 76 130 hvcurveto
          477 -65 callgsubr
          -25 -66 callgsubr
          vhcurveto
          endchar
        </CharString>
        <CharString name="Utilde">
          58 callsubr
          82 77 callsubr
          49 callsubr
          hintmask 00000000
          hintmask 11011100
          164 764 -75 callsubr
          138 -774 rmoveto
          146 85 76 130 hvcurveto
          477 -65 callgsubr
          -25 -66 callgsubr
          vhcurveto
          endchar
        </CharString>
        <CharString name="V">
          -2 -2 126 -105 65 callsubr
          hstemhm
          12 482 hintmask 01110000
          224 -2 rmoveto
          58 hlineto
          23 18 4 14 3 hvcurveto
          165 651 rlineto
          2 6 1 5 5 vvcurveto
          12 -15 7 -33 vhcurveto
          -23 hlineto
          -23 -18 -5 -17 -4 hvcurveto
          hintmask 10110000
          -115 -496 -9 -60 rlineto
          -3 hlineto
          -9 60 -112 496 rlineto
          17 -4 -18 5 -23 hhcurveto
          -25 hlineto
          -33 -15 -7 -12 -5 2 -5 2 -5 hvcurveto
          164 -652 rlineto
          hintmask 01110000
          -14 4 54 callgsubr
          endchar
        </CharString>
        <CharString name="W">
          242 75 callsubr
          13 727 vstem
          191 -2 -96 callsubr
        </CharString>
        <CharString name="Wacute">
          242 9 callgsubr
          13 727 vstem
          363 758 rmoveto
          -106 callgsubr
          -172 -760 -96 callsubr
        </CharString>
        <CharString name="Wcircumflex">
          242 -2 callgsubr
          69 144 hstem
          13 727 vstem
          280 751 -107 callgsubr
          -89 -753 -96 callsubr
        </CharString>
        <CharString name="Wdieresis">
          242 -2 callgsubr
          89 108 hstem
          259 94 48 94 vstem
          306 771 -101 callsubr
          -257 -773 -96 callsubr
        </CharString>
        <CharString name="Wgrave">
          242 9 callgsubr
          13 727 vstem
          396 758 -101 callgsubr
          -205 -760 -96 callsubr
        </CharString>
        <CharString name="X">
          -4 75 callsubr
          15 475 vstem
          65 -2 rmoveto
          28 hlineto
          23 17 1 16 6 hvcurveto
          116 272 110 -272 rlineto
          -14 5 18 -3 23 hhcurveto
          30 hlineto
          34 15 6 12 6 -3 6 -4 9 hvcurveto
          -154 330 145 296 rlineto
          4 9 3 7 5 vvcurveto
          12 -16 6 -33 vhcurveto
          -29 hlineto
          -23 -18 -2 -15 -6 hvcurveto
          -100 -244 -95 244 rlineto
          15 -6 -18 2 -21 hhcurveto
          -32 hlineto
          -35 -15 -7 -11 -6 3 -7 5 -8 hvcurveto
          139 -298 -158 -328 rlineto
          -5 -10 -3 -6 -5 vvcurveto
          -12 15 -6 35 vhcurveto
          endchar
        </CharString>
        <CharString name="Y">
          -26 75 callsubr
          152 callgsubr
          vstem
          230 -2 -90 callgsubr
        </CharString>
        <CharString name="Y.loclGUA">
          46 callsubr
          hstem
          54 112 165 112 vstem
          394 702 -99 callsubr
          endchar
        </CharString>
        <CharString name="Yacute">
          -26 9 callgsubr
          152 callgsubr
          vstem
          229 758 rmoveto
          -106 callgsubr
          1 -760 -90 callgsubr
        </CharString>
        <CharString name="Yacute.loclGUA">
          46 callsubr
          76 152 hstem
          54 112 165 112 vstem
          234 758 rmoveto
          -106 callgsubr
          160 -56 -99 callsubr
          endchar
        </CharString>
        <CharString name="Ycircumflex">
          132 callgsubr
          69 144 hstem
          152 callgsubr
          vstem
          146 751 -107 callgsubr
          84 -753 -90 callgsubr
        </CharString>
        <CharString name="Ycircumflex.loclGUA">
          46 callsubr
          69 144 hstem
          54 112 165 112 vstem
          150 751 -107 callgsubr
          244 -49 -99 callsubr
          endchar
        </CharString>
        <CharString name="Ydieresis">
          132 callgsubr
          89 108 hstemhm
          125 145 callsubr
          172 771 -101 callsubr
          hintmask 11101000
          -84 -773 -90 callgsubr
        </CharString>
        <CharString name="Ydieresis.loclGUA">
          46 callsubr
          89 108 hstemhm
          54 112 -37 94 48 94 -34 125 callsubr
          hintmask 11110110
          176 771 -101 callsubr
          hintmask 11111001
          76 -69 -99 callsubr
          endchar
        </CharString>
        <CharString name="Ygrave">
          -26 9 callgsubr
          152 callgsubr
          vstem
          262 758 -101 callgsubr
          -32 -760 -90 callgsubr
        </CharString>
        <CharString name="Ygrave.loclGUA">
          46 callsubr
          76 152 hstem
          54 112 165 112 vstem
          267 758 -101 callgsubr
          127 -56 -99 callsubr
          endchar
        </CharString>
        <CharString name="Z">
          -3 114 callgsubr
          hstem
          29 442 vstem
          60 -47 callgsubr
          endchar
        </CharString>
        <CharString name="Zacute">
          -3 114 callgsubr
          58 152 hstem
          29 442 vstem
          244 758 rmoveto
          -106 callgsubr
          -184 -758 rmoveto
          -91 callgsubr
          endchar
        </CharString>
        <CharString name="Zacute.loclPLK">
          -3 114 callgsubr
          58 152 hstem
          29 442 vstem
          244 758 -84 callgsubr
          -184 -758 rmoveto
          -91 callgsubr
          endchar
        </CharString>
        <CharString name="Zcaron">
          -3 114 callgsubr
          55 144 hstem
          29 442 vstem
          251 755 -105 callsubr
          -191 -755 rmoveto
          -91 callgsubr
          endchar
        </CharString>
        <CharString name="Zdotaccent">
          -3 114 callgsubr
          71 108 hstem
          201 111 vstem
          257 771 -104 callgsubr
          -17 17 -10 39 vhcurveto
          -197 -771 rmoveto
          -91 callgsubr
          endchar
        </CharString>
        <CharString name="a">
          -37 callgsubr
          -19 callsubr
          hintmask 00000000
          hintmask 10111100
          187 -7 -33 callgsubr
          hintmask 01111100
          -105 callgsubr
          hintmask 10111100
          -55 callsubr
        </CharString>
        <CharString name="aacute">
          -37 callgsubr
          51 152 96 callsubr
          227 -94 callgsubr
          hintmask 10111110
          -40 108 callgsubr
          hintmask 01111110
          -105 callgsubr
          hintmask 10111110
          -55 callsubr
        </CharString>
        <CharString name="abreve">
          -37 callgsubr
          51 77 96 callsubr
          240 581 -102 callsubr
          hintmask 10111110
          97 callsubr
          hintmask 01111110
          -105 callgsubr
          hintmask 10111110
          -55 callsubr
        </CharString>
        <CharString name="acircumflex">
          -29 73 callgsubr
          96 callsubr
          144 574 -107 callgsubr
          hintmask 10111110
          43 106 callgsubr
          hintmask 01111110
          -105 callgsubr
          hintmask 10111110
          -55 callsubr
        </CharString>
        <CharString name="acute">
          -254 581 152 hstem
          44 166 vstem
          69 -94 callgsubr
          endchar
        </CharString>
        <CharString name="acute.loclPLK">
          -254 581 152 hstem
          49 142 vstem
          77 581 -84 callgsubr
          endchar
        </CharString>
        <CharString name="acutecomb">
          -510 581 152 hstem
          -112 166 vstem
          -87 -94 callgsubr
          endchar
        </CharString>
        <CharString name="adieresis">
          -37 callgsubr
          64 108 66 callgsubr
          -30 94 48 94 -61 113 hintmask 0111101010000000
          170 594 rmoveto
          33 14 -82 callgsubr
          -14 9 -33 -33 -14 -50 callgsubr
          14 -10 33 vhcurveto
          hintmask 1011110100000000
          142 hmoveto
          32 15 -82 callgsubr
          -15 9 -32 -33 -14 -50 callgsubr
          14 -10 33 vhcurveto
          -125 -601 -33 callgsubr
          hintmask 0111110010000000
          -105 callgsubr
          hintmask 1011110100000000
          2 callgsubr
          hintmask 1011110010000000
          -9 callsubr
          vhcurveto
          -124 vlineto
          hintmask 1011110100000000
          5 callsubr
        </CharString>
        <CharString name="ae">
          130 callsubr
          130 callgsubr
          hintmask 10111110
          175 -7 -38 callgsubr
          hintmask 01111110
          36 callsubr
        </CharString>
        <CharString name="aeacute">
          130 callsubr
          51 152 130 callgsubr
          hintmask 10111111
          327 -94 callgsubr
          -152 -588 -38 callgsubr
          hintmask 01111111
          36 callsubr
        </CharString>
        <CharString name="agrave">
          -37 callgsubr
          51 152 96 callsubr
          260 581 -101 callgsubr
          hintmask 10111110
          -73 108 callgsubr
          hintmask 01111110
          -105 callgsubr
          hintmask 10111110
          -55 callsubr
        </CharString>
        <CharString name="amacron">
          -37 callgsubr
          75 81 96 callsubr
          144 605 -83 callgsubr
          hintmask 10111110
          43 -612 -33 callgsubr
          hintmask 01111110
          -105 callgsubr
          hintmask 10111110
          -55 callsubr
        </CharString>
        <CharString name="ampersand">
          10 -7 92 239 92 199 92 hstemhm
          20 116 -98 116 161 115 hintmask 11110100
          483 90 rmoveto
          -5 -6 -5 -13 hhcurveto
          -19 -10 14 46 hvcurveto
          179 42 vlineto
          16 7 100 callsubr
          27 -7 12 -16 vhcurveto
          -42 101 hlineto
          17 -11 9 -28 vhcurveto
          -23 hlineto
          -26 -14 -9 -17 -2 hvcurveto
          -11 -101 rlineto
          hintmask 11101100
          -76 hlineto
          -54 -31 54 50 42 15 53 52 hvcurveto
          20 15 -8 6 hhcurveto
          13 13 40 23 27 -50 10 -36 -99 -65 -61 -110 -72 30 -52 46 -23 hvcurveto
          -4 vlineto
          hintmask 11110100
          -63 -22 -31 -65 -95 vvcurveto
          -144 76 -66 105 63 37 18 24 43 vhcurveto
          -32 21 29 -10 37 hhcurveto
          25 51 3 36 8 -9 50 -15 hvcurveto
          -347 115 rmoveto
          86 28 33 68 vhcurveto
          83 -193 hlineto
          -6 0 -5 1 -6 vhcurveto
          -18 -37 -29 -11 -32 hhcurveto
          -48 -34 32 88 hvcurveto
          endchar
        </CharString>
        <CharString name="aogonek">
          -29 -162 66 89 -21 callsubr
          -19 callsubr
          -75 64 hintmask 00000000
          hintmask 10111101
          482 -91 148 callgsubr
          19 5 25 12 25 hvcurveto
          4 3 2 3 4 vvcurveto
          hintmask 11011110
          12 -12 31 91 vvcurveto
          209 vlineto
          98 -58 63 -125 -83 -80 -32 -30 -16 25 -47 18 vhcurveto
          12 38 33 65 hhcurveto
          55 20 -30 -41 hvcurveto
          -34 vlineto
          -159 -94 -60 -124 -98 53 -58 89 hvcurveto
          hintmask 11011101
          57 39 29 32 25 hvcurveto
          hintmask 10111101
          -27 6 6 -28 23 hhcurveto
          9 hlineto
          -12 -27 -4 -26 -17 -56 callgsubr
          hintmask 11011110
          -184 222 rmoveto
          -24 callgsubr
          -43 -21 26 43 -9 callsubr
          hvcurveto
          endchar
        </CharString>
        <CharString name="approxequal">
          -72 179 73 -37 74 hstemhm
          51 342 hintmask 10100000
          393 268 rmoveto
          8 -4 4 -13 5 vhcurveto
          -7 3 rlineto
          2 -4 -3 1 -3 hhcurveto
          -6 -7 53 callsubr
          -20 -12 -16 -3 -12 hhcurveto
          hintmask 01100000
          -36 -77 37 -38 hhcurveto
          -49 -34 -26 -46 -12 hvcurveto
          -1 -5 -1 -4 -4 vvcurveto
          0 0 0 -1 1 -1 -1 -1 0 -1 -1 flex1
          -7 6 -5 12 -5 vhcurveto
          8 -4 rlineto
          -1 3 3 -1 2 hhcurveto
          7 6 4 12 7 hvcurveto
          20 12 17 3 11 hhcurveto
          hintmask 10100000
          36 77 -36 38 hhcurveto
          50 33 25 46 12 hvcurveto
          1 5 1 4 4 1 0 1 1 vvcurveto
          endchar
        </CharString>
        <CharString name="aring">
          -37 callgsubr
          28 47 87 48 116 callsubr
          hintmask 0111110110000000
          238 558 -49 callgsubr
          hintmask 1011011001000000
          148 callsubr
          hintmask 0111011001000000
          -105 callgsubr
          hintmask 1011011001000000
          -55 callsubr
        </CharString>
        <CharString name="aringacute">
          -37 callgsubr
          28 47 87 48 26 152 116 callsubr
          hintmask 0111111011000000
          228 766 rmoveto
          -106 callgsubr
          10 -208 rmoveto
          56 35 37 53 hvcurveto
          hintmask 0111010011000000
          55 -35 37 -56 -55 -35 -37 -55 vhcurveto
          hintmask 0111111011000000
          -53 35 -37 55 vhcurveto
          47 vmoveto
          -27 -15 16 27 hvcurveto
          hintmask 0111010011000000
          27 15 17 27 27 16 -17 -27 vhcurveto
          hintmask 0111111011000000
          -27 -16 -16 -27 vhcurveto
          hintmask 1011010100100000
          148 callsubr
          hintmask 0111010100100000
          -105 callgsubr
          hintmask 1011010100100000
          -55 callsubr
        </CharString>
        <CharString name="arrowdown">
          -5 707 -20 hstem
          209 86 vstem
          252 5 rmoveto
          8 5 2 5 5 hvcurveto
          212 213 rlineto
          13 12 4 13 17 vvcurveto
          68 vlineto
          12 -2 7 -5 -3 -5 -4 -6 -6 vhcurveto
          -183 -186 rlineto
          522 vlineto
          17 -10 10 -26 vhcurveto
          -14 hlineto
          -25 -11 -10 -17 hvcurveto
          -522 vlineto
          -183 186 rlineto
          6 -6 -5 4 -3 hhcurveto
          -5 -2 -7 -12 hvcurveto
          -68 vlineto
          -17 5 -13 13 -12 vhcurveto
          211 -213 rlineto
          -5 5 6 -2 7 hhcurveto
          endchar
        </CharString>
        <CharString name="arrowleft">
          149 callgsubr
          0 594 vstem
          234 hmoveto
          53 hlineto
          14 8 2 6 4 -4 7 -8 9 hvcurveto
          -158 193 rlineto
          430 hlineto
          16 9 11 25 hvcurveto
          14 vlineto
          26 -9 11 -16 vhcurveto
          -430 hlineto
          157 192 rlineto
          8 10 4 6 4 vvcurveto
          6 -7 3 -15 vhcurveto
          -53 hlineto
          -18 -12 -5 -13 -10 hvcurveto
          -186 -228 rlineto
          -5 -6 -2 -4 0 -8 0 -8 2 -5 -5 flex1
          187 -229 rlineto
          -13 10 11 -5 19 hhcurveto
          endchar
        </CharString>
        <CharString name="arrowright">
          149 callgsubr
          6 594 vstem
          314 hmoveto
          53 hlineto
          18 12 5 13 10 hvcurveto
          186 229 rlineto
          5 5 2 5 0 6 0 10 -2 4 6 flex1
          -186 228 rlineto
          13 -10 -12 5 -18 hhcurveto
          -53 hlineto
          -15 -7 -3 -6 -4 4 -6 8 -10 hvcurveto
          157 -192 rlineto
          -429 hlineto
          -17 -9 -11 -26 hvcurveto
          -14 vlineto
          -25 9 -11 17 vhcurveto
          429 hlineto
          -158 -193 rlineto
          -7 -9 -4 -7 -4 vvcurveto
          -6 7 -2 15 vhcurveto
          endchar
        </CharString>
        <CharString name="arrowup">
          -5 18 65 callsubr
          hstem
          209 86 vstem
          245 -3 rmoveto
          14 hlineto
          26 10 9 17 hvcurveto
          532 vlineto
          183 -186 rlineto
          -6 6 5 -4 3 hhcurveto
          5 2 7 12 hvcurveto
          69 vlineto
          17 -5 12 -12 13 vhcurveto
          -212 212 rlineto
          -6 6 -4 1 -8 -9 -4 -2 -5 hflex1
          -212 -213 rlineto
          -12 -12 -5 -12 -17 vvcurveto
          -69 vlineto
          -12 2 -7 5 3 5 4 6 6 vhcurveto
          183 187 rlineto
          -533 vlineto
          -17 11 -9 25 vhcurveto
          endchar
        </CharString>
        <CharString name="asciicircum">
          -150 319 366 hstem
          29 302 vstem
          54 319 rmoveto
          17 hlineto
          20 12 8 18 6 hvcurveto
          71 237 71 -237 rlineto
          -18 5 15 -8 20 hhcurveto
          15 hlineto
          18 7 7 11 4 -1 5 -1 6 hvcurveto
          -104 308 rlineto
          19 -6 -10 6 -16 hhcurveto
          -25 hlineto
          -16 -11 -6 -19 -6 hvcurveto
          -104 -308 rlineto
          -1 -6 -1 -5 -4 vvcurveto
          -11 8 -7 17 vhcurveto
          endchar
        </CharString>
        <CharString name="asciitilde">
          -73 222 77 callsubr
          44 359 hintmask 00000000
          hintmask 01100000
          74 222 rmoveto
          -1 5 5 -1 5 hhcurveto
          10 7 5 10 9 hvcurveto
          18 13 11 4 12 hhcurveto
          hintmask 10100000
          38 62 -35 47 hhcurveto
          47 34 25 44 21 hvcurveto
          2 5 1 4 5 vvcurveto
          9 -5 5 -14 5 vhcurveto
          -10 3 rlineto
          1 -5 -5 1 -5 hhcurveto
          -11 -8 -5 -11 -8 hvcurveto
          -18 -14 -11 -3 -13 hhcurveto
          hintmask 01100000
          -37 -62 35 -46 hhcurveto
          -47 -34 -24 -45 -20 hvcurveto
          -3 -6 -1 -5 -4 vvcurveto
          -6 4 -8 14 -4 vhcurveto
          endchar
        </CharString>
        <CharString name="asterisk">
          -211 425 284 hstem
          123 49 vstem
          78 425 rmoveto
          6 1 7 3 5 9 52 80 rcurveline
          50 -80 5 -8 7 -4 7 -1 rlinecurve
          11 16 12 10 1 hvcurveto
          6 -2 5 -5 7 vhcurveto
          -54 86 74 28 rlineto
          12 5 6 5 9 vvcurveto
          16 -10 13 -13 -4 -4 0 -3 -6 vhcurveto
          -67 -25 rlineto
          85 vlineto
          17 -7 8 -17 -18 -7 -8 -17 vhcurveto
          -85 vlineto
          -68 25 rlineto
          3 -5 -5 0 -4 hhcurveto
          -14 -8 -15 -14 -9 6 -5 11 -5 hvcurveto
          73 -28 -52 -86 rlineto
          -5 -7 -2 -5 -6 vvcurveto
          -10 16 -12 12 vhcurveto
          endchar
        </CharString>
        <CharString name="at">
          282 -125 49 132 66 -66 78 294 78 152 48 hstemhm
          55 58 100 96 360 58 hintmask 11011111
          442 706 rmoveto
          -219 -168 -205 -263 -215 112 -148 164 44 99 11 39 19 -5 9 -9 hvcurveto
          -19 -32 -29 -73 hhcurveto
          -134 -89 127 185 238 144 184 182 137 93 -108 -171 -135 -54 -122 -58 -12 -19 6 30 hvcurveto
          28 26 284 10 vvcurveto
          13 -8 9 -25 vhcurveto
          -8 hlineto
          -27 -5 -8 -31 -9 hvcurveto
          18 -15 -31 25 -42 hhcurveto
          -101 -68 -110 -159 hvcurveto
          hintmask 10111111
          -134 61 -47 55 44 38 24 45 23 vhcurveto
          hintmask 11011111
          -43 9 32 -26 50 hhcurveto
          118 84 144 179 199 -114 128 -171 hvcurveto
          hintmask 10111111
          -7 -496 rmoveto
          -56 -20 -29 -20 -23 hhcurveto
          -31 -23 26 84 103 23 81 67 25 18 -13 -11 12 hvcurveto
          -9 -41 -7 -102 -3 -51 rrcurveto
          endchar
        </CharString>
        <CharString name="atilde">
          -37 callgsubr
          57 70 -35 70 -19 callsubr
          hintmask 00000000
          hintmask 01110111
          112 15 callsubr
          hintmask 01111011
          -102 callgsubr
          hintmask 10110111
          -89 callsubr
          85 -597 -33 callgsubr
          hintmask 01111011
          -105 callgsubr
          hintmask 10110111
          2 callgsubr
          hintmask 10111011
          -9 callsubr
          vhcurveto
          -124 vlineto
          hintmask 10110111
          5 callsubr
        </CharString>
        <CharString name="b">
          -7 94 -68 -21 439 93 223 -20 hstemhm
          66 113 145 116 hintmask 00000000
          hintmask 10111100
          286 -7 rmoveto
          92 62 103 167 172 -64 95 -101 -45 -29 -19 -23 -22 hvcurveto
          238 vlineto
          18 -14 9 -33 vhcurveto
          -19 145 callgsubr
          -18 hvcurveto
          hintmask 01111100
          -702 vlineto
          -17 13 -9 32 vhcurveto
          8 hlineto
          22 15 3 15 5 hvcurveto
          hintmask 10111100
          9 50 rlineto
          -46 27 43 -27 46 hhcurveto
          -34 94 rmoveto
          -28 -25 21 33 -20 hvcurveto
          264 vlineto
          20 17 23 12 26 hhcurveto
          53 26 -52 -121 -119 -24 -58 -48 hvcurveto
          endchar
        </CharString>
        <CharString name="backslash">
          -221 702 -20 hstem
          1 282 vstem
          230 -21 rmoveto
          24 hlineto
          19 10 8 12 4 -1 5 -2 14 hvcurveto
          -191 655 rlineto
          17 -5 -12 8 -20 hhcurveto
          -22 hlineto
          -20 -9 -8 -12 -4 0 -3 3 -14 hvcurveto
          190 -656 rlineto
          -18 4 13 -8 19 hhcurveto
          endchar
        </CharString>
        <CharString name="bar">
          -310 -139 908 hstem
          57 88 vstem
          95 -139 rmoveto
          11 hlineto
          28 11 8 17 hvcurveto
          858 vlineto
          17 -11 8 -28 vhcurveto
          -11 hlineto
          -27 -11 -8 -17 hvcurveto
          -858 vlineto
          -17 11 -8 27 vhcurveto
          endchar
        </CharString>
        <CharString name="braceleft">
          -261 -138 76 754 76 hstem
          83 91 vstem
          170 -138 rmoveto
          42 hlineto
          17 8 10 24 hvcurveto
          8 vlineto
          24 -8 10 -16 vhcurveto
          -10 hlineto
          -23 -6 18 33 hvcurveto
          186 vlineto
          82 -42 44 -24 13 vhcurveto
          26 16 40 45 80 vvcurveto
          187 vlineto
          33 6 17 25 vhcurveto
          9 hlineto
          16 7 11 23 hvcurveto
          8 vlineto
          24 -8 10 -17 vhcurveto
          -42 hlineto
          -40 -47 -33 -83 hvcurveto
          -181 vlineto
          -59 -8 -34 -33 -15 vhcurveto
          -18 -9 -9 -11 -21 vvcurveto
          -14 vlineto
          -21 9 -11 18 -9 vhcurveto
          33 -15 8 -35 -58 vvcurveto
          -181 vlineto
          -84 47 -32 40 vhcurveto
          endchar
        </CharString>
        <CharString name="braceright">
          -261 -138 76 754 76 hstem
          80 91 vstem
          42 -138 rmoveto
          42 hlineto
          40 47 32 84 hvcurveto
          181 vlineto
          58 8 35 34 15 vhcurveto
          17 9 9 11 21 vvcurveto
          14 vlineto
          21 -9 11 -17 9 vhcurveto
          -34 15 -8 34 59 vvcurveto
          181 vlineto
          83 -47 33 -40 vhcurveto
          -42 hlineto
          -17 -8 0 callsubr
          -8 vlineto
          -23 127 callgsubr
          9 hlineto
          25 6 -17 -33 hvcurveto
          -187 vlineto
          -80 41 -45 25 -16 vhcurveto
          -24 -13 -42 -44 -82 vvcurveto
          -186 vlineto
          -33 -6 -18 -24 vhcurveto
          -9 hlineto
          -16 -8 0 callsubr
          -8 vlineto
          -24 8 -10 17 vhcurveto
          endchar
        </CharString>
        <CharString name="bracketleft">
          -271 -138 77 752 77 hstem
          59 90 vstem
          90 -138 rmoveto
          104 122 callgsubr
          -45 752 45 122 callgsubr
          -104 hlineto
          -22 35 callgsubr
          -838 50 callsubr
          endchar
        </CharString>
        <CharString name="bracketright">
          -271 -138 77 752 77 hstem
          92 89 vstem
          46 -138 rmoveto
          104 hlineto
          22 9 10 24 hvcurveto
          838 vlineto
          24 -9 10 -22 vhcurveto
          -104 123 callgsubr
          46 -752 -46 123 callgsubr
          endchar
        </CharString>
        <CharString name="breve">
          -254 581 77 hstem
          4 245 vstem
          127 581 -102 callsubr
          endchar
        </CharString>
        <CharString name="brokenbar">
          -310 -140 910 hstem
          57 88 vstem
          95 393 rmoveto
          11 hlineto
          28 11 9 17 hvcurveto
          325 vlineto
          17 -11 9 -28 vhcurveto
          -11 hlineto
          -27 -11 -58 callgsubr
          -325 vlineto
          -17 11 -9 27 vhcurveto
          -533 vmoveto
          11 hlineto
          28 11 9 17 hvcurveto
          324 vlineto
          17 -11 10 -28 vhcurveto
          -11 hlineto
          -27 -11 -10 -17 hvcurveto
          -324 vlineto
          -17 11 -9 27 vhcurveto
          endchar
        </CharString>
        <CharString name="bullet">
          -212 199 255 hstem
          31 235 vstem
          148 199 rmoveto
          65 53 40 87 87 -53 41 -65 -64 -53 -41 -87 -87 53 -40 64 hvcurveto
          endchar
        </CharString>
        <CharString name="c">
          133 callgsubr
          hstem
          41 117 vstem
          252 -7 -83 callsubr
        </CharString>
        <CharString name="cacute">
          -102 149 callsubr
          117 vstem
          221 -94 callgsubr
          31 -588 -83 callsubr
        </CharString>
        <CharString name="cacute.loclPLK">
          -102 149 callsubr
          117 vstem
          221 581 -84 callgsubr
          31 -588 -83 callsubr
        </CharString>
        <CharString name="caron">
          -254 578 144 hstem
          10 231 vstem
          120 578 -105 callsubr
          endchar
        </CharString>
        <CharString name="caron.alt">
          -254 700 -20 hstem
          50 102 vstem
          77 519 rmoveto
          -21 callgsubr
          -13 22 -5 14 vhcurveto
          endchar
        </CharString>
        <CharString name="ccaron">
          133 callgsubr
          48 144 hstem
          41 117 vstem
          228 578 -105 callsubr
          24 -585 -83 callsubr
        </CharString>
        <CharString name="ccedilla">
          -102 -211 60 145 91 -70 -21 444 92 hstemhm
          41 117 93 78 hintmask 00000000
          hintmask 11011100
          391 52 rmoveto
          18 -20 44 -18 -3 -5 -4 -3 -7 vhcurveto
          -9 -16 -24 -13 -38 hhcurveto
          -71 -31 51 128 127 35 47 67 34 25 -14 -8 15 hvcurveto
          -4 6 4 -2 4 hhcurveto
          15 23 46 18 29 -69 27 -65 -132 -79 -73 -195 -174 61 -82 120 -12 hvcurveto
          -19 14 callsubr
          rlineto
          hintmask 10111100
          53 6 65 25 27 vvcurveto
          endchar
        </CharString>
        <CharString name="ccircumflex">
          -102 123 callsubr
          hstem
          41 117 vstem
          137 574 -107 callgsubr
          115 -581 -83 callsubr
        </CharString>
        <CharString name="cdotaccent">
          133 callgsubr
          64 108 hstemhm
          41 117 20 111 hintmask 00000000
          hintmask 11111000
          234 594 -104 callgsubr
          -17 17 -10 39 vhcurveto
          hintmask 11110000
          18 -601 -83 callsubr
        </CharString>
        <CharString name="cedilla">
          -254 -211 60 hstem
          145 78 vstem
          153 -54 rmoveto
          17 58 rlineto
          -51 hlineto
          -22 -61 -4 -14 -8 -38 callsubr
          -33 3 hvcurveto
          endchar
        </CharString>
        <CharString name="cent">
          -70 -7 92 -68 -21 442 92 -3 -20 hstemhm
          41 117 52 46 hintmask 00000000
          hintmask 10101100
          391 52 rmoveto
          18 -20 44 -18 -3 -5 -4 -3 -7 vhcurveto
          -9 -16 -24 -13 -38 hhcurveto
          -4 353 4 hlineto
          34 25 -14 -8 15 hvcurveto
          -4 6 4 -2 4 hhcurveto
          15 23 46 18 29 -66 26 -64 1 hvcurveto
          hintmask 01011100
          33 vlineto
          15 -7 7 -17 -14 -8 -7 -15 vhcurveto
          -36 vlineto
          -106 -15 -63 -76 -174 vvcurveto
          -168 57 -83 112 -15 vhcurveto
          hintmask 10011100
          -50 vlineto
          -16 8 -6 16 15 7 6 16 vhcurveto
          47 vlineto
          hintmask 10101100
          54 2 81 27 30 vvcurveto
          hintmask 01011100
          -233 212 rmoveto
          91 18 49 34 22 vhcurveto
          -329 vlineto
          -36 22 -16 52 93 vvcurveto
          endchar
        </CharString>
        <CharString name="circumflex">
          -254 574 144 hstem
          10 231 vstem
          30 574 -107 callgsubr
          endchar
        </CharString>
        <CharString name="colon">
          -322 -2 130 267 130 hstem
          35 118 vstem
          81 395 rmoveto
          -34 callgsubr
          -397 vmoveto
          -34 callgsubr
          endchar
        </CharString>
        <CharString name="comma">
          -322 -120 248 hstem
          44 108 vstem
          44 -120 rmoveto
          41 callsubr
          150 callsubr
        </CharString>
        <CharString name="copyright">
          82 -6 55 95 57 299 58 96 55 hstem
          9 58 92 68 298 -8 callgsubr
          10 95 rmoveto
          38 62 20 24 8 -12 32 -14 hvcurveto
          -6 -24 -27 -44 hhcurveto
          -53 -26 48 102 102 26 47 54 hvcurveto
          44 17 -23 6 hhcurveto
          11 17 30 13 19 -53 19 -41 -99 -50 -69 -138 -142 47 -65 100 hvcurveto
          endchar
        </CharString>
        <CharString name="currency">
          -48 115 85 216 84 hstem
          64 84 160 85 vstem
          93 112 rmoveto
          8 7 3 7 8 hvcurveto
          23 23 rlineto
          -18 25 31 -12 33 hhcurveto
          34 31 12 19 26 hvcurveto
          23 -23 rlineto
          -8 7 8 -3 8 hhcurveto
          8 6 4 6 7 hvcurveto
          14 14 rlineto
          6 6 5 9 6 vvcurveto
          8 -4 8 -8 7 vhcurveto
          -29 30 rlineto
          14 29 9 33 35 vvcurveto
          36 -9 34 -15 29 vhcurveto
          31 32 rlineto
          8 8 4 8 7 vvcurveto
          7 -4 7 -6 6 vhcurveto
          -15 15 rlineto
          7 -7 -8 3 -7 hhcurveto
          -7 -8 -4 -7 -7 hvcurveto
          -25 -26 rlineto
          19 -26 -30 12 -34 hhcurveto
          -33 -30 -12 -19 -25 hvcurveto
          -26 26 rlineto
          8 -7 -8 4 -8 hhcurveto
          -7 -7 -4 -6 -6 hvcurveto
          -15 -16 rlineto
          -6 -6 -3 -8 -6 vvcurveto
          -8 3 -8 8 -7 vhcurveto
          31 -30 rlineto
          -16 -29 -9 -35 -37 vvcurveto
          -36 9 -33 15 -29 vhcurveto
          -29 -29 rlineto
          -7 -7 -4 -8 -8 vvcurveto
          -8 3 -6 6 -7 vhcurveto
          15 -14 rlineto
          -7 7 8 -3 6 hhcurveto
          135 88 rmoveto
          -44 -36 37 70 71 36 38 44 45 35 -38 -71 -70 -35 -37 -45 hvcurveto
          endchar
        </CharString>
        <CharString name="d">
          -29 -7 94 -67 -21 438 93 223 46 callgsubr
          hintmask 00000000
          hintmask 10111100
          33 callgsubr
          hintmask 01111100
          -60 callsubr
          hintmask 10111100
          112 callsubr
          33 94 -30 callgsubr
          endchar
        </CharString>
        <CharString name="dagger">
          -82 417 70 callgsubr
          531 108 vlineto
          4 callsubr
          -531 hlineto
          -17 12 -9 27 vhcurveto
          endchar
        </CharString>
        <CharString name="daggerdbl">
          -82 52 92 273 70 callgsubr
          166 108 vlineto
          17 6 100 callsubr
          27 -6 12 -17 vhcurveto
          -108 273 108 hlineto
          4 callsubr
          -273 -109 hlineto
          -16 -11 callgsubr
          -27 151 callsubr
          109 -166 hlineto
          -17 12 -9 27 vhcurveto
          endchar
        </CharString>
        <CharString name="dcaron">
          -29 -7 94 -67 -21 438 93 170 -20 73 46 callgsubr
          37 102 hintmask 00000000
          hintmask 10111111
          33 callgsubr
          hintmask 01111111
          -60 callsubr
          hintmask 10111111
          112 callsubr
          284 526 rmoveto
          -21 callgsubr
          -13 22 -5 14 vhcurveto
          -251 -432 -30 callgsubr
          endchar
        </CharString>
        <CharString name="dcroat">
          -43 -7 94 -67 -21 438 93 61 81 81 46 callgsubr
          hintmask 01111110
          455 672 rmoveto
          -39 54 hlineto
          18 -14 9 -33 vhcurveto
          -19 145 callgsubr
          -18 hvcurveto
          -54 -76 vlineto
          -19 -8 0 callsubr
          -12 vlineto
          -24 8 -11 19 vhcurveto
          76 -102 hlineto
          23 -22 -29 18 -44 hhcurveto
          -102 -64 -96 -170 hvcurveto
          hintmask 10111110
          -168 62 -103 92 46 41 27 46 26 vhcurveto
          hintmask 01111110
          -31 5 4 -36 27 hhcurveto
          18 64 6 20 hvcurveto
          14 -11 30 91 vvcurveto
          431 39 vlineto
          20 7 11 24 hvcurveto
          12 vlineto
          24 -7 10 -20 vhcurveto
          hintmask 10111110
          -152 -528 rmoveto
          -35 -19 -26 -22 -29 hhcurveto
          -48 -23 60 116 119 26 55 54 26 22 -12 -19 17 hvcurveto
          endchar
        </CharString>
        <CharString name="degree">
          -234 442 52 160 53 hstem
          31 55 100 57 vstem
          137 442 rmoveto
          60 46 46 86 87 -46 46 -60 -60 -46 -46 -87 -86 46 -46 60 hvcurveto
          -1 52 rmoveto
          -30 -20 28 52 52 20 28 30 30 20 -28 -52 -52 -20 -28 -30 hvcurveto
          endchar
        </CharString>
        <CharString name="dieresis">
          -254 594 108 hstem
          11 94 48 94 vstem
          58 594 -101 callsubr
          endchar
        </CharString>
        <CharString name="divide">
          -62 -2 113 75 85 75 113 hstem
          172 102 vstem
          219 346 39 callgsubr
          -171 -160 rmoveto
          353 hlineto
          17 7 13 26 hvcurveto
          7 vlineto
          26 -7 13 -17 vhcurveto
          -353 hlineto
          -17 -7 -13 -26 hvcurveto
          -7 vlineto
          -26 7 -13 17 vhcurveto
          171 -188 39 callgsubr
          endchar
        </CharString>
        <CharString name="dollar">
          -70 -6 102 -78 -21 610 102 -2 -20 hstemhm
          35 108 59 45 58 108 hintmask 01011110
          220 -73 rmoveto
          9 hlineto
          13 5 6 12 hvcurveto
          52 vlineto
          102 20 64 72 109 vvcurveto
          125 -83 41 -75 37 vhcurveto
          -8 4 rlineto
          hintmask 01101110
          1 202 rlineto
          28 26 -6 -11 25 hvcurveto
          -2 7 8 -3 6 hhcurveto
          20 13 52 21 -2 hvcurveto
          8 -4 8 -11 7 vhcurveto
          -31 18 -41 9 -45 1 rrcurveto
          hintmask 10011110
          34 vlineto
          13 -5 5 -13 vhcurveto
          -9 hlineto
          -12 -7 -5 -13 1 hvcurveto
          -36 vlineto
          -101 -14 -66 -72 -107 vvcurveto
          -125 80 -44 87 -40 vhcurveto
          -209 vlineto
          -50 -38 12 26 -39 hvcurveto
          3 -5 -4 3 -5 hhcurveto
          -21 -12 -48 -27 2 hvcurveto
          1 -20 19 -11 18 -8 rrcurveto
          -21 36 44 -11 54 hhcurveto
          hintmask 01011110
          -49 vlineto
          -12 5 -6 13 vhcurveto
          -18 502 rmoveto
          -35 21 -23 27 -1 40 rrcurveto
          39 19 31 40 14 vhcurveto
          45 -497 rmoveto
          177 vlineto
          32 -19 26 -22 -48 vvcurveto
          -44 -23 -31 -35 -13 vhcurveto
          endchar
        </CharString>
        <CharString name="dotaccent">
          -254 594 108 hstem
          74 111 vstem
          130 594 -104 callgsubr
          -17 17 -10 39 vhcurveto
          endchar
        </CharString>
        <CharString name="dotbelowcomb">
          -510 -12 callsubr
          hstem
          -51 111 vstem
          4 -188 rmoveto
          39 17 -82 callgsubr
          -18 9 -38 -39 -16 -10 -16 vhcurveto
          -55 vlineto
          -18 16 -9 39 vhcurveto
          endchar
        </CharString>
        <CharString name="dotlessi">
          108 callsubr
          114 callsubr
          120 -2 -73 callsubr
        </CharString>
        <CharString name="e">
          -13 callsubr
          hstem
          7 callsubr
          vstem
          258 -7 -95 callsubr
        </CharString>
        <CharString name="eacute">
          70 callsubr
          218 -94 callgsubr
          40 -588 -95 callsubr
        </CharString>
        <CharString name="ebreve">
          -13 callsubr
          51 77 hstem
          7 callsubr
          vstem
          231 581 -102 callsubr
          27 -588 -95 callsubr
        </CharString>
        <CharString name="ecaron">
          -13 callsubr
          48 144 hstem
          7 callsubr
          vstem
          226 578 -105 callsubr
          32 -585 -95 callsubr
        </CharString>
        <CharString name="ecircumflex">
          -56 81 callsubr
          hstem
          7 callsubr
          vstem
          -47 callsubr
          endchar
        </CharString>
        <CharString name="edieresis">
          -13 callsubr
          64 108 hstemhm
          41 115 -42 94 48 94 -36 109 hintmask 11110110
          161 594 -101 callsubr
          hintmask 11111001
          -45 -601 -95 callsubr
        </CharString>
        <CharString name="edotaccent">
          -13 callsubr
          64 108 hstemhm
          41 115 20 111 27 109 hintmask 00000000
          hintmask 11111110
          232 594 -104 callgsubr
          -17 17 -10 39 vhcurveto
          hintmask 11111010
          26 -601 -95 callsubr
        </CharString>
        <CharString name="egrave">
          70 callsubr
          251 581 -101 callgsubr
          7 -588 -95 callsubr
        </CharString>
        <CharString name="eight">
          -51 -7 92 530 92 hstemhm
          34 110 -92 108 147 106 -95 110 hintmask 11100100
          231 -7 rmoveto
          127 70 86 117 102 -48 47 -55 32 hvcurveto
          hintmask 11011000
          46 26 42 46 86 vvcurveto
          111 -78 61 -101 -108 -74 -67 -112 -80 35 -44 43 -31 vhcurveto
          hintmask 11100100
          -51 -27 -45 -52 -99 vvcurveto
          -124 74 -78 123 vhcurveto
          hintmask 11011000
          14 430 rmoveto
          -47 24 -38 27 59 vvcurveto
          56 34 26 39 40 34 -26 -58 -49 -24 -34 -38 -25 vhcurveto
          hintmask 11100100
          -14 -338 rmoveto
          -49 -38 35 80 63 25 36 39 27 hvcurveto
          56 -29 54 -27 -77 vvcurveto
          -62 -35 -46 -52 vhcurveto
          endchar
        </CharString>
        <CharString name="ellipsis">
          42 -2 130 hstem
          35 115 68 116 67 116 vstem
          81 -2 rmoveto
          22 50 callgsubr
          78 vlineto
          17 -13 9 -34 vhcurveto
          -22 91 callsubr
          -78 59 callgsubr
          184 hmoveto
          22 -59 callgsubr
          78 -65 callgsubr
          -22 -86 callgsubr
          -78 -54 callsubr
          183 hmoveto
          23 hlineto
          32 -72 callsubr
          78 -70 callgsubr
          -32 vhcurveto
          -23 -86 callgsubr
          -78 -54 callsubr
          endchar
        </CharString>
        <CharString name="emacron">
          -13 callsubr
          75 81 hstem
          7 callsubr
          vstem
          135 605 -83 callgsubr
          123 -612 -95 callsubr
        </CharString>
        <CharString name="emdash">
          376 222 86 hstem
          0 886 vstem
          23 222 rmoveto
          840 28 callsubr
          -840 53 callgsubr
        </CharString>
        <CharString name="endash">
          -67 222 86 hstem
          0 443 vstem
          23 222 rmoveto
          397 28 callsubr
          -397 53 callgsubr
        </CharString>
        <CharString name="eng">
          -212 92 139 103 callgsubr
          hstem
          49 callgsubr
          vstem
          301 -212 rmoveto
          59 64 35 110 hvcurveto
          448 vlineto
          95 -43 54 -79 -55 -45 -33 -43 -29 vhcurveto
          27 callgsubr
          30 17 26 23 31 hhcurveto
          40 16 -26 -47 hvcurveto
          -425 vlineto
          -44 -13 -13 -19 vhcurveto
          -18 -9 4 -6 hhcurveto
          -17 -8 -42 -15 -32 40 -7 42 hvcurveto
          endchar
        </CharString>
        <CharString name="eogonek">
          -56 -171 66 98 -23 callsubr
          hstemhm
          41 115 123 64 -29 109 hintmask 00000000
          hintmask 11111100
          425 -100 rmoveto
          62 callgsubr
          27 hvcurveto
          27 12 19 16 17 vvcurveto
          15 -25 46 -18 vhcurveto
          -57 callsubr
          hintmask 01111010
          223 hlineto
          12 29 35 14 169 -55 96 -125 -126 -76 -81 -191 -176 69 -89 148 hvcurveto
          hintmask 11111100
          13 13 1 2 13 hvcurveto
          -13 -29 -5 -29 -18 -56 callgsubr
          hintmask 01111010
          -184 542 rmoveto
          50 23 -46 -100 hvcurveto
          -158 hlineto
          104 5 29 42 51 hhcurveto
          endchar
        </CharString>
        <CharString name="equal">
          80 callsubr
          -334 67 callgsubr
          334 96 callgsubr
        </CharString>
        <CharString name="estimated">
          105 -7 55 307 50 252 50 hstem
          22 141 293 137 vstem
          163 355 rmoveto
          430 hlineto
          227 -127 125 -154 -159 -131 -125 -227 -232 135 -130 163 81 77 39 65 55 vhcurveto
          6 8 4 7 6 vvcurveto
          12 -14 16 -16 -8 -6 -6 -9 -7 vhcurveto
          -52 -38 -74 -31 -60 hhcurveto
          -60 -55 20 40 -42 hvcurveto
          293 490 rmoveto
          -193 -293 194 vlineto
          38 40 52 20 57 hhcurveto
          53 51 -20 -39 40 hvcurveto
          endchar
        </CharString>
        <CharString name="eth">
          -33 -7 92 349 92 -3 -20 86 55 -27.5 54.5 hstemhm
          -29 callsubr
          hintmask 11001110
          335 613 rmoveto
          54 7 rlineto
          12 1 6 5 8 vvcurveto
          12 -12 25 -18 -4 -39 -6 -5 -31 vhcurveto
          hintmask 10110110
          -13 18 -11 14 -12 11 rrcurveto
          7 -8 -10 4 -13 hhcurveto
          -16 -14 -2 -2 -13 hvcurveto
          -12 -2 -5 -4 -7 vvcurveto
          -9 17 -20 14 -20 vhcurveto
          -59 -8 rlineto
          -12 -2 -6 -5 -8 vvcurveto
          -17 15 -19 17 2 3 0 10 70 vhcurveto
          15 -25 13 -25 11 -26 rrcurveto
          hintmask 11001110
          2 -13 -12 1 -12 hhcurveto
          -129 -69 -95 -171 -173 69 -94 129 130 67 94 174 131 -42 121 -59 100 hvcurveto
          -97 -528 rmoveto
          -57 -24 52 124 122 24 51 57 57 25 -51 -122 -124 -25 -52 -57 hvcurveto
          endchar
        </CharString>
        <CharString name="exclam">
          -264 -2 130 574 -20 hstemhm
          62 118 -103 88 hintmask 11010000
          117 211 rmoveto
          8 hlineto
          32 6 9 17 2 hvcurveto
          13 147 13 147 12 146 rrcurveto
          16 -16 9 -30 vhcurveto
          -33 -86 callgsubr
          -439 vlineto
          -17 8 -9 32 vhcurveto
          hintmask 11100000
          -9 -213 rmoveto
          -34 callgsubr
          endchar
        </CharString>
        <CharString name="exclamdown">
          -264 395 130 hstemhm
          44 127 -103 119 hintmask 10100000
          115 395 -4 callgsubr
          78 -65 callgsubr
          -25 -86 callgsubr
          -78 -54 callsubr
          hintmask 11000000
          -24 -574 rmoveto
          33 -59 callgsubr
          438 vlineto
          17 -8 10 -32 vhcurveto
          -9 hlineto
          -31 -6 -10 -17 -1 hvcurveto
          -14 -146 -26 -271 -23 vvcurveto
          -16 17 -8 30 vhcurveto
          endchar
        </CharString>
        <CharString name="f">
          -224 19 83 callgsubr
          0 -20 hstemhm
          83 112 hintmask 11011000
          132 -2 rmoveto
          10 callgsubr
          -52 hlineto
          hintmask 11101000
          89 vlineto
          116 callgsubr
          16 9 -53 callgsubr
          -407 hlineto
          hintmask 11011000
          -2 callsubr
          endchar
        </CharString>
        <CharString name="f_f">
          62 19 83 callgsubr
          hstem
          83 112 174 112 vstem
          533 523 rmoveto
          -52 89 hlineto
          116 callgsubr
          16 9 -6 7 hhcurveto
          17 9 50 8 30 -51 10 -30 -64 -62 -32 -111 hvcurveto
          -92 -174 89 vlineto
          116 callgsubr
          16 9 -53 callgsubr
          -407 hlineto
          56 callsubr
          149 vlineto
          3 hlineto
          22 -407 hlineto
          -17 15 -9 34 vhcurveto
          10 callgsubr
          endchar
        </CharString>
        <CharString name="f_t">
          74 -7 92 -71 -21 26 83 callgsubr
          0 -20 hstemhm
          83 112 167 113 hintmask 00000000
          hintmask 10011011
          538 90 rmoveto
          8 callsubr
          295 53 vlineto
          -62 callsubr
          -53 101 hlineto
          17 -12 9 -27 vhcurveto
          -19 hlineto
          -27 -13 -9 -17 -2 hvcurveto
          -13 -101 rlineto
          -167 89 hlineto
          116 callgsubr
          16 9 -53 callgsubr
          hlineto
          hintmask 00110111
          -407 vlineto
          56 callsubr
          141 vlineto
          3 hlineto
          23 -301 hlineto
          hintmask 01010111
          -105 59 -32 59 29 54 8 30 vhcurveto
          hintmask 10011011
          10 -9 49 -16 vhcurveto
          endchar
        </CharString>
        <CharString name="fi">
          30 19 -21 433 92 71 108 -36 92 0 -20 hstemhm
          83 112 162 112 hintmask 11101110
          420 523 rmoveto
          -225 hlineto
          hintmask 11010110
          89 vlineto
          116 callgsubr
          16 9 -53 callgsubr
          -407 hlineto
          56 callsubr
          162 -407 vlineto
          38 callgsubr
          475 vlineto
          hintmask 11101110
          16 -14 8 -35 vhcurveto
          -6 71 -104 callgsubr
          -17 17 -10 39 vhcurveto
          endchar
        </CharString>
        <CharString name="five">
          -51 -7 92 253 92 178 92 hstem
          58 116.5 132.5 114 vstem
          200 -7 rmoveto
          104 117 51 169 169 -107 48 -114 hvcurveto
          -31 hlineto
          11 178 rlineto
          188 hlineto
          18 7 10 25 hvcurveto
          18 vlineto
          27 -7 12 -18 vhcurveto
          -256 hlineto
          -25 -10 -10 -24 -1 hvcurveto
          -18 -294 rlineto
          -24 7 -10 25 vhcurveto
          83 hlineto
          91 43 -44 -82 -83 -50 -44 -61 hvcurveto
          -71 -39 36 -13 hhcurveto
          -17 -27 -44 -19 -31 71 -34 100 hvcurveto
          endchar
        </CharString>
        <CharString name="fl">
          46 -7 92 -71 -21 26 83 callgsubr
          -5 -20 25 -20 hstemhm
          83 112 156 112 hintmask 0011001110000000
          132 -2 rmoveto
          10 callgsubr
          -52 hlineto
          hintmask 0011100110000000
          89 vlineto
          116 callgsubr
          16 9 -53 callgsubr
          -407 hlineto
          hintmask 0011001110000000
          -2 callsubr
          hintmask 0101001110000000
          335 -5 rmoveto
          30 49 9 29 hvcurveto
          hintmask 1001010110000000
          -63 callgsubr
          hintmask 0101001110000000
          115 callsubr
          endchar
        </CharString>
        <CharString name="florin">
          -181 -186 -21 633 91 149 92 hstem
          87.5 112.5 vstem
          51 -207 rmoveto
          19 hlineto
          35 13 9 17 2 hvcurveto
          65 607 rlineto
          65 hlineto
          31 2 57 10 17 -6 7 -14 hvcurveto
          -68 hlineto
          10 89 rlineto
          50 5 22 10 28 20 8 -5 8 hhcurveto
          17 16 47 11 1 hvcurveto
          36 -48 3 -32 -69 -75 -33 -116 -13 vhcurveto
          -11 -92 rlineto
          -32 hlineto
          -32 -2 -52 -15 -17 7 -7 14 hvcurveto
          36 hlineto
          -33 -331 -33 -269 -7 vvcurveto
          -17 10 -9 34 vhcurveto
          endchar
        </CharString>
        <CharString name="four">
          -51 19 -21 158 92 454 -20 hstem
          267 112 vstem
          310 -2 rmoveto
          26 hlineto
          30 76 callsubr
          132 43 vlineto
          -62 callsubr
          -43 428 hlineto
          17 -13 9 -30 vhcurveto
          -34 hlineto
          -21 -18 -3 -15 -8 hvcurveto
          -245 -447 rlineto
          -1 -3 -1 -3 -5 vvcurveto
          -23 17 -47 13 vhcurveto
          229 -132 hlineto
          -17 13 -9 30 vhcurveto
          -190 250 rmoveto
          152 284 4 -1 rlineto
          -6 -41 -3 -36 -52 vvcurveto
          -154 vlineto
          endchar
        </CharString>
        <CharString name="fraction">
          -299 75 callsubr
          -70 358 vstem
          -53 -2 rmoveto
          13 hlineto
          16 11 8 17 8 hvcurveto
          288 648 rlineto
          3 6 2 4 5 vvcurveto
          9 -6 7 -11 vhcurveto
          -14 hlineto
          -15 -12 -8 -17 -8 hvcurveto
          -288 -648 rlineto
          -2 -5 -2 -5 -5 vvcurveto
          -10 6 -6 11 vhcurveto
          endchar
        </CharString>
        <CharString name="g">
          -39 32 callsubr
          84 callsubr
          128 96 -73 97 hintmask 0000000000000000
          hintmask 1100100010000000
          223 -212 16 callsubr
          hintmask 1100001100000000
          -62 callgsubr
          hintmask 1001010010000000
          -5 callsubr
          hintmask 1100001010000000
          6 callsubr
          hintmask 1100100010000000
          -48 -24 -29 -41 -57 vvcurveto
          -91 72 -37 111 vhcurveto
          hintmask 1010010100000000
          -17 callgsubr
          hintmask 1100100010000000
          -31 callgsubr
        </CharString>
        <CharString name="g.ss01">
          -39 25 callsubr
          hstemhm
          34 114 147 125 callsubr
          hintmask 11011100
          365 525 47 callsubr
          hintmask 11101100
          -71 callsubr
          hintmask 11011100
          47 callgsubr
          hintmask 11101100
          -42 callgsubr
        </CharString>
        <CharString name="gbreve">
          -39 32 callsubr
          51 77 84 callsubr
          128 96 -73 97 hintmask 1100101001000000
          231 581 -102 callsubr
          hintmask 1100110001000000
          -8 -793 -57 callgsubr
        </CharString>
        <CharString name="gbreve.ss01">
          -39 25 callsubr
          76 77 146 callgsubr
          234 581 -102 callsubr
          hintmask 11011110
          131 -56 47 callsubr
          hintmask 11101110
          -71 callsubr
          hintmask 11011110
          47 callgsubr
          hintmask 11101110
          -42 callgsubr
        </CharString>
        <CharString name="gcircumflex">
          -39 32 callsubr
          44 144 84 callsubr
          128 96 -73 97 hintmask 1100101001000000
          134 574 -107 callgsubr
          hintmask 1100110001000000
          89 -786 -57 callgsubr
        </CharString>
        <CharString name="gcircumflex.ss01">
          -39 25 callsubr
          69 144 146 callgsubr
          137 574 -107 callgsubr
          hintmask 11011110
          228 -49 47 callsubr
          hintmask 11101110
          -71 callsubr
          hintmask 11011110
          47 callgsubr
          hintmask 11101110
          -42 callgsubr
        </CharString>
        <CharString name="gcommaaccent">
          -73 32 callsubr
          84 callsubr
          -6 100 34 96 -73 97 hintmask 0000000000000000
          hintmask 1100100101000000
          255 767 rmoveto
          -28 -58 -68 -83 -21 12 -14 27 hvcurveto
          103 callsubr
          -14 vhcurveto
          -32 -979 16 callsubr
          hintmask 1100001010000000
          -62 callgsubr
          hintmask 1001010001000000
          -5 callsubr
          hintmask 1100001001000000
          6 callsubr
          hintmask 1100100001000000
          -48 -24 -29 -41 -57 vvcurveto
          hintmask 1100100101000000
          -91 72 -37 111 vhcurveto
          hintmask 1010010010000000
          -17 callgsubr
          hintmask 1100100001000000
          -31 callgsubr
        </CharString>
        <CharString name="gcommaaccent.ss01">
          -53 25 callsubr
          hstemhm
          34 114 36 101 10 125 callsubr
          hintmask 11101110
          224 581 rmoveto
          103 callsubr
          -15 -27 -59 -68 -83 -21 12 -14 28 vhcurveto
          hintmask 11011010
          141 -56 47 callsubr
          hintmask 11101010
          -71 callsubr
          hintmask 11011010
          47 callgsubr
          hintmask 11101010
          -42 callgsubr
        </CharString>
        <CharString name="gdotaccent">
          -39 32 callsubr
          64 108 84 callsubr
          0 111 17 96 -73 97 hintmask 0000000000000000
          hintmask 1100110010100000
          231 594 -104 callgsubr
          -17 17 -10 39 vhcurveto
          -8 -806 16 callsubr
          hintmask 1100100101000000
          -62 callgsubr
          hintmask 1001101000100000
          -5 callsubr
          hintmask 1100100100100000
          6 callsubr
          hintmask 1100110000100000
          -48 -24 -29 -41 -57 vvcurveto
          hintmask 1100110010100000
          -91 72 -37 111 vhcurveto
          hintmask 1010101001000000
          -17 callgsubr
          hintmask 1100110000100000
          -31 callgsubr
        </CharString>
        <CharString name="gdotaccent.ss01">
          -39 25 callsubr
          89 108 hstemhm
          34 114 30 111 6 125 callsubr
          hintmask 11101110
          234 594 -104 callgsubr
          -17 17 -10 39 vhcurveto
          hintmask 11011101
          131 -69 47 callsubr
          hintmask 11101101
          -71 callsubr
          hintmask 11011101
          47 callgsubr
          hintmask 11101101
          -42 callgsubr
        </CharString>
        <CharString name="germandbls">
          -30 0 92 230 92 197 96 hstemhm
          65 114 133 116 -96 114 hintmask 11110100
          113 -2 rmoveto
          19 -59 callgsubr
          502 vlineto
          54 24 31 44 vhcurveto
          hintmask 11111000
          39 26 -25 -67 -65 -29 -40 -37 hvcurveto
          -5 hlineto
          -15 -11 callgsubr
          hintmask 11110100
          -27 7 -12 17 vhcurveto
          10 hlineto
          47 32 -39 -78 -76 -31 -37 -43 hvcurveto
          -15 hlineto
          -56 callsubr
          20 hlineto
          110 73 72 132 91 -33 59 -66 25 hvcurveto
          3 vlineto
          hintmask 11111000
          50 25 31 57 69 vvcurveto
          125 -82 49 -98 -117 -66 -76 -113 vhcurveto
          -494 vlineto
          hintmask 11110100
          85 callsubr
          endchar
        </CharString>
        <CharString name="grave">
          -254 581 152 hstem
          44 166 vstem
          185 581 -101 callgsubr
          endchar
        </CharString>
        <CharString name="gravecomb">
          -510 581 152 hstem
          -120 165 vstem
          21 581 rmoveto
          19 5 3 9 10 -11 23 -40 80 hvcurveto
          20 -10 -25 7 -32 hhcurveto
          -31 -16 -3 -11 -11 6 -6 77 -100 hvcurveto
          -12 8 14 -9 36 hhcurveto
          endchar
        </CharString>
        <CharString name="greater">
          129 callgsubr
          31 382 vstem
          58 12 rmoveto
          333 175 rlineto
          16 9 6 11 19 vvcurveto
          18 vlineto
          19 -6 11 -16 8 vhcurveto
          -327 172 rlineto
          -24 13 -7 -13 -25 vvcurveto
          -15 vlineto
          -27 5 -11 17 -10 vhcurveto
          238 -131 -239 -131 rlineto
          -18 -11 -5 -10 -27 vvcurveto
          -15 vlineto
          -25 5 -15 22 11 vhcurveto
          endchar
        </CharString>
        <CharString name="greaterequal">
          -57 0 88 hstem
          34 381 vstem
          34 152 rmoveto
          -27 3 -12 23 11 vhcurveto
          332 167 rlineto
          16 8 7 11 18 vvcurveto
          18 vlineto
          19 -7 11 -16 8 vhcurveto
          -330 165 rlineto
          -22 11 -4 -10 -28 vvcurveto
          -10 vlineto
          -29 5 -10 16 -8 vhcurveto
          238 -128 -239 -127 rlineto
          -15 -9 -7 -11 -19 vvcurveto
          24 -171 rmoveto
          333 hlineto
          16 8 -26 callgsubr
          10 vlineto
          27 -8 12 -16 vhcurveto
          -333 134 callgsubr
          -10 vlineto
          -27 7 -12 17 vhcurveto
          endchar
        </CharString>
        <CharString name="guillemotleft">
          -105 55 406 hstem
          25 348 vstem
          161 55 rmoveto
          17 31 18 18 7 -3 7 -5 6 hvcurveto
          -91 147 91 146 rlineto
          5 7 3 7 7 vvcurveto
          20 -32 16 -16 -7 -7 -3 -10 -7 vhcurveto
          -102 -155 rlineto
          -9 -12 -4 -10 0 -13 0 -13 4 -10 -12 140 callsubr
          7 7 -3 7 hhcurveto
          165 hmoveto
          16 31 18 18 7 -3 7 -4 6 hvcurveto
          -91 147 91 146 rlineto
          4 7 3 7 7 vvcurveto
          20 -32 16 -15 -8 -8 -3 -10 -6 vhcurveto
          -102 -155 rlineto
          -9 -13 -4 -9 0 -13 0 -13 4 -9 -13 140 callsubr
          6 8 -3 8 hhcurveto
          endchar
        </CharString>
        <CharString name="guillemotright">
          -105 55 406 hstem
          31 347 vstem
          79 24 callsubr
          -15 -33 -16 -20 -7 3 -7 4 -7 hvcurveto
          92 -146 -92 -147 rlineto
          -4 -6 -3 -7 -7 vvcurveto
          -18 31 -18 17 vhcurveto
          163 hmoveto
          7 8 3 10 6 hvcurveto
          103 155 rlineto
          8 12 4 10 0 13 0 13 -4 10 12 flex1
          -103 155 rlineto
          10 -6 -7 3 -8 hhcurveto
          -15 -33 -16 -20 -7 3 -7 5 -7 hvcurveto
          92 -146 -92 -147 rlineto
          -5 -6 -3 -7 -7 vvcurveto
          -18 32 -18 16 vhcurveto
          endchar
        </CharString>
        <CharString name="guilsinglleft">
          -263 55 406 hstem
          25 186 vstem
          162 55 rmoveto
          16 33 18 18 7 -3 7 -4 7 hvcurveto
          -92 146 92 146 rlineto
          4 7 3 7 6 vvcurveto
          20 -34 17 -15 -8 -7 -3 -10 -7 vhcurveto
          -102 -155 rlineto
          -8 -13 -5 -9 0 -13 0 -13 5 -9 -13 140 callsubr
          7 7 -3 8 hhcurveto
          endchar
        </CharString>
        <CharString name="guilsinglright">
          -263 55 406 hstem
          30 186 vstem
          80 24 callsubr
          -16 -34 -17 -20 -6 3 -7 4 -7 hvcurveto
          92 -146 -92 -146 rlineto
          -4 -7 -3 -7 -7 vvcurveto
          -18 33 -18 17 vhcurveto
          endchar
        </CharString>
        <CharString name="h">
          -25 76 callgsubr
          223 -20 hstem
          68 114 130 115 vstem
          115 -2 rmoveto
          -44 callgsubr
          -54 -42 -30 -38 -27 vhcurveto
          27 callsubr
          -17 13 -9 34 vhcurveto
          endchar
        </CharString>
        <CharString name="hbar">
          -39 76 callgsubr
          61 81 81 -20 hstem
          68 114 130 115 vstem
          305 530 rmoveto
          -54 -42 -30 -38 -27 hvcurveto
          129 71 vlineto
          20 8 11 24 hvcurveto
          12 vlineto
          24 -8 10 -20 vhcurveto
          -71 54 hlineto
          18 -14 9 -32 vhcurveto
          -21 hlineto
          -34 -13 -9 -18 hvcurveto
          -54 -42 vlineto
          -19 35 callgsubr
          -12 vlineto
          -24 9 -11 19 vhcurveto
          42 -567 hlineto
          -17 13 -9 34 vhcurveto
          -44 callgsubr
          vhcurveto
          endchar
        </CharString>
        <CharString name="hcircumflex">
          -25 76 callgsubr
          223 -20 49 144 hstemhm
          68 114 130 115 hintmask 00000000
          hintmask 11111100
          29 782 -107 callgsubr
          86 -784 rmoveto
          -44 callgsubr
          -54 -42 -30 -38 -27 vhcurveto
          hintmask 11101100
          27 callsubr
          hintmask 11111100
          -17 13 -9 34 vhcurveto
          endchar
        </CharString>
        <CharString name="hookabovecomb">
          -510 695 55 hstem
          -204 74 vstem
          -225 566 -92 callgsubr
          endchar
        </CharString>
        <CharString name="hungarumlaut">
          -203 581 152 hstem
          -2 310 vstem
          22 581 -76 callsubr
          endchar
        </CharString>
        <CharString name="hyphen">
          -254 222 86 hstem
          23 209 vstem
          46 222 rmoveto
          163 28 callsubr
          -163 53 callgsubr
        </CharString>
        <CharString name="i">
          108 callsubr
          89 108 hstem
          71 112 vstem
          -42 callsubr
          endchar
        </CharString>
        <CharString name="i.loclTRK">
          108 callsubr
          89 108 hstem
          71 112 vstem
          -42 callsubr
          endchar
        </CharString>
        <CharString name="iacute">
          108 callsubr
          76 152 114 callsubr
          115 -94 callgsubr
          5 -583 -73 callsubr
        </CharString>
        <CharString name="iacute_j.loclNLD">
          -7 -212 92 139 -21 527 51 callsubr
          71 112 142 112 vstem
          115 -94 callgsubr
          254 hmoveto
          -106 callgsubr
          -249 -583 -87 callsubr
          197 -210 -85 callsubr
        </CharString>
        <CharString name="ibreve">
          108 callsubr
          76 77 114 callsubr
          128 581 -102 callsubr
          -8 -583 -73 callsubr
        </CharString>
        <CharString name="icircumflex">
          108 callsubr
          69 144 114 callsubr
          31 574 -107 callgsubr
          89 -576 -73 callsubr
        </CharString>
        <CharString name="idieresis">
          108 callsubr
          89 108 hstemhm
          10 94 -33 112 -31 94 hintmask 00000000
          hintmask 11110100
          57 594 -101 callsubr
          hintmask 11101000
          -79 -27 callgsubr
          endchar
        </CharString>
        <CharString name="igrave">
          108 callsubr
          76 152 114 callsubr
          148 581 -101 callgsubr
          -28 -583 -73 callsubr
        </CharString>
        <CharString name="ij">
          -7 120 callgsubr
          71 112 142 31 callgsubr
          254 hmoveto
          39 16 -82 callgsubr
          -17 9 -38 -39 -17 -50 callgsubr
          17 -10 39 vhcurveto
          -262 -27 callgsubr
          197 -210 -85 callsubr
        </CharString>
        <CharString name="imacron">
          108 callsubr
          100 81 114 callsubr
          32 605 -83 callgsubr
          88 -607 -73 callsubr
        </CharString>
        <CharString name="infinity">
          120 113 81 -81 84 165 84 -81 81 hstemhm
          38 87 382 87 hintmask 01101100
          458 446 rmoveto
          -59 -52 -39 -71 -30 hvcurveto
          hintmask 01011100
          70 -27 -49 40 -59 hhcurveto
          -84 -60 -69 -98 -95 56 -71 79 60 52 39 71 30 hvcurveto
          hintmask 10101100
          -70 27 49 -40 59 hhcurveto
          84 60 69 98 hvcurveto
          hintmask 01101100
          95 -56 71 -80 vhcurveto
          -275 -249 rmoveto
          -37 -21 36 47 hvcurveto
          hintmask 01011100
          49 25 36 35 29 27 -25 -64 22 vhcurveto
          hintmask 01101100
          -42 -17 -28 -37 -35 hhcurveto
          hintmask 10101100
          264 -3 rmoveto
          -29 -27 25 64 -22 hvcurveto
          42 17 28 37 35 hhcurveto
          37 21 -36 -47 -49 -25 -36 -35 hvcurveto
          endchar
        </CharString>
        <CharString name="integral">
          -212 -164 83 874 84 hstem
          91 116 vstem
          67 -164 rmoveto
          91 49 80 174 hvcurveto
          172 -11 184 163 vvcurveto
          131 15 53 39 vhcurveto
          18 9 -7 6 hhcurveto
          13 12 21 27 36 -55 7 -22 -91 -49 -81 -173 hvcurveto
          -174 12 -181 -164 vvcurveto
          -131 -15 -54 -40 vhcurveto
          -18 -9 7 -6 hhcurveto
          -13 -12 -21 -27 -36 55 -6 22 hvcurveto
          endchar
        </CharString>
        <CharString name="iogonek">
          -256 -179 66 132 -21 527 -20 89 108 hstemhm
          71 112 -95 64 hintmask 11111000
          128 594 -104 callgsubr
          -17 17 -10 39 vhcurveto
          106 -702 148 callgsubr
          20 6 28 15 27 hvcurveto
          7 5 3 6 8 vvcurveto
          475 -70 callgsubr
          -35 vhcurveto
          -14 hlineto
          -34 35 callsubr
          -475 vlineto
          -15 12 -9 28 -2 vhcurveto
          hintmask 11110100
          -17 -33 -6 -33 -20 vvcurveto
          -26 9 -65 85 22 22 5 11 18 vhcurveto
          10 6 5 10 13 vvcurveto
          hintmask 11111000
          64 callsubr
          endchar
        </CharString>
        <CharString name="itilde">
          -282 142 callgsubr
          82 77 callsubr
          71 125 callsubr
          hintmask 11011000
          3 587 rmoveto
          -1 4 3 -1 4 61 callgsubr
          hintmask 11101000
          29 48 -35 36 hhcurveto
          36 26 30 callsubr
          -18 -11 -8 -3 -10 hhcurveto
          hintmask 11011000
          -29 -47 35 -36 -14 callsubr
          11 -4 vhcurveto
          126 -592 -73 callsubr
        </CharString>
        <CharString name="j">
          -261 -212 92 645 -20 89 108 hstem
          71 112 vstem
          128 -16 callsubr
        </CharString>
        <CharString name="jcircumflex">
          -261 -212 92 645 -20 69 144 114 callsubr
          31 574 -107 callgsubr
          32 -786 -85 callsubr
        </CharString>
        <CharString name="k">
          -58 19 -21 255 40 232 -20 248 -20 hstem
          71 113 vstem
          -28 callsubr
          endchar
        </CharString>
        <CharString name="kcommaaccent">
          -58 -216 -21 256 -21 255 40 232 -20 248 -20 hstemhm
          71 113 0 101 hintmask 11111100
          -28 callsubr
          hintmask 11111010
          -183 -82 rmoveto
          -15 hlineto
          -33 -14 -15 -22 hvcurveto
          -78 -20 -32 -21 vvcurveto
          101 callsubr
          28 58 68 83 20 -12 15 -27 vhcurveto
          endchar
        </CharString>
        <CharString name="kgreenlandic">
          -58 19 -21 249 55 223 -20 hstem
          71 113 vstem
          118 -2 rmoveto
          20 hlineto
          33 76 callsubr
          223 6 vlineto
          123 -233 rlineto
          -14 7 17 -2 22 hhcurveto
          32 hlineto
          32 13 4 11 4 -2 5 -5 9 hvcurveto
          -141 250 123 206 rlineto
          7 12 2 7 4 vvcurveto
          9 -12 6 -30 vhcurveto
          -29 hlineto
          -22 -17 -2 -14 -7 hvcurveto
          -114 -207 rlineto
          -5 197 hlineto
          17 -13 9 -33 vhcurveto
          -20 -86 callgsubr
          -475 -54 callsubr
          endchar
        </CharString>
        <CharString name="l">
          -240 -7 92 -71 -21 760 141 callsubr
          hintmask 01110000
          44 callsubr
          hintmask 10110000
          -63 callgsubr
          hintmask 01110000
          115 callsubr
          endchar
        </CharString>
        <CharString name="lacute">
          -240 -7 92 -71 -21 760 -20 45 152 hstemhm
          65 125 callsubr
          hintmask 01111000
          108 778 rmoveto
          -106 callgsubr
          73 -785 rmoveto
          30 49 9 29 hvcurveto
          hintmask 10101000
          -63 callgsubr
          hintmask 01111000
          115 callsubr
          endchar
        </CharString>
        <CharString name="lcaron">
          -240 -7 92 -71 -21 708 -20 72 141 callsubr
          54 102 hintmask 01111000
          44 callsubr
          hintmask 10111000
          -63 callgsubr
          hintmask 01111000
          115 callsubr
          hintmask 01111100
          77 527 rmoveto
          -21 callgsubr
          -13 22 -5 14 vhcurveto
          endchar
        </CharString>
        <CharString name="lcommaaccent">
          -240 -216 -21 230 92 -71 -21 760 141 callsubr
          -74 101 hintmask 10111000
          44 callsubr
          hintmask 11011000
          -63 callgsubr
          hintmask 10111000
          115 callsubr
          hintmask 10110100
          -63 -230 -79 callgsubr
          endchar
        </CharString>
        <CharString name="ldot">
          -201 -7 92 -71 -21 307 120 333 141 callsubr
          33 116 hintmask 01111000
          44 callsubr
          hintmask 10111000
          -63 callgsubr
          hintmask 01111000
          115 callsubr
          hintmask 01111100
          87 307 rmoveto
          32 26 22 38 37 -26 23 -32 -33 -25 -23 -37 -38 25 -22 33 hvcurveto
          endchar
        </CharString>
        <CharString name="less">
          129 callgsubr
          30 381 vstem
          384 12 rmoveto
          23 -11 4 15 25 vvcurveto
          15 vlineto
          27 -4 10 -18 11 vhcurveto
          -239 131 238 131 rlineto
          16 10 6 11 27 vvcurveto
          15 vlineto
          25 -7 13 -24 -13 vhcurveto
          -327 -172 rlineto
          -16 -8 -6 -11 -19 vvcurveto
          -18 vlineto
          -19 6 -11 16 -9 vhcurveto
          endchar
        </CharString>
        <CharString name="lessequal">
          -57 0 88 hstem
          31 382 vstem
          386 124 rmoveto
          23 -11 3 12 27 vvcurveto
          19 vlineto
          19 -7 11 -15 9 vhcurveto
          -238 127 238 128 rlineto
          15 8 6 10 29 vvcurveto
          10 vlineto
          28 -4 10 -22 -11 vhcurveto
          -331 -165 rlineto
          -15 -8 -8 -11 -19 vvcurveto
          -18 vlineto
          -18 8 -11 15 -8 vhcurveto
          335 -291 rmoveto
          17 -53 callsubr
          10 111 callsubr
          -333 134 callgsubr
          -10 vlineto
          -27 7 -12 17 vhcurveto
          endchar
        </CharString>
        <CharString name="logicalnot">
          -61 255 88 hstem
          331 93 vstem
          362 75 rmoveto
          30 hlineto
          22 10 9 17 hvcurveto
          207 vlineto
          25 -10 10 -22 vhcurveto
          -344 hlineto
          -16 -8 -12 -27 hvcurveto
          -10 vlineto
          -28 8 -11 16 vhcurveto
          283 -154 hlineto
          -17 10 -9 21 vhcurveto
          endchar
        </CharString>
        <CharString name="longs">
          -237 19 83 callgsubr
          0 -20 hstemhm
          78 112 hintmask 11011000
          127 -2 rmoveto
          14 91 callgsubr
          hintmask 11101000
          588 vlineto
          116 callgsubr
          15 10 -53 callgsubr
          -407 hlineto
          hintmask 11011000
          -17 14 -9 35 vhcurveto
          endchar
        </CharString>
        <CharString name="lozenge">
          -64 -17 732 hstem
          34 381 vstem
          214 -17 rmoveto
          19 hlineto
          24 17 5 17 7 hvcurveto
          129 320 rlineto
          3 9 2 6 0 7 0 8 -2 7 7 flex1
          -132 323 rlineto
          17 -7 -17 6 -23 hhcurveto
          -13 hlineto
          -22 -18 -6 -17 -6 hvcurveto
          -133 -323 rlineto
          -4 -7 -1 -7 0 -8 0 -6 1 -7 -8 flex1
          129 -321 rlineto
          -17 7 17 -5 22 hhcurveto
          10 122 rmoveto
          -86 242 86 241 86 -241 rlineto
          endchar
        </CharString>
        <CharString name="lslash">
          -234 -7 92 668 -20 hstemhm
          71 125 callsubr
          hintmask 11100000
          242 90 rmoveto
          -6 -8 -5 -14 hhcurveto
          -19 -12 11 35 hvcurveto
          270 vlineto
          37 22 rlineto
          14 8 8 11 17 vvcurveto
          12 vlineto
          12 -4 5 -6 -4 -3 -2 -2 -5 vhcurveto
          -37 -22 rlineto
          264 vlineto
          18 -15 9 -34 vhcurveto
          -15 152 callsubr
          -18 hvcurveto
          -331 vlineto
          -23 -14 rlineto
          -15 -9 -7 -11 -17 vvcurveto
          -12 vlineto
          -11 3 -6 6 3 5 2 3 5 vhcurveto
          23 14 rlineto
          -206 vlineto
          -103 56 -32 60 30 49 9 29 13 -8 46 -16 vhcurveto
          endchar
        </CharString>
        <CharString name="m">
          210 76 callgsubr
          hstem
          66 113 127 114 126 114 vstem
          540 530 rmoveto
          -57 -46 -33 -41 -29 hvcurveto
          52 -18 -41 22 -49 hhcurveto
          -57 -44 -35 -41 -26 hvcurveto
          27 callgsubr
          19 9 26 34 37 hhcurveto
          39 16 -28 -48 hvcurveto
          -335 59 callgsubr
          22 hlineto
          32 -72 callsubr
          353 vlineto
          9 vlineto
          25 15 25 24 32 hhcurveto
          38 16 -28 -48 hvcurveto
          -335 -54 callsubr
          21 hlineto
          32 -72 callsubr
          354 vlineto
          104 -50 48 -70 vhcurveto
          endchar
        </CharString>
        <CharString name="macron">
          -255 605 81 hstem
          5 243 vstem
          29 605 -83 callgsubr
          endchar
        </CharString>
        <CharString name="minus">
          -61 180 88 hstem
          24 401 vstem
          47 180 rmoveto
          355 hlineto
          17 6 11 28 hvcurveto
          10 vlineto
          27 -6 12 -17 vhcurveto
          -355 hlineto
          85 callgsubr
          -10 vlineto
          -28 127 callgsubr
          endchar
        </CharString>
        <CharString name="multiply">
          -62 4.68 457.72 hstem
          31.87 373.13 vstem
          277 234 rmoveto
          119 160 14 20 -3 8 -14 12 rlinecurve
          -20 16 -12 10 -12 10 -14 -19 rlinecurve
          -117 -159 -119 162 -12 15 -10 -7 -17 -14 rlinecurve
          -14 -12 -18 -16 0 -10 13 -16 rlinecurve
          119 -160 -119 -161 -13 -15 0 -11 18 -16 rlinecurve
          14 -11 17 -15 10 -7 12 15 rlinecurve
          119 162 117 -159 14 -18 12 9 12 10 rlinecurve
          20 16 14 12 3 8 -14 20 rlinecurve
          endchar
        </CharString>
        <CharString name="n">
          76 callgsubr
          hstem
          49 callgsubr
          vstem
          111 -2 -93 callsubr
          endchar
        </CharString>
        <CharString name="nacute">
          76 callgsubr
          51 152 hstem
          49 callgsubr
          vstem
          230 -94 callgsubr
          -119 -583 -93 callsubr
          endchar
        </CharString>
        <CharString name="nacute.loclPLK">
          76 callgsubr
          51 152 hstem
          49 callgsubr
          vstem
          231 581 -84 callgsubr
          -120 -583 -93 callsubr
          endchar
        </CharString>
        <CharString name="napostrophe">
          76 callgsubr
          hstemhm
          19 101 -54 113 130 115 hintmask 00000000
          hintmask 11101000
          34 535 -79 callgsubr
          hintmask 11011000
          77 -537 -93 callsubr
          endchar
        </CharString>
        <CharString name="ncaron">
          76 callgsubr
          48 144 hstem
          49 callgsubr
          vstem
          238 578 -105 callsubr
          -127 -580 -93 callsubr
          endchar
        </CharString>
        <CharString name="ncommaaccent">
          -216 -21 256 103 callgsubr
          hstemhm
          66 113 12 101 17 115 hintmask 11110100
          111 -2 -93 callsubr
          hintmask 11111100
          95 -235 -79 callgsubr
          endchar
        </CharString>
        <CharString name="nine">
          -51 16 -21 287 92 238 92 hstem
          31 109 174 114 vstem
          114 -5 rmoveto
          41 273 120 335 170 -83 84 -115 -104 -95 -72 -144 -139 85 -67 81 37 33 10 19 30 hvcurveto
          -29 -106 -70 -84 -114 -45 rrcurveto
          -9 -3 -1 -4 -8 vvcurveto
          -16 14 -50 26 vhcurveto
          120 379 rmoveto
          -51 -43 38 80 80 46 40 42 42 44 -32 -123 -19 0 -20 -2 -19 hvcurveto
          -12 -20 -27 -13 -31 hhcurveto
          endchar
        </CharString>
        <CharString name="notequal">
          80 callsubr
          -93 hlineto
          80 126 rlineto
          27 17 -5 16 -36 hhcurveto
          -16 hlineto
          -22 -10 -10 -15 -10 hvcurveto
          -92 -144 rlineto
          -147 67 callgsubr
          86 hlineto
          -86 -136 rlineto
          -22 -13 5 -14 37 hhcurveto
          15 hlineto
          23 8 7 17 11 hvcurveto
          94 148 rlineto
          154 96 callgsubr
        </CharString>
        <CharString name="ntilde">
          76 callgsubr
          57 77 callsubr
          49 callgsubr
          hintmask 00000000
          hintmask 11011100
          115 587 -75 callsubr
          6 -592 -93 callsubr
          endchar
        </CharString>
        <CharString name="numbersign">
          4 19 -21 192 92 130 92 hstem
          17 480 vstem
          111 -2 rmoveto
          12 135 callsubr
          89 hlineto
          -16 -111 -7 -52 -6 vvcurveto
          -16 11 -7 24 vhcurveto
          13 135 callsubr
          75 hlineto
          18 7 100 callsubr
          27 -7 12 -18 vhcurveto
          -62 hlineto
          18 130 rlineto
          70 hlineto
          17 8 100 callsubr
          27 -8 12 -17 vhcurveto
          -56 hlineto
          22 157 rlineto
          16 2 -13 9 -25 hhcurveto
          -13 hlineto
          -28 -12 -9 -17 -3 hvcurveto
          -22 -156 rlineto
          -90 hlineto
          23 157 rlineto
          16 2 -12 9 -26 hhcurveto
          -12 hlineto
          -29 -11 -9 -17 -3 hvcurveto
          -23 -156 rlineto
          -73 hlineto
          -56 callsubr
          61 hlineto
          -18 -130 rlineto
          -72 hlineto
          -56 callsubr
          58 hlineto
          -16 -107 -8 -57 -5 vvcurveto
          -16 -1 12 -7 25 hhcurveto
          93 284 rmoveto
          18 130 rlineto
          89 hlineto
          -18 -130 rlineto
          endchar
        </CharString>
        <CharString name="o">
          23 callsubr
          4 callgsubr
          239 -7 -88 callgsubr
        </CharString>
        <CharString name="oacute">
          1 callsubr
          13 -588 -88 callgsubr
        </CharString>
        <CharString name="oacute.loclPLK">
          -7 callsubr
          227 581 -84 callgsubr
          12 -588 -88 callgsubr
        </CharString>
        <CharString name="obreve">
          23 callsubr
          51 77 4 callgsubr
          239 581 -102 callsubr
          -588 vmoveto
          -99 callgsubr
          endchar
        </CharString>
        <CharString name="ocircumflex">
          -33 123 callsubr
          4 callgsubr
          143 574 -107 callgsubr
          96 -581 -88 callgsubr
        </CharString>
        <CharString name="odieresis">
          23 callsubr
          64 108 hstemhm
          41 116 -35 94 48 94 -38 116 hintmask 00000000
          hintmask 11101100
          169 594 -101 callsubr
          hintmask 11110010
          -72 -601 -88 callgsubr
        </CharString>
        <CharString name="oe">
          212 -7 92 131 80 142 92 -88 88 hstemhm
          41 116 159 107 158 109 hintmask 11011110
          635 121 rmoveto
          -57 callsubr
          223 hlineto
          12 29 35 14 169 -55 96 -125 -59 -48 -18 -38 -35 hvcurveto
          36 -31 -43 20 -55 hhcurveto
          -135 -63 -96 -174 -173 63 -94 135 56 43 19 37 32 hvcurveto
          -37 35 52 -19 68 hhcurveto
          -41 callsubr
          -127 321 rmoveto
          50 23 -46 -100 hvcurveto
          -158 hlineto
          104 5 29 42 51 hhcurveto
          -269 -357 rmoveto
          -58 -24 52 124 hvcurveto
          hintmask 11101110
          125 24 52 58 41 25 -25 -56 11 vhcurveto
          -5 -29 -3 -33 0 -37 0 -35 3 -31 -28 flex1
          hintmask 11011110
          -55 -12 -24 -24 -41 hhcurveto
          endchar
        </CharString>
        <CharString name="ogonek">
          -254 -183 66 hstem
          43 64 vstem
          137 -183 rmoveto
          22 22 5 11 18 hvcurveto
          10 6 5 10 13 vvcurveto
          64 callsubr
          43 callsubr
          -46 16 rlineto
          -31 -40 -9 -47 -25 vvcurveto
          -26 9 -65 85 vhcurveto
          endchar
        </CharString>
        <CharString name="ograve">
          -7 callsubr
          259 581 -101 callgsubr
          -20 -588 -88 callgsubr
        </CharString>
        <CharString name="ohorn">
          23 callsubr
          -69 37 hstemhm
          -29 callsubr
          -29 69 hintmask 11011000
          137 callsubr
          hintmask 10111000
          126 callsubr
          vhcurveto
          hintmask 10110100
          -63 callsubr
          hintmask 11011000
          -44 callsubr
          endchar
        </CharString>
        <CharString name="ohungarumlaut">
          -7 callsubr
          142 581 -76 callsubr
          -48 -588 -88 callgsubr
        </CharString>
        <CharString name="omacron">
          23 callsubr
          75 81 4 callgsubr
          143 605 -83 callgsubr
          96 -612 -88 callgsubr
        </CharString>
        <CharString name="one">
          -51 0 92 611 -20 hstem
          184 112 vstem
          62 hmoveto
          334 hlineto
          17 8 100 callsubr
          27 -8 12 -17 vhcurveto
          -100 589 hlineto
          12 -20 10 -15 vhcurveto
          -211 -43 rlineto
          -14 -3 -7 -8 -12 vvcurveto
          -23 6 -43 19 vhcurveto
          130 20 rlineto
          -499 -122 -1 callgsubr
          endchar
        </CharString>
        <CharString name="oneeighth">
          118 -4 54 -30 -21 364 54 285 110 callgsubr
          184 65 -54 63 87 63 -57 65 hintmask 1010111001000000
          -60 callgsubr
          hintmask 0111011001000000
          37 callgsubr
          -33 callsubr
          126 callgsubr
          hintmask 1010111001000000
          356 -3 rmoveto
          75 41 51 68 61 -28 27 -32 20 hvcurveto
          hintmask 1010110110000000
          27 15 25 27 51 vvcurveto
          65 -46 36 -60 -64 -43 -39 -67 -47 21 -25 25 -19 vhcurveto
          hintmask 1010111001000000
          -30 -16 -27 -31 -58 vvcurveto
          -73 44 -46 72 vhcurveto
          hintmask 1010110110000000
          8 253 rmoveto
          -27 14 -23 17 34 vvcurveto
          33 20 16 24 23 20 -16 -34 -29 -14 -20 -23 -15 vhcurveto
          hintmask 1010111001000000
          -8 -199 rmoveto
          -28 -23 21 47 37 14 21 23 16 hvcurveto
          34 -17 31 -16 -45 vvcurveto
          -37 -20 -27 -31 vhcurveto
          endchar
        </CharString>
        <CharString name="onehalf">
          131 0 53 303 54 292 110 callgsubr
          357 66 hintmask 11011000
          -60 callgsubr
          37 callgsubr
          hintmask 11101000
          -33 callsubr
          hintmask 11011000
          126 callgsubr
          263 1 rmoveto
          204 hlineto
          10 4 7 16 hvcurveto
          7 vlineto
          16 -4 7 -10 vhcurveto
          -135 hlineto
          hintmask 11011100
          88 130 rlineto
          46 61 13 27 38 vvcurveto
          61 -44 40 -72 -46 -59 -20 -28 -12 13 -22 12 vhcurveto
          9 22 57 callgsubr
          hintmask 11011000
          -14 6 -23 7 vhcurveto
          endchar
        </CharString>
        <CharString name="onequarter">
          76 19 -21 22 -21 91 53 559 110 callgsubr
          266 65 hintmask 01101110
          -60 callgsubr
          37 callgsubr
          hintmask 01110110
          -33 callsubr
          hintmask 01101110
          126 callgsubr
          hintmask 10101110
          347 -1 rmoveto
          15 hlineto
          18 7 60 callsubr
          -7 5 -18 vhcurveto
          -20 hlineto
          -12 -10 -2 -8 -5 hvcurveto
          -142 -261 rlineto
          -1 -1 -2 -3 vvcurveto
          -13 9 -27 8 vhcurveto
          133 -77 hlineto
          -10 8 -5 17 vhcurveto
          -110 145 rmoveto
          88 165 rlineto
          3 138 callsubr
        </CharString>
        <CharString name="ordfeminine">
          -229 440 56 62 49 36 65 hstem
          24 76 66 76 vstem
          100 440 rmoveto
          34 22 13 15 15 hvcurveto
          -16 3 3 -9 13 hhcurveto
          10 48 2 12 hvcurveto
          4 -6 17 45 vvcurveto
          90 vlineto
          58 -35 37 -77 -50 -47 -16 -16 -10 12 -38 9 vhcurveto
          7 31 15 34 hhcurveto
          30 10 -13 -20 hvcurveto
          -3 vlineto
          -91 -51 -29 -60 -48 29 -30 47 hvcurveto
          25 56 rmoveto
          -17 -8 9 17 30 30 6 36 hvcurveto
          -40 vlineto
          -14 -10 -14 -8 -17 hhcurveto
          endchar
        </CharString>
        <CharString name="ordmasculine">
          -218 440 66 136 66 hstem
          29 78 79 78 vstem
          147 440 rmoveto
          75 42 47 86 86 -41 49 -76 -77 -41 -49 -86 -85 41 -48 77 hvcurveto
          -1 66 rmoveto
          -27 -12 20 48 48 12 20 27 28 12 -20 -48 -48 -12 -20 -28 hvcurveto
          endchar
        </CharString>
        <CharString name="oslash">
          23 callsubr
          4 callgsubr
          396 445 -48 callgsubr
        </CharString>
        <CharString name="oslashacute">
          1 callsubr
          170 -136 -48 callgsubr
        </CharString>
        <CharString name="otilde">
          23 callsubr
          57 77 callsubr
          -29 callsubr
          hintmask 00000000
          hintmask 11011100
          111 587 -75 callsubr
          138 -597 -88 callgsubr
        </CharString>
        <CharString name="p">
          -26 107 callgsubr
          hstem
          67 113 145 116 vstem
          114 -207 rmoveto
          18 hlineto
          34 -72 callsubr
          215 vlineto
          -23 22 29 -18 44 hhcurveto
          101 65 96 170 167 -62 104 -92 -47 -41 -27 -46 -26 hvcurveto
          30 -5 -3 35 -27 hhcurveto
          -18 -64 -6 -20 hvcurveto
          -13 11 -31 -90 vvcurveto
          -543 -54 callsubr
          131 293 rmoveto
          -26 128 callsubr
          28 hhcurveto
          48 24 -60 -116 -119 -26 -55 -54 hvcurveto
          endchar
        </CharString>
        <CharString name="paragraph">
          -44 638 62 hstem
          205 62 78 62 vstem
          232 -172 rmoveto
          9 hlineto
          19 7 9 16 hvcurveto
          785 78 -785 vlineto
          -17 8 -8 19 vhcurveto
          9 hlineto
          19 7 9 16 hvcurveto
          785 26 vlineto
          17 8 8 18 hvcurveto
          8 vlineto
          20 -8 8 -17 vhcurveto
          -203 hlineto
          -110 -91 -93 -148 -134 78 -92 98 -14 hvcurveto
          -366 vlineto
          -17 8 -8 19 vhcurveto
          endchar
        </CharString>
        <CharString name="parenleft">
          -261 -189 -21 hstem
          41 97 vstem
          220 -210 rmoveto
          17 23 20 16 6 -2 7 -5 7 hvcurveto
          -84 121 -31 152 167 vvcurveto
          168 32 153 84 121 vhcurveto
          5 7 2 7 7 vvcurveto
          18 -26 16 -16 -8 -8 -4 -9 -8 vhcurveto
          -99 -115 -55 -177 -192 vvcurveto
          -191 54 -177 100 -115 vhcurveto
          -9 8 8 -4 9 hhcurveto
          endchar
        </CharString>
        <CharString name="parenright">
          -261 -189 -21 hstem
          111 97 vstem
          29 -210 rmoveto
          9 8 4 9 8 hvcurveto
          99 116 55 176 191 vvcurveto
          192 -54 177 -100 115 vhcurveto
          9 -8 -8 4 -8 hhcurveto
          -17 -25 -18 -17 -6 2 -7 5 -7 hvcurveto
          85 -121 31 -153 -168 vvcurveto
          -168 -33 -153 -83 -121 vhcurveto
          -5 -6 -2 -7 -5 vvcurveto
          -17 25 -19 16 vhcurveto
          endchar
        </CharString>
        <CharString name="partialdiff">
          -99 -8 92 242 94 221 95 hstem
          18 110 149 117 vstem
          187 -8 rmoveto
          124 83 108 235 253 -89 148 -136 -79 -44 -34 -30 -18 26 -41 16 hvcurveto
          12 18 28 41 hhcurveto
          61 51 -87 -170 8 hvcurveto
          25 -27 -33 11 -33 hhcurveto
          -91 -77 -87 -141 -135 73 -65 96 hvcurveto
          4 92 rmoveto
          -45 -18 46 64 70 31 62 47 29 20 -14 -27 22 hvcurveto
          -106 -30 -95 -56 vhcurveto
          endchar
        </CharString>
        <CharString name="percent">
          176 72 callgsubr
          hintmask 1111011110000000
          19 callgsubr
          hintmask 1110111110000000
          24 callgsubr
          hintmask 1111011110000000
          2 callsubr
          67 vmoveto
          31 callsubr
          endchar
        </CharString>
        <CharString name="period">
          -322 -2 130 hstem
          35 118 vstem
          81 -2 rmoveto
          -34 callgsubr
          endchar
        </CharString>
        <CharString name="periodcentered">
          -296 300 120 hstem
          56 115 vstem
          113 67 callsubr
        </CharString>
        <CharString name="perthousand">
          476 72 callgsubr
          40 81 98 81 hintmask 1111011111100000
          19 callgsubr
          hintmask 1000101000000000
          24 callgsubr
          hintmask 1111011111100000
          2 callsubr
          300 hmoveto
          60 70 28 136 137 -70 29 -60 -61 -69 -29 -137 -136 70 -28 60 hvcurveto
          -300 67 rmoveto
          31 callsubr
          300 hmoveto
          31 callsubr
          endchar
        </CharString>
        <CharString name="pi">
          -3 19 -21 433 92 hstem
          112 105 91 108 vstem
          102 -2 rmoveto
          11 hlineto
          26 22 9 18 5 hvcurveto
          27 95 20 185 4 126 rrcurveto
          92 hlineto
          -2 -297 rlineto
          -79 -1 2 -57 48 hhcurveto
          21 hlineto
          32 14 11 16 hvcurveto
          16 -7 38 75 vvcurveto
          277 39 vlineto
          18 9 7 20 2 hvcurveto
          2 18 1 13 10 vvcurveto
          17 -9 7 -18 vhcurveto
          -324 hlineto
          -66 -59 -10 -37 -16 1 -39 27 11 14 9 1 48 hvcurveto
          -5 -127 -24 -169 -28 -106 rrcurveto
          -1 -3 -1 -3 -3 vvcurveto
          -13 19 -9 30 vhcurveto
          endchar
        </CharString>
        <CharString name="plus">
          -61 20 -21 191 85 hstem
          180 88 vstem
          219 -1 rmoveto
          10 hlineto
          27 12 7 17 hvcurveto
          167 125 vlineto
          16 6 -26 callgsubr
          7 vlineto
          27 -6 12 -16 vhcurveto
          -125 168 hlineto
          17 -12 7 -27 vhcurveto
          -10 hlineto
          -27 -12 -7 -17 hvcurveto
          -168 -123 vlineto
          -16 -7 -14 -27 hvcurveto
          -7 vlineto
          -27 7 -10 16 vhcurveto
          123 -167 hlineto
          -17 12 -7 27 vhcurveto
          endchar
        </CharString>
        <CharString name="plusminus">
          -61 0 88 232 85 hstem
          179 88 vstem
          218 129 rmoveto
          10 hlineto
          28 11 11 19 hvcurveto
          161 124 vlineto
          17 7 13 26 hvcurveto
          7 111 callsubr
          -124 162 hlineto
          21 -11 9 -28 vhcurveto
          -10 hlineto
          -27 -12 -9 -21 hvcurveto
          -162 -122 vlineto
          143 callsubr
          -7 vlineto
          -26 7 -13 17 vhcurveto
          122 -161 hlineto
          -19 12 -11 27 vhcurveto
          -162 -129 rmoveto
          335 hlineto
          17 8 -26 callgsubr
          10 vlineto
          27 -8 12 -17 vhcurveto
          -335 hlineto
          -16 -8 -12 -27 hvcurveto
          -10 vlineto
          -27 8 -12 16 vhcurveto
          endchar
        </CharString>
        <CharString name="product">
          90 602 98 hstem
          103 112 170 111 vstem
          150 -104 rmoveto
          18 -59 callgsubr
          680 170 -680 59 callgsubr
          19 hlineto
          32 -72 callsubr
          680 68 vlineto
          17 6 -26 callgsubr
          20 vlineto
          27 -6 12 -17 vhcurveto
          -527 hlineto
          -16 -8 -12 -27 hvcurveto
          -20 vlineto
          -27 8 -12 16 vhcurveto
          66 -680 hlineto
          -43 callgsubr
          endchar
        </CharString>
        <CharString name="q">
          -29 107 callgsubr
          -5 115 callgsubr
          145 114 hintmask 11011100
          351 -207 rmoveto
          19 -59 callgsubr
          680 vlineto
          17 -13 9 -32 vhcurveto
          -8 hlineto
          -23 -14 -3 -15 -4 hvcurveto
          hintmask 11101100
          -4 -17 -4 -16 -3 -17 rrcurveto
          46 -26 -43 27 -46 hhcurveto
          -93 -62 -103 -167 -172 64 -95 102 45 29 19 23 22 hvcurveto
          -216 vlineto
          hintmask 11011100
          -43 callgsubr
          -113 293 rmoveto
          -55 -25 52 121 hvcurveto
          hintmask 11101100
          119 24 58 49 27 25 -21 -33 20 vhcurveto
          -264 vlineto
          hintmask 11011100
          -20 -16 -23 -12 -26 hhcurveto
          endchar
        </CharString>
        <CharString name="question">
          -119 -2 130 479 100 hstem
          96 121 41 122 vstem
          147 211 rmoveto
          19 hlineto
          28 10 6 17 3 hvcurveto
          8 54 34 36 41 43 rrcurveto
          44 48 46 48 78 vvcurveto
          99 -76 67 -121 -69 -91 -26 -42 -17 28 -47 18 vhcurveto
          13 34 32 53 hhcurveto
          59 30 -27 -52 -45 -37 -39 -41 -48 hvcurveto
          -46 -54 -25 -55 -50 vvcurveto
          -18 11 -8 27 vhcurveto
          -3 -213 rmoveto
          24 91 callgsubr
          78 119 callsubr
          -34 vhcurveto
          -24 hlineto
          -34 -67 callsubr
          -78 vlineto
          151 callgsubr
        </CharString>
        <CharString name="questiondown">
          -119 -184 100 479 130 hstem
          11 122 41 121 vstem
          247 525 rmoveto
          -24 hlineto
          -34 35 callsubr
          -78 vlineto
          -2 callsubr
          24 hlineto
          34 -72 callsubr
          78 -70 callgsubr
          -34 vhcurveto
          -3 -213 rmoveto
          -19 hlineto
          -28 -10 -6 -17 -3 hvcurveto
          -8 -54 -34 -36 -41 -43 rrcurveto
          -44 -48 -46 -48 -78 vvcurveto
          -99 76 -67 121 69 91 26 42 17 -28 47 -18 vhcurveto
          -13 -34 -32 -53 hhcurveto
          -59 -30 27 52 45 37 39 41 48 hvcurveto
          46 54 25 55 51 vvcurveto
          17 -11 8 -27 vhcurveto
          endchar
        </CharString>
        <CharString name="quotedbl">
          -201 702 -20 hstemhm
          31 108 30 108 hintmask 00000000
          hintmask 11000000
          81 468 rmoveto
          8 21 callgsubr
          17 hhcurveto
          hintmask 10100000
          138 hmoveto
          8 hlineto
          17 8 7 13 3 hvcurveto
          8 63 14 116 9 vvcurveto
          -46 callgsubr
          -35 vhcurveto
          -10 hlineto
          -34 35 callsubr
          -9 vlineto
          22 -179 rlineto
          -13 3 8 -7 17 hhcurveto
          endchar
        </CharString>
        <CharString name="quotedblbase">
          -162 -120 248 hstem
          60 111 41 111 vstem
          53 -120 8 callgsubr
          -33 hvcurveto
          -13 hlineto
          -34 -15 -14 -23 -80 -17 -48 -18 -39 hvcurveto
          -5 -9 -3 -10 -7 vvcurveto
          -14 22 -4 14 vhcurveto
          endchar
        </CharString>
        <CharString name="quotedblleft">
          -162 499 248 hstem
          24 111 41 111 vstem
          73 499 rmoveto
          14 hlineto
          33 6 callgsubr
          17 -14 32 vhcurveto
          152 hmoveto
          14 hlineto
          33 6 callgsubr
          17 -14 32 vhcurveto
          endchar
        </CharString>
        <CharString name="quotedblright">
          -162 755 -20 hstem
          69 111 41 111 vstem
          62 507 8 callgsubr
          -32 hvcurveto
          -14 -19 callgsubr
          endchar
        </CharString>
        <CharString name="quoteleft">
          -300 499 248 hstem
          36 111 vstem
          85 499 rmoveto
          13 hlineto
          34 6 callgsubr
          16 -14 33 vhcurveto
          endchar
        </CharString>
        <CharString name="quoteright">
          -300 755 -20 hstem
          73 111 vstem
          66 507 26 callgsubr
          endchar
        </CharString>
        <CharString name="quotesinglbase">
          -300 -120 248 hstem
          72 111 vstem
          64 -120 rmoveto
          38 81 92 callsubr
          -33 hvcurveto
          -13 hlineto
          -34 -15 -14 -23 -80 -18 -48 -18 -39 hvcurveto
          -4 -9 -4 -10 -7 vvcurveto
          -14 22 -4 14 vhcurveto
          endchar
        </CharString>
        <CharString name="quotesingle">
          -346 702 -20 hstem
          30 108 vstem
          79 468 rmoveto
          9 21 callgsubr
          16 hhcurveto
          endchar
        </CharString>
        <CharString name="quotesingle.loclGUA">
          -339 700 -20 hstem
          36 107 vstem
          73 389 rmoveto
          23 2 47 108 166 vvcurveto
          20 -15 15 -30 vhcurveto
          -13 hlineto
          -34 -15 -15 -22 hvcurveto
          1 -256 rlineto
          -13 22 -5 14 vhcurveto
          endchar
        </CharString>
        <CharString name="r">
          74 callgsubr
          hstemhm
          71 112 hintmask 10110000
          119 -2 62 callsubr
          hintmask 11010000
          -61 callsubr
          hintmask 10110000
          151 callgsubr
        </CharString>
        <CharString name="racute">
          74 callgsubr
          69 152 hstemhm
          71 112 hintmask 10111000
          163 579 rmoveto
          -106 callgsubr
          -44 -581 62 callsubr
          hintmask 11011000
          -61 callsubr
          hintmask 10111000
          151 callgsubr
        </CharString>
        <CharString name="radical">
          -16 -153 149 hstemhm
          21 484 hintmask 00000000
          hintmask 11000000
          261 -153 rmoveto
          23 hlineto
          25 16 9 17 3 hvcurveto
          177 915 rlineto
          9 vlineto
          10 -10 6 -25 vhcurveto
          -21 hlineto
          -26 -15 -8 -17 -3 hvcurveto
          -125 -703 rlineto
          -5 -25 -7 -53 -11 vvcurveto
          -3 hlineto
          -1 11 -10 42 -10 38 -68 277 rcurveline
          15 -3 -8 7 -11 hhcurveto
          -14 -60 -31 -20 -39 hvcurveto
          -14 -7 -6 -5 -10 vvcurveto
          -6 2 -6 10 -26 vhcurveto
          -12 5 7 -6 10 hhcurveto
          5 11 4 16 30 hvcurveto
          114 -405 rlineto
          -18 4 17 -7 25 hhcurveto
          endchar
        </CharString>
        <CharString name="rcaron">
          74 callgsubr
          66 144 hstemhm
          71 112 hintmask 10111000
          171 576 -105 callsubr
          -52 -578 62 callsubr
          hintmask 11011000
          -61 callsubr
          hintmask 10111000
          151 callgsubr
        </CharString>
        <CharString name="rcommaaccent">
          74 callgsubr
          hstemhm
          71 112 -105 101 hintmask 10110000
          119 -2 62 callsubr
          hintmask 11010000
          -61 callsubr
          hintmask 10110000
          142 callsubr
          hintmask 10101000
          -26 -237 -79 callgsubr
          endchar
        </CharString>
        <CharString name="registered">
          82 -6 55 271 58 119 57 100 55 hstem
          9 58 126 67 80 69 116 -8 callgsubr
          -77 101 rmoveto
          15 hlineto
          19 7 5 10 hvcurveto
          155 19 vlineto
          30 8 -12 -35 10 hvcurveto
          35 -113 rlineto
          -7 2 10 -3 13 hhcurveto
          18 hlineto
          17 8 4 6 2 0 3 -2 5 hvcurveto
          -37 119 -10 32 -13 23 -12 8 rlinecurve
          3 vlineto
          30 15 23 32 48 vvcurveto
          71 -35 33 -77 vhcurveto
          -86 hlineto
          -12 -6 -6 -14 hvcurveto
          -369 vlineto
          -10 8 -5 18 vhcurveto
          41 228 rmoveto
          119 40 vlineto
          24 16 -19 -39 -33 -17 -28 -20 hvcurveto
          endchar
        </CharString>
        <CharString name="ring">
          -254 558 47 87 48 hstem
          38 48 85 48 vstem
          128 558 -49 callgsubr
          endchar
        </CharString>
        <CharString name="s">
          84 callgsubr
          124 callsubr
          164 -9 -77 callsubr
        </CharString>
        <CharString name="sacute">
          84 callgsubr
          51 152 124 callsubr
          166 -94 callgsubr
          -2 -590 -77 callsubr
        </CharString>
        <CharString name="sacute.loclPLK">
          84 callgsubr
          51 152 124 callsubr
          166 581 -84 callgsubr
          -2 -590 -77 callsubr
        </CharString>
        <CharString name="scaron">
          84 callgsubr
          48 144 124 callsubr
          173 578 -105 callsubr
          -9 -587 -77 callsubr
        </CharString>
        <CharString name="scedilla">
          -157 -211 60 143 94 351 93 hstemhm
          36 112 34 78 -45 112 hintmask 11110100
          327 149 rmoveto
          83 -43 39 -61 31 vhcurveto
          -39 22 -36 20 44 vvcurveto
          33 25 16 32 vhcurveto
          37 25 -22 8 hhcurveto
          13 22 47 19 32 -68 17 -51 -90 -65 -57 -93 -82 44 -36 58 -29 hvcurveto
          46 -24 31 -22 -43 vvcurveto
          -38 -22 -20 -38 vhcurveto
          -47 -29 34 -10 hhcurveto
          -15 -28 -45 -20 hvcurveto
          hintmask 11111000
          -29 60 -31 66 -3 vhcurveto
          -19 -51 -3 -13 -7 -45 callsubr
          14 49 rlineto
          hintmask 11110100
          74 16 48 58 80 vvcurveto
          endchar
        </CharString>
        <CharString name="scircumflex">
          84 callgsubr
          44 144 124 callsubr
          82 574 -107 callgsubr
          82 -583 -77 callsubr
        </CharString>
        <CharString name="scommaaccent">
          -157 -216 -21 228 95 351 93 hstemhm
          36 112 -23 101 -11 112 hintmask 11110100
          164 -9 -76 callgsubr
          hintmask 11101000
          -24 -228 -79 callgsubr
          endchar
        </CharString>
        <CharString name="section">
          -155 -7 95 525 93 hstemhm
          26 101 -90 113 60 112 -90 100 hintmask 11100100
          166 -7 rmoveto
          hintmask 11101000
          88 68 54 90 45 -18 33 -25 23 hvcurveto
          hintmask 11010100
          33 24 20 39 48 vvcurveto
          87 -53 37 -51 26 vhcurveto
          -38 18 -40 15 37 vvcurveto
          29 21 15 34 vhcurveto
          37 26 -22 6 hhcurveto
          15 21 48 17 34 -72 16 -47 -85 -69 -50 -90 -46 19 -32 24 -22 hvcurveto
          hintmask 11101000
          -33 -24 -21 -39 -50 vvcurveto
          -85 51 -35 47 -24 vhcurveto
          50 -26 36 -13 -38 vvcurveto
          -27 -19 -17 -36 vhcurveto
          -43 -26 28 -8 hhcurveto
          -15 -25 -46 -19 hvcurveto
          hintmask 11100100
          -34 70 -24 58 vhcurveto
          32 295 rmoveto
          -38 15 -33 16 43 vvcurveto
          29 15 15 19 9 vhcurveto
          39 -17 32 -15 -42 vvcurveto
          -29 -16 -16 -18 -8 vhcurveto
          endchar
        </CharString>
        <CharString name="semicolon">
          -322 395 130 hstemhm
          35 118 -109 108 hintmask 11000000
          81 395 rmoveto
          -34 callgsubr
          -37 -515 rmoveto
          hintmask 10100000
          41 callsubr
          hintmask 11000000
          150 callsubr
        </CharString>
        <CharString name="seven">
          -51 19 -21 610 92 hstem
          30 399 vstem
          117 -2 rmoveto
          23 hlineto
          24 19 5 13 5 hvcurveto
          239 604 rlineto
          1 3 1 4 5 vvcurveto
          25 -15 43 -9 vhcurveto
          -351 hlineto
          -56 callsubr
          250 hlineto
          -230 -574 rlineto
          -2 -7 -3 -7 -4 vvcurveto
          -13 15 -5 33 vhcurveto
          endchar
        </CharString>
        <CharString name="six">
          -51 -6 92 237 92 288 -20 hstem
          32 113 174 109 vstem
          229 -6 rmoveto
          105 94 72 143 139 -85 67 -81 -37 -33 -9 -19 -30 hvcurveto
          29 107 70 83 115 44 rrcurveto
          9 4 1 4 8 vvcurveto
          15 -14 51 -26 -42 -272 -121 -335 -170 83 -83 114 vhcurveto
          2 92 rmoveto
          -42 -44 32 123 19 1 20 1 19 hvcurveto
          12 20 28 12 30 hhcurveto
          52 42 -38 -79 -80 -45 -40 -43 hvcurveto
          endchar
        </CharString>
        <CharString name="slash">
          -190 703 -20 hstem
          -16 338 vstem
          16 3 callgsubr
        </CharString>
        <CharString name="space">
          -373 endchar
        </CharString>
        <CharString name="sterling">
          -99 0 92 235 92 198 90 hstem
          94 111 vstem
          41 hmoveto
          326 -37 callsubr
          -212 hlineto
          24 20 26 33 105 vvcurveto
          77 95 vlineto
          18 7 11 27 hvcurveto
          15 vlineto
          27 -7 12 -18 vhcurveto
          -95 86 hlineto
          78 26 34 58 vhcurveto
          27 27 -8 5 hhcurveto
          16 14 42 18 32 -63 6 -37 -128 -56 -76 -131 hvcurveto
          -81 -46 vlineto
          143 callsubr
          -15 vlineto
          -27 7 -11 17 vhcurveto
          46 -161 hlineto
          -78 -82 6 -42 vvcurveto
          -18 vlineto
          -24 9 -10 20 vhcurveto
          endchar
        </CharString>
        <CharString name="summation">
          -36 -102 105 599 98 hstem
          16 448 vstem
          48 -102 rmoveto
          392 hlineto
          17 -53 callsubr
          27 vlineto
          26 -7 13 -17 vhcurveto
          -270 hlineto
          -2 3 154 280 rlineto
          5 8 2 7 0 8 0 7 -3 8 7 flex1
          -146 268 1 3 rlineto
          250 hlineto
          17 7 13 26 hvcurveto
          20 111 callsubr
          -374 hlineto
          -22 -10 -10 -21 hvcurveto
          -18 vlineto
          -14 3 -11 7 -11 vhcurveto
          173 -314 -178 -315 rlineto
          -7 -11 -3 -11 -13 vvcurveto
          -19 vlineto
          -23 10 -11 22 vhcurveto
          endchar
        </CharString>
        <CharString name="t">
          -212 -7 98 callsubr
          hintmask 01110000
          194 -7 rmoveto
          29 54 8 30 hvcurveto
          hintmask 10110000
          -74 callgsubr
          hintmask 01110000
          -105 59 -32 59 vhcurveto
          endchar
        </CharString>
        <CharString name="tbar">
          -226 -7 92 168 81 97 92 hstemhm
          76 113 hintmask 00000000
          hintmask 11110000
          252 90 rmoveto
          8 callsubr
          117 61 vlineto
          19 7 11 24 hvcurveto
          12 vlineto
          24 -7 10 -19 vhcurveto
          -61 97 53 -37 callsubr
          -53 101 hlineto
          17 -12 9 -27 vhcurveto
          -19 hlineto
          -27 -13 -9 -17 -2 hvcurveto
          -13 -101 rlineto
          -23 hlineto
          -56 callsubr
          23 -97 -40 hlineto
          -17 -8 0 callsubr
          -12 vlineto
          -24 8 -11 17 vhcurveto
          40 -123 hlineto
          -105 59 -32 59 29 54 8 30 10 -9 49 -16 vhcurveto
          endchar
        </CharString>
        <CharString name="tcaron">
          -212 -7 92 -71 -21 438 92 229 -20 hstemhm
          76 113 36 102 hintmask 01111100
          252 571 rmoveto
          -21 callgsubr
          -13 22 -5 14 vhcurveto
          -58 -578 rmoveto
          29 54 8 30 hvcurveto
          hintmask 10111100
          -74 callgsubr
          hintmask 01111100
          -105 59 -32 59 vhcurveto
          endchar
        </CharString>
        <CharString name="thorn">
          -27 107 callgsubr
          223 -20 hstem
          66 113 145 116 vstem
          113 -207 rmoveto
          19 -59 callgsubr
          215 vlineto
          -23 23 28 -18 44 hhcurveto
          102 64 96 169 169 -63 103 -91 -43 -38 -22 -39 -26 hvcurveto
          257 vlineto
          18 -15 9 -34 vhcurveto
          -16 152 callsubr
          -18 hvcurveto
          -907 -54 callsubr
          132 293 rmoveto
          -27 128 callsubr
          29 hhcurveto
          48 23 -60 -116 -119 -26 -55 -53 hvcurveto
          endchar
        </CharString>
        <CharString name="three">
          -51 -7 92 239 91 200 92 hstemhm
          282 114 -92 115 hintmask 11101000
          208 -7 rmoveto
          119 92 74 135 99 -54 62 -68 22 hvcurveto
          4 vlineto
          hintmask 11110000
          55 23 44 46 76 vvcurveto
          108 -74 65 -117 -73 -92 -23 -39 -20 26 -43 15 vhcurveto
          14 26 33 66 hhcurveto
          72 23 -46 -44 -48 -32 -62 -81 hvcurveto
          -31 hlineto
          -17 -8 -11 -27 hvcurveto
          -15 vlineto
          -27 8 -11 17 vhcurveto
          38 hlineto
          hintmask 11101000
          81 47 -33 -85 -90 -61 -31 -56 hvcurveto
          -71 -39 38 -16 hhcurveto
          -16 -25 -43 -19 -42 105 -26 83 hvcurveto
          endchar
        </CharString>
        <CharString name="threequarters">
          117 19 -21 22 -21 91 53 147 54 139 54 116 54 -5 -20 hstemhm
          174 66 -53 67 227 66 hintmask 0111110011000000
          95 callgsubr
          hintmask 0111110101000000
          13 callsubr
          hintmask 0111110011000000
          36 callgsubr
          29 -291 rmoveto
          14 hlineto
          16 11 6 15 7 hvcurveto
          hintmask 0111101011000000
          291 661 rlineto
          3 5 2 3 4 vvcurveto
          6 -5 3 -11 vhcurveto
          -14 hlineto
          -15 -12 -6 -15 -7 hvcurveto
          -291 -661 rlineto
          -2 -5 -3 -4 -3 vvcurveto
          hintmask 0111110011000000
          126 callgsubr
          hintmask 1011110011000000
          347 -1 rmoveto
          14 hlineto
          18 8 60 callsubr
          -8 5 -18 vhcurveto
          -19 hlineto
          -12 -11 -2 -8 -4 hvcurveto
          -142 -261 rlineto
          -1 -1 -1 -2 -3 vvcurveto
          -13 10 -27 8 vhcurveto
          133 -77 hlineto
          -10 7 -5 18 vhcurveto
          -111 145 rmoveto
          89 165 rlineto
          2 138 callsubr
        </CharString>
        <CharString name="tilde">
          -218 587 77 callsubr
          -4 304 hintmask 00000000
          hintmask 01100000
          22 15 callsubr
          hintmask 10100000
          -102 callgsubr
          hintmask 01100000
          -89 callsubr
          endchar
        </CharString>
        <CharString name="tildecomb">
          -510 587 77 callsubr
          -154 304 hintmask 00000000
          hintmask 01100000
          -128 587 rmoveto
          23 callgsubr
          8 6 5 10 8 hvcurveto
          18 11 9 4 11 hhcurveto
          hintmask 10100000
          31 53 -35 40 hhcurveto
          39 29 25 44 18 hvcurveto
          2 5 1 4 5 vvcurveto
          9 -4 5 -13 5 vhcurveto
          -8 -25 callsubr
          -4 hhcurveto
          -9 -7 53 callsubr
          -18 -12 -10 -3 -11 hhcurveto
          hintmask 01100000
          -31 -52 35 -39 hhcurveto
          -40 -28 -24 -45 -18 hvcurveto
          -2 -6 -1 -5 -4 vvcurveto
          -6 4 -8 11 -4 vhcurveto
          endchar
        </CharString>
        <CharString name="trademark">
          107 643 57 -57 58 hstemhm
          105 68 104 66 185 66 hintmask 10111000
          304 305 rmoveto
          12 hlineto
          19 8 5 10 hvcurveto
          241 4 vlineto
          65 -154 rlineto
          -7 3 6 -2 8 hhcurveto
          14 hlineto
          8 5 2 7 3 hvcurveto
          64 152 rlineto
          5 -239 hlineto
          -10 8 -5 19 vhcurveto
          12 hlineto
          19 8 5 10 hvcurveto
          hintmask 01111000
          366 vlineto
          10 -8 5 -19 vhcurveto
          -23 hlineto
          -12 -11 -3 -9 -4 hvcurveto
          -71 -169 -12 -32 -12 34 -68 167 rlineto
          9 -4 -10 3 -12 hhcurveto
          -24 hlineto
          -19 -8 -5 -10 hvcurveto
          -366 vlineto
          hintmask 10111000
          -10 8 -5 19 vhcurveto
          -173 hmoveto
          15 hlineto
          18 9 5 10 hvcurveto
          323 71 vlineto
          10 4 7 15 hvcurveto
          13 vlineto
          16 -4 6 -10 vhcurveto
          -211 hlineto
          -10 -4 -6 -16 hvcurveto
          -13 vlineto
          -15 4 -7 10 vhcurveto
          72 -323 hlineto
          -10 8 -5 18 vhcurveto
          endchar
        </CharString>
        <CharString name="two">
          -51 0 91 524 92 hstem
          303 115 vstem
          45 hmoveto
          352 hlineto
          17 8 100 callsubr
          27 -8 11 -17 vhcurveto
          -233 hlineto
          152 225 rlineto
          80 105 22 46 66 vvcurveto
          105 -76 69 -124 -80 -103 -34 -48 -20 24 -39 20 vhcurveto
          16 38 49 73 hhcurveto
          59 38 -31 -57 -37 -12 -28 -38 -56 hvcurveto
          -228 -326 rlineto
          -2 -3 -1 -7 -7 vvcurveto
          -23 10 -40 13 vhcurveto
          endchar
        </CharString>
        <CharString name="u">
          11 callsubr
          19 callsubr
          hintmask 00000000
          hintmask 10111000
          183 -8 12 callsubr
          hintmask 01111000
          -84 callsubr
          hintmask 10111000
          -78 callgsubr
        </CharString>
        <CharString name="uacute">
          11 callsubr
          77 152 19 callsubr
          hintmask 01111100
          227 -94 callgsubr
          hintmask 10111100
          -44 -589 -88 callsubr
        </CharString>
        <CharString name="ubreve">
          11 callsubr
          77 77 19 callsubr
          hintmask 01111100
          240 581 -102 callsubr
          hintmask 10111100
          -57 -589 -88 callsubr
        </CharString>
        <CharString name="ucircumflex">
          11 callsubr
          70 144 19 callsubr
          hintmask 01111100
          143 574 -107 callgsubr
          hintmask 10111100
          40 -582 -88 callsubr
        </CharString>
        <CharString name="udieresis">
          11 callsubr
          90 108 hstemhm
          58 115 -51 94 48 94 -55 113 hintmask 00000000
          hintmask 01110110
          169 594 -101 callsubr
          hintmask 10111001
          -128 -602 12 callsubr
          hintmask 01111001
          -84 callsubr
          hintmask 10111001
          -78 callgsubr
        </CharString>
        <CharString name="ugrave">
          11 callsubr
          77 152 19 callsubr
          hintmask 01111100
          260 581 -101 callgsubr
          hintmask 10111100
          -77 -589 -88 callsubr
        </CharString>
        <CharString name="uhorn">
          32 callgsubr
          100 callgsubr
          hintmask 00000000
          hintmask 01011110
          490 578 -52 callsubr
          hintmask 10011100
          -71 callgsubr
          hintmask 01101100
          -23 callgsubr
          hintmask 01011110
          79 callgsubr
        </CharString>
        <CharString name="uhungarumlaut">
          11 callsubr
          77 152 19 callsubr
          hintmask 01111100
          142 581 -76 callsubr
          hintmask 10111100
          -104 -589 -88 callsubr
        </CharString>
        <CharString name="umacron">
          11 callsubr
          101 81 19 callsubr
          hintmask 01111100
          144 605 -83 callgsubr
          hintmask 10111100
          39 -613 -88 callsubr
        </CharString>
        <CharString name="underscore">
          -83 -140 74 hstem
          -17 461 vstem
          7 -140 rmoveto
          414 hlineto
          16 7 10 23 hvcurveto
          8 vlineto
          23 -7 10 -16 vhcurveto
          -414 hlineto
          -16 -8 -10 -23 hvcurveto
          -8 vlineto
          -23 8 -10 16 vhcurveto
          endchar
        </CharString>
        <CharString name="uni00A0">
          -373 endchar
        </CharString>
        <CharString name="uni00AD">
          -254 222 86 hstem
          23 208 vstem
          47 222 rmoveto
          161 28 callsubr
          -161 hlineto
          -16 -8 -11 -27 hvcurveto
          -9 vlineto
          -27 8 -12 16 vhcurveto
          endchar
        </CharString>
        <CharString name="uni00B2">
          -230 296 53 303 53 hstem
          183 66 vstem
          34 296 rmoveto
          204 hlineto
          9 5 7 15 hvcurveto
          8 vlineto
          16 -5 7 -9 vhcurveto
          -135 hlineto
          88 130 rlineto
          46 61 12 26 39 vvcurveto
          60 -44 40 -71 -46 -60 -19 -28 -12 14 -22 11 vhcurveto
          10 21 57 callgsubr
          -14 6 -23 8 vhcurveto
          endchar
        </CharString>
        <CharString name="uni00B3">
          -230 290 54 139 54 116 54 hstemhm
          174 66 -53 67 hintmask 11101000
          95 callgsubr
          hintmask 11110000
          13 callsubr
          hintmask 11101000
          36 callgsubr
          endchar
        </CharString>
        <CharString name="uni00B5">
          -57 -40 callsubr
        </CharString>
        <CharString name="uni00B9">
          -230 703 -20 hstem
          113 67 vstem
          -60 callgsubr
          endchar
        </CharString>
        <CharString name="uni0162">
          -56 -211 60 170 -21 602 100 hstemhm
          168 119 -55 78 hintmask 11110000
          416 700 rmoveto
          -378 hlineto
          85 callgsubr
          -22 vlineto
          -28 127 callgsubr
          130 -576 hlineto
          -15 10 -9 26 -2 vhcurveto
          -20 -56 -4 -13 -8 101 callgsubr
          hintmask 11101000
          -39 callgsubr
          -32 3 hvcurveto
          hintmask 11110000
          15 53 rlineto
          22 2 9 9 14 vvcurveto
          576 129 vlineto
          17 7 11 28 hvcurveto
          22 111 callsubr
          endchar
        </CharString>
</ttFont>
